M48
;DRILL file {KiCad 4.0.0-rc1-stable} date 4/24/2016 3:59:43 PM
;FORMAT={-:-/ absolute / inch / decimal}
FMAT,2
INCH,TZ
T1C0.030
T2C0.031
T3C0.032
T4C0.039
T5C0.040
T6C0.055
%
G90
G05
M72
T1
X6.4Y-4.55
X6.5Y-4.55
X6.6Y-4.55
X6.7Y-4.55
T2
X5.2Y-4.
X5.2Y-4.1
X5.2Y-4.2
X5.2Y-4.3
X5.5Y-4.
X5.5Y-4.1
X5.5Y-4.2
X5.5Y-4.3
X5.65Y-3.35
X5.65Y-3.65
X5.75Y-3.35
X5.75Y-3.65
X5.85Y-3.35
X5.85Y-3.65
X5.9Y-4.65
X5.95Y-3.35
X5.95Y-3.65
X5.95Y-4.35
X5.9984Y-4.65
X6.05Y-3.35
X6.05Y-3.65
X6.15Y-3.35
X6.15Y-3.65
X6.15Y-4.35
X6.15Y-4.4484
X6.25Y-3.35
X6.25Y-3.65
X6.35Y-3.35
X6.35Y-3.65
T3
X5.95Y-4.4484
T4
X4.5Y-3.95
X4.5Y-4.05
X4.5191Y-3.7564
X4.5192Y-4.2436
X4.5386Y-4.3417
X4.5387Y-3.6583
X4.595Y-3.4722
X4.595Y-4.5278
X4.6333Y-3.3798
X4.6333Y-4.6202
X4.65Y-3.95
X4.65Y-4.05
X4.6662Y-3.7857
X4.6663Y-4.2143
X4.6857Y-4.3124
X4.6858Y-3.6876
X4.725Y-3.2082
X4.7251Y-4.7917
X4.7336Y-3.5296
X4.7336Y-4.4704
X4.7719Y-3.4372
X4.7719Y-4.5628
X4.7806Y-4.8749
X4.7806Y-3.1251
X4.7912Y-3.9683
X4.8081Y-3.7952
X4.8205Y-4.2669
X4.8497Y-3.2916
X4.8498Y-4.7084
X4.8711Y-4.4333
X4.8953Y-3.5082
X4.904Y-2.9747
X4.904Y-5.0253
X4.9053Y-4.7916
X4.9054Y-3.2085
X4.9747Y-2.904
X4.9747Y-5.096
X4.9772Y-3.3547
X5.0101Y-3.0808
X5.0101Y-4.9192
X5.0124Y-4.698
X5.0808Y-3.0101
X5.0808Y-4.9899
X5.1229Y-4.8324
X5.1251Y-2.7806
X5.1251Y-5.2194
X5.1676Y-3.1229
X5.2082Y-5.275
X5.2083Y-2.7251
X5.2084Y-2.9053
X5.2085Y-5.0946
X5.2916Y-5.1503
X5.2916Y-2.8498
X5.302Y-3.0124
X5.3547Y-5.0228
X5.3798Y-2.6333
X5.3798Y-5.3667
X5.4372Y-2.7719
X5.4372Y-5.2281
X5.4722Y-2.595
X5.4722Y-5.405
X5.5082Y-5.1047
X5.5296Y-2.7336
X5.5296Y-5.2664
X5.5667Y-2.8711
X5.65Y-3.85
X5.65Y-4.15
X5.6583Y-2.5386
X5.6583Y-5.4613
X5.6876Y-2.6857
X5.6876Y-5.3142
X5.7331Y-2.8205
X5.75Y-4.25
X5.75Y-4.55
X5.7564Y-5.4809
X5.7564Y-2.5192
X5.7857Y-5.3338
X5.7857Y-2.6663
X5.7952Y-5.1919
X5.95Y-2.5
X5.95Y-2.65
X5.95Y-5.35
X5.95Y-5.5
X5.9683Y-5.2088
X6.0317Y-2.7912
X6.05Y-2.5
X6.05Y-2.65
X6.05Y-5.35
X6.05Y-5.5
X6.2048Y-2.8081
X6.2143Y-5.3337
X6.2143Y-2.6662
X6.2436Y-5.4808
X6.2436Y-2.5191
X6.2669Y-5.1795
X6.3121Y-2.6873
X6.3124Y-5.3143
X6.3417Y-2.5387
X6.3417Y-5.4614
X6.4333Y-5.1289
X6.4704Y-2.7336
X6.4704Y-5.2664
X6.4918Y-2.8953
X6.5278Y-2.595
X6.5278Y-5.405
X6.5628Y-2.7719
X6.5628Y-5.2281
X6.6202Y-2.6333
X6.6202Y-5.3667
X6.6453Y-2.9772
X6.698Y-4.9876
X6.7084Y-5.1502
X6.7084Y-2.8497
X6.7915Y-2.9054
X6.7916Y-5.0947
X6.7917Y-5.2749
X6.7918Y-2.725
X6.8324Y-4.8771
X6.8749Y-2.7806
X6.8749Y-5.2194
X6.8771Y-3.1676
X6.9192Y-3.0101
X6.9192Y-4.9899
X6.9876Y-3.302
X6.9899Y-3.0808
X6.9899Y-4.9192
X7.0228Y-4.6453
X7.0253Y-2.904
X7.0253Y-5.096
X7.0946Y-4.7915
X7.0947Y-3.2084
X7.096Y-2.9747
X7.096Y-5.0253
X7.1047Y-4.4918
X7.1289Y-3.5667
X7.1502Y-3.2916
X7.1503Y-4.7084
X7.1795Y-3.7331
X7.1919Y-4.2048
X7.2088Y-4.0317
X7.2194Y-4.8749
X7.2194Y-3.1251
X7.2281Y-3.4372
X7.2281Y-4.5628
X7.2664Y-3.5296
X7.2664Y-4.4704
X7.2749Y-3.2083
X7.275Y-4.7918
X7.3142Y-4.3124
X7.3143Y-3.6876
X7.3337Y-3.7857
X7.3338Y-4.2143
X7.35Y-3.95
X7.35Y-4.05
X7.3667Y-3.3798
X7.3667Y-4.6202
X7.405Y-3.4722
X7.405Y-4.5278
X7.4613Y-4.3417
X7.4614Y-3.6583
X7.4808Y-3.7564
X7.4809Y-4.2436
X7.5Y-3.95
X7.5Y-4.05
T5
X6.15Y-2.4
X6.15Y-3.25
T6
X6.Y-3.9114
X6.Y-4.0886
T0
M30
