G04 #@! TF.FileFunction,Copper,L2,Bot,Signal*
%FSLAX46Y46*%
G04 Gerber Fmt 4.6, Leading zero omitted, Abs format (unit mm)*
G04 Created by KiCad (PCBNEW 4.0.0-rc1-stable) date 4/24/2016 3:59:36 PM*
%MOMM*%
G01*
G04 APERTURE LIST*
%ADD10C,0.100000*%
%ADD11C,1.998980*%
%ADD12C,2.800000*%
%ADD13R,1.900000X2.000000*%
%ADD14C,1.900000*%
%ADD15R,2.000000X1.900000*%
%ADD16O,1.600000X1.600000*%
%ADD17R,1.300000X1.300000*%
%ADD18C,1.300000*%
%ADD19C,1.524000*%
%ADD20C,2.032000*%
%ADD21C,1.016000*%
G04 APERTURE END LIST*
D10*
D11*
X170128293Y-126684939D03*
X163406486Y-130274050D03*
D12*
X152400000Y-99350000D03*
X152400000Y-103850000D03*
D11*
X143510000Y-97790000D03*
X143510000Y-105410000D03*
X146050000Y-107950000D03*
X146050000Y-115570000D03*
D13*
X153670000Y-139700000D03*
D14*
X151130000Y-139700000D03*
D13*
X153670000Y-135890000D03*
D14*
X151130000Y-135890000D03*
D10*
G36*
X159952397Y-137923721D02*
X161816212Y-137554676D01*
X162204681Y-139516587D01*
X160340866Y-139885632D01*
X159952397Y-137923721D01*
X159952397Y-137923721D01*
G37*
D14*
X158586913Y-139213509D03*
D10*
G36*
X161461386Y-135779796D02*
X159597571Y-136148841D01*
X159209102Y-134186930D01*
X161072917Y-133817885D01*
X161461386Y-135779796D01*
X161461386Y-135779796D01*
G37*
D14*
X157843618Y-135476718D03*
D10*
G36*
X166893197Y-135753472D02*
X168648568Y-135026373D01*
X169413935Y-136874132D01*
X167658564Y-137601231D01*
X166893197Y-135753472D01*
X166893197Y-135753472D01*
G37*
D14*
X165806912Y-137285818D03*
D10*
G36*
X167955911Y-133354151D02*
X166200540Y-134081250D01*
X165435173Y-132233491D01*
X167190544Y-131506392D01*
X167955911Y-133354151D01*
X167955911Y-133354151D01*
G37*
D14*
X164348888Y-133765837D03*
D10*
G36*
X173277991Y-132268566D02*
X174858704Y-131214362D01*
X175968393Y-132878270D01*
X174387680Y-133932474D01*
X173277991Y-132268566D01*
X173277991Y-132268566D01*
G37*
D14*
X172510029Y-133982723D03*
D10*
G36*
X173851671Y-129710371D02*
X172270958Y-130764575D01*
X171161269Y-129100667D01*
X172741982Y-128046463D01*
X173851671Y-129710371D01*
X173851671Y-129710371D01*
G37*
D14*
X170393307Y-130814824D03*
D10*
G36*
X178859936Y-127607388D02*
X180203439Y-126263885D01*
X181617652Y-127678098D01*
X180274149Y-129021601D01*
X178859936Y-127607388D01*
X178859936Y-127607388D01*
G37*
D14*
X178442743Y-129438794D03*
D10*
G36*
X178923575Y-124984021D02*
X177580072Y-126327524D01*
X176165859Y-124913311D01*
X177509362Y-123569808D01*
X178923575Y-124984021D01*
X178923575Y-124984021D01*
G37*
D14*
X175748666Y-126744717D03*
D10*
G36*
X183425101Y-121944399D02*
X184482062Y-120365528D01*
X186144031Y-121478119D01*
X185087070Y-123056990D01*
X183425101Y-121944399D01*
X183425101Y-121944399D01*
G37*
D14*
X183371575Y-123821960D03*
D10*
G36*
X182976132Y-119361397D02*
X181919171Y-120940268D01*
X180257202Y-119827677D01*
X181314163Y-118248806D01*
X182976132Y-119361397D01*
X182976132Y-119361397D01*
G37*
D14*
X180203676Y-121705238D03*
D10*
G36*
X186798389Y-115501914D02*
X187525488Y-113746543D01*
X189373247Y-114511910D01*
X188646148Y-116267281D01*
X186798389Y-115501914D01*
X186798389Y-115501914D01*
G37*
D14*
X187113802Y-117353566D03*
D10*
G36*
X185853266Y-113053886D02*
X185126167Y-114809257D01*
X183278408Y-114043890D01*
X184005507Y-112288519D01*
X185853266Y-113053886D01*
X185853266Y-113053886D01*
G37*
D14*
X183593821Y-115895542D03*
D10*
G36*
X187445655Y-106308412D02*
X187073358Y-108171580D01*
X185112129Y-107779688D01*
X185484426Y-105916520D01*
X187445655Y-106308412D01*
X187445655Y-106308412D01*
G37*
D14*
X185781189Y-109534811D03*
D15*
X190500000Y-100330000D03*
D14*
X190500000Y-102870000D03*
D15*
X186690000Y-100330000D03*
D14*
X186690000Y-102870000D03*
D10*
G36*
X188723721Y-94047603D02*
X188354676Y-92183788D01*
X190316587Y-91795319D01*
X190685632Y-93659134D01*
X188723721Y-94047603D01*
X188723721Y-94047603D01*
G37*
D14*
X190013509Y-95413087D03*
D10*
G36*
X186579796Y-92538614D02*
X186948841Y-94402429D01*
X184986930Y-94790898D01*
X184617885Y-92927083D01*
X186579796Y-92538614D01*
X186579796Y-92538614D01*
G37*
D14*
X186276718Y-96156382D03*
D10*
G36*
X186553472Y-87106803D02*
X185826373Y-85351432D01*
X187674132Y-84586065D01*
X188401231Y-86341436D01*
X186553472Y-87106803D01*
X186553472Y-87106803D01*
G37*
D14*
X188085818Y-88193088D03*
D10*
G36*
X184154151Y-86044089D02*
X184881250Y-87799460D01*
X183033491Y-88564827D01*
X182306392Y-86809456D01*
X184154151Y-86044089D01*
X184154151Y-86044089D01*
G37*
D14*
X184565837Y-89651112D03*
D10*
G36*
X183068566Y-80722009D02*
X182014362Y-79141296D01*
X183678270Y-78031607D01*
X184732474Y-79612320D01*
X183068566Y-80722009D01*
X183068566Y-80722009D01*
G37*
D14*
X184782723Y-81489971D03*
D10*
G36*
X180510371Y-80148329D02*
X181564575Y-81729042D01*
X179900667Y-82838731D01*
X178846463Y-81258018D01*
X180510371Y-80148329D01*
X180510371Y-80148329D01*
G37*
D14*
X181614824Y-83606693D03*
D10*
G36*
X178407388Y-75140064D02*
X177063885Y-73796561D01*
X178478098Y-72382348D01*
X179821601Y-73725851D01*
X178407388Y-75140064D01*
X178407388Y-75140064D01*
G37*
D14*
X180238794Y-75557257D03*
D10*
G36*
X175784021Y-75076425D02*
X177127524Y-76419928D01*
X175713311Y-77834141D01*
X174369808Y-76490638D01*
X175784021Y-75076425D01*
X175784021Y-75076425D01*
G37*
D14*
X177544717Y-78251334D03*
D10*
G36*
X172744399Y-70574899D02*
X171165528Y-69517938D01*
X172278119Y-67855969D01*
X173856990Y-68912930D01*
X172744399Y-70574899D01*
X172744399Y-70574899D01*
G37*
D14*
X174621960Y-70628425D03*
D10*
G36*
X170161397Y-71023868D02*
X171740268Y-72080829D01*
X170627677Y-73742798D01*
X169048806Y-72685837D01*
X170161397Y-71023868D01*
X170161397Y-71023868D01*
G37*
D14*
X172505238Y-73796324D03*
D10*
G36*
X166301914Y-67201611D02*
X164546543Y-66474512D01*
X165311910Y-64626753D01*
X167067281Y-65353852D01*
X166301914Y-67201611D01*
X166301914Y-67201611D01*
G37*
D14*
X168153566Y-66886198D03*
D10*
G36*
X163853886Y-68146734D02*
X165609257Y-68873833D01*
X164843890Y-70721592D01*
X163088519Y-69994493D01*
X163853886Y-68146734D01*
X163853886Y-68146734D01*
G37*
D14*
X166695542Y-70406179D03*
D10*
G36*
X159322982Y-65151079D02*
X157459814Y-64778782D01*
X157851706Y-62817553D01*
X159714874Y-63189850D01*
X159322982Y-65151079D01*
X159322982Y-65151079D01*
G37*
D14*
X161078105Y-64482019D03*
D10*
G36*
X157126830Y-66542934D02*
X158983920Y-66944451D01*
X158561270Y-68899282D01*
X156704180Y-68497765D01*
X157126830Y-66542934D01*
X157126830Y-66542934D01*
G37*
D14*
X160326686Y-68257873D03*
D11*
X159179216Y-131559785D03*
X151595583Y-132303367D03*
X178378397Y-117991137D03*
X173541750Y-123879367D03*
X182673526Y-106801934D03*
X180458375Y-114092854D03*
X182359785Y-94820784D03*
X183103367Y-102404417D03*
X177484939Y-83871707D03*
X181074050Y-90593514D03*
X168791137Y-75621603D03*
X174679367Y-80458250D03*
X157601934Y-71326474D03*
X164892854Y-73541625D03*
D10*
G36*
X188848921Y-108522982D02*
X189221218Y-106659814D01*
X191182447Y-107051706D01*
X190810150Y-108914874D01*
X188848921Y-108522982D01*
X188848921Y-108522982D01*
G37*
D14*
X189517981Y-110278105D03*
D16*
X161290000Y-85090000D03*
X158750000Y-85090000D03*
X156210000Y-85090000D03*
X153670000Y-85090000D03*
X151130000Y-85090000D03*
X148590000Y-85090000D03*
X146050000Y-85090000D03*
X143510000Y-85090000D03*
X143510000Y-92710000D03*
X146050000Y-92710000D03*
X148590000Y-92710000D03*
X151130000Y-92710000D03*
X153670000Y-92710000D03*
X156210000Y-92710000D03*
X158750000Y-92710000D03*
X161290000Y-92710000D03*
D13*
X151130000Y-63500000D03*
D14*
X153670000Y-63500000D03*
D13*
X151130000Y-67310000D03*
D14*
X153670000Y-67310000D03*
D10*
G36*
X144847603Y-65276279D02*
X142983788Y-65645324D01*
X142595319Y-63683413D01*
X144459134Y-63314368D01*
X144847603Y-65276279D01*
X144847603Y-65276279D01*
G37*
D14*
X146213087Y-63986491D03*
D10*
G36*
X143338614Y-67420204D02*
X145202429Y-67051159D01*
X145590898Y-69013070D01*
X143727083Y-69382115D01*
X143338614Y-67420204D01*
X143338614Y-67420204D01*
G37*
D14*
X146956382Y-67723282D03*
D10*
G36*
X137906803Y-67446528D02*
X136151432Y-68173627D01*
X135386065Y-66325868D01*
X137141436Y-65598769D01*
X137906803Y-67446528D01*
X137906803Y-67446528D01*
G37*
D14*
X138993088Y-65914182D03*
D10*
G36*
X136844089Y-69845849D02*
X138599460Y-69118750D01*
X139364827Y-70966509D01*
X137609456Y-71693608D01*
X136844089Y-69845849D01*
X136844089Y-69845849D01*
G37*
D14*
X140451112Y-69434163D03*
D10*
G36*
X131522009Y-70931434D02*
X129941296Y-71985638D01*
X128831607Y-70321730D01*
X130412320Y-69267526D01*
X131522009Y-70931434D01*
X131522009Y-70931434D01*
G37*
D14*
X132289971Y-69217277D03*
D10*
G36*
X130948329Y-73489629D02*
X132529042Y-72435425D01*
X133638731Y-74099333D01*
X132058018Y-75153537D01*
X130948329Y-73489629D01*
X130948329Y-73489629D01*
G37*
D14*
X134406693Y-72385176D03*
D10*
G36*
X125940064Y-75592612D02*
X124596561Y-76936115D01*
X123182348Y-75521902D01*
X124525851Y-74178399D01*
X125940064Y-75592612D01*
X125940064Y-75592612D01*
G37*
D14*
X126357257Y-73761206D03*
D10*
G36*
X125876425Y-78215979D02*
X127219928Y-76872476D01*
X128634141Y-78286689D01*
X127290638Y-79630192D01*
X125876425Y-78215979D01*
X125876425Y-78215979D01*
G37*
D14*
X129051334Y-76455283D03*
D10*
G36*
X121374899Y-81255601D02*
X120317938Y-82834472D01*
X118655969Y-81721881D01*
X119712930Y-80143010D01*
X121374899Y-81255601D01*
X121374899Y-81255601D01*
G37*
D14*
X121428425Y-79378040D03*
D10*
G36*
X121823868Y-83838603D02*
X122880829Y-82259732D01*
X124542798Y-83372323D01*
X123485837Y-84951194D01*
X121823868Y-83838603D01*
X121823868Y-83838603D01*
G37*
D14*
X124596324Y-81494762D03*
D10*
G36*
X118001611Y-87698086D02*
X117274512Y-89453457D01*
X115426753Y-88688090D01*
X116153852Y-86932719D01*
X118001611Y-87698086D01*
X118001611Y-87698086D01*
G37*
D14*
X117686198Y-85846434D03*
D10*
G36*
X118946734Y-90146114D02*
X119673833Y-88390743D01*
X121521592Y-89156110D01*
X120794493Y-90911481D01*
X118946734Y-90146114D01*
X118946734Y-90146114D01*
G37*
D14*
X121206179Y-87304458D03*
D10*
G36*
X115951079Y-94677018D02*
X115578782Y-96540186D01*
X113617553Y-96148294D01*
X113989850Y-94285126D01*
X115951079Y-94677018D01*
X115951079Y-94677018D01*
G37*
D14*
X115282019Y-92921895D03*
D10*
G36*
X117354345Y-96891588D02*
X117726642Y-95028420D01*
X119687871Y-95420312D01*
X119315574Y-97283480D01*
X117354345Y-96891588D01*
X117354345Y-96891588D01*
G37*
D14*
X119018811Y-93665189D03*
D15*
X114300000Y-102870000D03*
D14*
X114300000Y-100330000D03*
D15*
X118110000Y-102870000D03*
D14*
X118110000Y-100330000D03*
D10*
G36*
X116076279Y-109152397D02*
X116445324Y-111016212D01*
X114483413Y-111404681D01*
X114114368Y-109540866D01*
X116076279Y-109152397D01*
X116076279Y-109152397D01*
G37*
D14*
X114786491Y-107786913D03*
D10*
G36*
X118220204Y-110661386D02*
X117851159Y-108797571D01*
X119813070Y-108409102D01*
X120182115Y-110272917D01*
X118220204Y-110661386D01*
X118220204Y-110661386D01*
G37*
D14*
X118523282Y-107043618D03*
D10*
G36*
X118246528Y-116093197D02*
X118973627Y-117848568D01*
X117125868Y-118613935D01*
X116398769Y-116858564D01*
X118246528Y-116093197D01*
X118246528Y-116093197D01*
G37*
D14*
X116714182Y-115006912D03*
D10*
G36*
X120645849Y-117155911D02*
X119918750Y-115400540D01*
X121766509Y-114635173D01*
X122493608Y-116390544D01*
X120645849Y-117155911D01*
X120645849Y-117155911D01*
G37*
D14*
X120234163Y-113548888D03*
D10*
G36*
X121731434Y-122477991D02*
X122785638Y-124058704D01*
X121121730Y-125168393D01*
X120067526Y-123587680D01*
X121731434Y-122477991D01*
X121731434Y-122477991D01*
G37*
D14*
X120017277Y-121710029D03*
D10*
G36*
X124289629Y-123051671D02*
X123235425Y-121470958D01*
X124899333Y-120361269D01*
X125953537Y-121941982D01*
X124289629Y-123051671D01*
X124289629Y-123051671D01*
G37*
D14*
X123185176Y-119593307D03*
D10*
G36*
X126392612Y-128059936D02*
X127736115Y-129403439D01*
X126321902Y-130817652D01*
X124978399Y-129474149D01*
X126392612Y-128059936D01*
X126392612Y-128059936D01*
G37*
D14*
X124561206Y-127642743D03*
D10*
G36*
X129015979Y-128123575D02*
X127672476Y-126780072D01*
X129086689Y-125365859D01*
X130430192Y-126709362D01*
X129015979Y-128123575D01*
X129015979Y-128123575D01*
G37*
D14*
X127255283Y-124948666D03*
D10*
G36*
X132055601Y-132625101D02*
X133634472Y-133682062D01*
X132521881Y-135344031D01*
X130943010Y-134287070D01*
X132055601Y-132625101D01*
X132055601Y-132625101D01*
G37*
D14*
X130178040Y-132571575D03*
D10*
G36*
X134638603Y-132176132D02*
X133059732Y-131119171D01*
X134172323Y-129457202D01*
X135751194Y-130514163D01*
X134638603Y-132176132D01*
X134638603Y-132176132D01*
G37*
D14*
X132294762Y-129403676D03*
D10*
G36*
X138498086Y-135998389D02*
X140253457Y-136725488D01*
X139488090Y-138573247D01*
X137732719Y-137846148D01*
X138498086Y-135998389D01*
X138498086Y-135998389D01*
G37*
D14*
X136646434Y-136313802D03*
D10*
G36*
X140946114Y-135053266D02*
X139190743Y-134326167D01*
X139956110Y-132478408D01*
X141711481Y-133205507D01*
X140946114Y-135053266D01*
X140946114Y-135053266D01*
G37*
D14*
X138104458Y-132793821D03*
D10*
G36*
X145477018Y-138048921D02*
X147340186Y-138421218D01*
X146948294Y-140382447D01*
X145085126Y-140010150D01*
X145477018Y-138048921D01*
X145477018Y-138048921D01*
G37*
D14*
X143721895Y-138717981D03*
D10*
G36*
X147691588Y-136645655D02*
X145828420Y-136273358D01*
X146220312Y-134312129D01*
X148083480Y-134684426D01*
X147691588Y-136645655D01*
X147691588Y-136645655D01*
G37*
D14*
X144465189Y-134981189D03*
D11*
X145620784Y-71640215D03*
X153204417Y-70896633D03*
X134671707Y-76515061D03*
X141393514Y-72925950D03*
X126421603Y-85208863D03*
X131258250Y-79320633D03*
X122126474Y-96398066D03*
X124341625Y-89107146D03*
X122440215Y-108379216D03*
X121696633Y-100795583D03*
X127315061Y-119328293D03*
X123725950Y-112606486D03*
X136008863Y-127578397D03*
X130120633Y-122741750D03*
X147198066Y-131873526D03*
X139907146Y-129658375D03*
D17*
X156210000Y-110490000D03*
D18*
X156210000Y-112990000D03*
D17*
X151130000Y-110490000D03*
D18*
X151130000Y-112990000D03*
D17*
X149860000Y-118110000D03*
D18*
X152360000Y-118110000D03*
D19*
X162560000Y-115570000D03*
X165100000Y-115570000D03*
X167640000Y-115570000D03*
X170180000Y-115570000D03*
D16*
X132080000Y-101600000D03*
X132080000Y-104140000D03*
X132080000Y-106680000D03*
X132080000Y-109220000D03*
X139700000Y-109220000D03*
X139700000Y-106680000D03*
X139700000Y-104140000D03*
X139700000Y-101600000D03*
D20*
X156210000Y-60960000D03*
X156210000Y-82550000D03*
D21*
X139700000Y-104140000D02*
X142240000Y-104140000D01*
X142240000Y-104140000D02*
X143510000Y-105410000D01*
X143510000Y-105410000D02*
X143510000Y-105410000D01*
X143510000Y-105410000D02*
X146050000Y-107950000D01*
X153670000Y-139700000D02*
X151130000Y-135890000D01*
X153670000Y-135890000D02*
X158586913Y-139213509D01*
X161078539Y-138720154D02*
X157843618Y-135476718D01*
X159179216Y-131559785D02*
X160335244Y-134983363D01*
X164348888Y-133765837D02*
X168153566Y-136313802D01*
X166695542Y-132793821D02*
X172510029Y-133982723D01*
X170393307Y-130814824D02*
X174623192Y-132573418D01*
X170128293Y-126684939D02*
X172506470Y-129405519D01*
X175748666Y-126744717D02*
X180238794Y-127642743D01*
X177544717Y-124948666D02*
X183371575Y-123821960D01*
X180203676Y-121705238D02*
X184784566Y-121711259D01*
X178378397Y-117991137D02*
X181616667Y-119594537D01*
X183593821Y-115895542D02*
X188085818Y-115006912D01*
X184565837Y-113548888D02*
X189517981Y-110278105D01*
X185781189Y-109534811D02*
X190015684Y-107787344D01*
X182673526Y-106801934D02*
X186278892Y-107044050D01*
X186690000Y-102870000D02*
X190500000Y-100330000D01*
X186690000Y-100330000D02*
X190013509Y-95413087D01*
X189520154Y-92921461D02*
X186276718Y-96156382D01*
X185783363Y-93664756D02*
X182359785Y-94820784D01*
X184565837Y-89651112D02*
X187113802Y-85846434D01*
X184782723Y-81489971D02*
X183593821Y-87304458D01*
X181614824Y-83606693D02*
X183373418Y-79376808D01*
X177484939Y-83871707D02*
X180205519Y-81493530D01*
X178442743Y-73761206D02*
X177544717Y-78251334D01*
X175748666Y-76455283D02*
X174621960Y-70628425D01*
X172511259Y-69215434D02*
X172505238Y-73796324D01*
X168791137Y-75621603D02*
X170394537Y-72383333D01*
X165806912Y-65914182D02*
X166695542Y-70406179D01*
X164348888Y-69434163D02*
X161078105Y-64482019D01*
X158587344Y-63984316D02*
X160326686Y-68257873D01*
X157601934Y-71326474D02*
X157844050Y-67721108D01*
X158750000Y-85090000D02*
X158750000Y-86360000D01*
X133350000Y-106680000D02*
X132080000Y-106680000D01*
X134620000Y-105410000D02*
X133350000Y-106680000D01*
X134620000Y-97790000D02*
X134620000Y-105410000D01*
X142240000Y-90170000D02*
X134620000Y-97790000D01*
X154940000Y-90170000D02*
X142240000Y-90170000D01*
X158750000Y-86360000D02*
X154940000Y-90170000D01*
X153670000Y-67310000D02*
X151130000Y-63500000D01*
X151130000Y-67310000D02*
X146213087Y-63986491D01*
X146956382Y-67723282D02*
X143721461Y-64479846D01*
X145620784Y-71640215D02*
X144464756Y-68216637D01*
X136646434Y-66886198D02*
X140451112Y-69434163D01*
X138104458Y-70406179D02*
X132289971Y-69217277D01*
X130176808Y-70626582D02*
X134406693Y-72385176D01*
X134671707Y-76515061D02*
X132293530Y-73794481D01*
X124561206Y-75557257D02*
X129051334Y-76455283D01*
X127255283Y-78251334D02*
X121428425Y-79378040D01*
X120015434Y-81488741D02*
X124596324Y-81494762D01*
X126421603Y-85208863D02*
X123183333Y-83605463D01*
X121206179Y-87304458D02*
X116714182Y-88193088D01*
X120234163Y-89651112D02*
X115282019Y-92921895D01*
X119018811Y-93665189D02*
X114784316Y-95412656D01*
X122126474Y-96398066D02*
X118521108Y-96155950D01*
X118110000Y-100330000D02*
X114300000Y-102870000D01*
X118110000Y-102870000D02*
X114786491Y-107786913D01*
X118523282Y-107043618D02*
X115279846Y-110278539D01*
X122440215Y-108379216D02*
X119016637Y-109535244D01*
X120234163Y-113548888D02*
X117686198Y-117353566D01*
X121206179Y-115895542D02*
X120017277Y-121710029D01*
X123185176Y-119593307D02*
X121426582Y-123823192D01*
X127315061Y-119328293D02*
X124594481Y-121706470D01*
X127255283Y-124948666D02*
X126357257Y-129438794D01*
X129051334Y-126744717D02*
X130178040Y-132571575D01*
X132294762Y-129403676D02*
X132288741Y-133984566D01*
X136008863Y-127578397D02*
X134405463Y-130816667D01*
X138104458Y-132793821D02*
X138993088Y-137285818D01*
X140451112Y-133765837D02*
X143721895Y-138717981D01*
X144465189Y-134981189D02*
X146212656Y-139215684D01*
X147198066Y-131873526D02*
X146955950Y-135478892D01*
X146050000Y-115570000D02*
X147320000Y-115570000D01*
X147320000Y-115570000D02*
X149860000Y-118110000D01*
X139700000Y-106680000D02*
X140970000Y-106680000D01*
X142240000Y-107950000D02*
X142240000Y-115570000D01*
X140970000Y-106680000D02*
X142240000Y-107950000D01*
X132080000Y-104140000D02*
X130810000Y-104140000D01*
X133350000Y-115570000D02*
X142240000Y-115570000D01*
X142240000Y-115570000D02*
X146050000Y-115570000D01*
X130810000Y-113030000D02*
X133350000Y-115570000D01*
X129540000Y-111760000D02*
X130810000Y-113030000D01*
X129540000Y-105410000D02*
X129540000Y-111760000D01*
X130810000Y-104140000D02*
X129540000Y-105410000D01*
X143510000Y-97790000D02*
X146050000Y-95250000D01*
X161290000Y-93980000D02*
X161290000Y-92710000D01*
X160020000Y-95250000D02*
X161290000Y-93980000D01*
X146050000Y-95250000D02*
X160020000Y-95250000D01*
X156210000Y-110490000D02*
X156210000Y-102870000D01*
X154940000Y-101600000D02*
X143510000Y-101600000D01*
X156210000Y-102870000D02*
X154940000Y-101600000D01*
X165100000Y-115570000D02*
X165100000Y-116840000D01*
X157480000Y-110490000D02*
X156210000Y-110490000D01*
X158750000Y-111760000D02*
X157480000Y-110490000D01*
X158750000Y-113030000D02*
X158750000Y-111760000D01*
X158750000Y-115570000D02*
X158750000Y-113030000D01*
X161290000Y-118110000D02*
X158750000Y-115570000D01*
X163830000Y-118110000D02*
X161290000Y-118110000D01*
X165100000Y-116840000D02*
X163830000Y-118110000D01*
X161290000Y-85090000D02*
X161290000Y-92710000D01*
X151130000Y-110490000D02*
X156210000Y-110490000D01*
X139700000Y-101600000D02*
X143510000Y-101600000D01*
X143510000Y-101600000D02*
X143510000Y-97790000D01*
X139700000Y-101600000D02*
X137160000Y-101600000D01*
X137160000Y-101600000D02*
X137160000Y-107188000D01*
X137160000Y-107188000D02*
X135128000Y-109220000D01*
X135128000Y-109220000D02*
X132080000Y-109220000D01*
X151130000Y-85090000D02*
X151130000Y-86360000D01*
X138430000Y-87630000D02*
X132643437Y-81843437D01*
X149860000Y-87630000D02*
X138430000Y-87630000D01*
X151130000Y-86360000D02*
X149860000Y-87630000D01*
X132643437Y-81843437D02*
X132643437Y-81986563D01*
X132080000Y-82550000D02*
X132080000Y-82686680D01*
X132643437Y-81986563D02*
X132080000Y-82550000D01*
X172230598Y-121491401D02*
X172230598Y-121430598D01*
X167640000Y-116840000D02*
X167640000Y-115570000D01*
X172230598Y-121430598D02*
X167640000Y-116840000D01*
X151130000Y-112990000D02*
X149820000Y-112990000D01*
X148880000Y-103850000D02*
X152400000Y-103850000D01*
X148590000Y-104140000D02*
X148880000Y-103850000D01*
X148590000Y-111760000D02*
X148590000Y-104140000D01*
X149820000Y-112990000D02*
X148590000Y-111760000D01*
X152360000Y-118110000D02*
X152360000Y-129532044D01*
X152367956Y-129540000D02*
X152400000Y-129540000D01*
X152360000Y-129532044D02*
X152367956Y-129540000D01*
X153670000Y-85090000D02*
X152400000Y-85090000D01*
X152400000Y-85090000D02*
X151130000Y-85090000D01*
X152360000Y-118110000D02*
X152360000Y-112990000D01*
X152400000Y-113030000D02*
X152400000Y-112990000D01*
X152360000Y-112990000D02*
X152400000Y-113030000D01*
X151130000Y-112990000D02*
X152400000Y-112990000D01*
X152400000Y-112990000D02*
X156210000Y-112990000D01*
X152400000Y-103850000D02*
X151420000Y-103850000D01*
X151090000Y-113030000D02*
X151130000Y-112990000D01*
X183103367Y-102404417D02*
X180340000Y-101600000D01*
X132080000Y-101600000D02*
X124460000Y-101600000D01*
X163092175Y-75786806D02*
X172156563Y-81843437D01*
X163092175Y-75786806D02*
X152400000Y-73660000D01*
X141707825Y-75786806D02*
X152400000Y-73660000D01*
X141707825Y-75786806D02*
X132643437Y-81843437D01*
X126586806Y-90907825D02*
X132080000Y-82686680D01*
X132080000Y-82686680D02*
X132643437Y-81843437D01*
X126586806Y-90907825D02*
X124460000Y-101600000D01*
X126586806Y-112292175D02*
X124460000Y-101600000D01*
X126586806Y-112292175D02*
X132643437Y-121356563D01*
X141707825Y-127413194D02*
X132643437Y-121356563D01*
X141707825Y-127413194D02*
X152400000Y-129540000D01*
X139907146Y-129658375D02*
X141707825Y-127413194D01*
X132643437Y-121356563D02*
X130120633Y-122741750D01*
X123725950Y-112606486D02*
X126586806Y-112292175D01*
X124460000Y-101600000D02*
X121696633Y-100795583D01*
X124341625Y-89107146D02*
X126586806Y-90907825D01*
X132643437Y-81843437D02*
X131258250Y-79320633D01*
X141707825Y-75786806D02*
X141393514Y-72925950D01*
X152400000Y-73660000D02*
X153204417Y-70896633D01*
X164892854Y-73541625D02*
X163092175Y-75786806D01*
X172156563Y-81843437D02*
X176023021Y-87630000D01*
X176023021Y-87630000D02*
X178213194Y-90907825D01*
X181074050Y-90593514D02*
X178213194Y-90907825D01*
X163092175Y-127413194D02*
X152400000Y-129540000D01*
X180458375Y-114092854D02*
X178213194Y-112292175D01*
X173541750Y-123879367D02*
X172230598Y-121491401D01*
X172230598Y-121491401D02*
X172156563Y-121356563D01*
X163406486Y-130274050D02*
X163092175Y-127413194D01*
X163092175Y-127413194D02*
X163406486Y-130274050D01*
X151595583Y-132303367D02*
X152400000Y-129540000D01*
X178213194Y-90907825D02*
X180340000Y-101600000D01*
X178213194Y-112292175D02*
X172156563Y-121356563D01*
X163092175Y-127413194D02*
X172156563Y-121356563D01*
X180340000Y-101600000D02*
X178213194Y-112292175D01*
X174679367Y-80458250D02*
X172156563Y-81843437D01*
X156307995Y-59197348D02*
X156307995Y-60862005D01*
X156307995Y-60862005D02*
X156210000Y-60960000D01*
X156210000Y-85090000D02*
X156210000Y-82550000D01*
X135875729Y-61706882D02*
X121867129Y-71067129D01*
X121867129Y-71067129D02*
X112506882Y-85075729D01*
X112506882Y-85075729D02*
X109997348Y-97692008D01*
X109997348Y-97692008D02*
X109220000Y-101600000D01*
X109220000Y-101600000D02*
X112506882Y-118124271D01*
X112506882Y-118124271D02*
X121867129Y-132132871D01*
X121867129Y-132132871D02*
X135875729Y-141493118D01*
X135875729Y-141493118D02*
X135890000Y-140970000D01*
X135890000Y-140970000D02*
X135890000Y-141397214D01*
X112506882Y-85075729D02*
X117686198Y-85846434D01*
X135875729Y-61706882D02*
X152400000Y-58420000D01*
X168924271Y-61706882D02*
X156307995Y-59197348D01*
X156307995Y-59197348D02*
X156307994Y-59197348D01*
X156307994Y-59197348D02*
X152400000Y-58420000D01*
X168924271Y-61706882D02*
X182932871Y-71067129D01*
X192293118Y-85075729D02*
X182932871Y-71067129D01*
X192293118Y-85075729D02*
X195580000Y-101600000D01*
X192293118Y-118124271D02*
X195580000Y-101600000D01*
X192293118Y-118124271D02*
X182932871Y-132132871D01*
X168924271Y-141493118D02*
X182932871Y-132132871D01*
X168924271Y-141493118D02*
X152400000Y-144780000D01*
X135875729Y-141493118D02*
X152400000Y-144780000D01*
X135875729Y-141493118D02*
X135890000Y-141397214D01*
X135890000Y-141397214D02*
X136646434Y-136313802D01*
X121867129Y-132132871D02*
X124561206Y-127642743D01*
X116714182Y-115006912D02*
X112506882Y-118124271D01*
X109220000Y-101600000D02*
X114300000Y-100330000D01*
X121867129Y-71067129D02*
X126357257Y-73761206D01*
X135875729Y-61706882D02*
X138993088Y-65914182D01*
X168924271Y-61706882D02*
X168153566Y-66886198D01*
X182932871Y-71067129D02*
X180238794Y-75557257D01*
X192293118Y-85075729D02*
X188085818Y-88193088D01*
X195580000Y-101600000D02*
X190500000Y-102870000D01*
X192293118Y-118124271D02*
X187113802Y-117353566D01*
X182932871Y-132132871D02*
X178442743Y-129438794D01*
X168924271Y-141493118D02*
X165806912Y-137285818D01*
X151130000Y-139700000D02*
X152400000Y-144780000D01*
X152400000Y-58420000D02*
X153670000Y-63500000D01*
X152400000Y-99350000D02*
X152690000Y-99060000D01*
X163830000Y-85090000D02*
X163830000Y-83820000D01*
X160020000Y-99060000D02*
X163830000Y-95250000D01*
X163830000Y-95250000D02*
X163830000Y-85090000D01*
X158750000Y-99060000D02*
X160020000Y-99060000D01*
X143510000Y-83820000D02*
X143510000Y-85090000D01*
X147320000Y-80010000D02*
X143510000Y-83820000D01*
X160020000Y-80010000D02*
X147320000Y-80010000D01*
X163830000Y-83820000D02*
X160020000Y-80010000D01*
X162560000Y-115570000D02*
X162560000Y-111760000D01*
X158750000Y-99060000D02*
X152690000Y-99060000D01*
X158750000Y-101600000D02*
X158750000Y-99060000D01*
X158750000Y-107950000D02*
X158750000Y-101600000D01*
X162560000Y-111760000D02*
X158750000Y-107950000D01*
X152690000Y-99060000D02*
X152400000Y-99350000D01*
X143510000Y-85090000D02*
X143510000Y-85090000D01*
M02*
