%FSLAX45Y45*%
G04 Gerber Fmt 4.5, Leading zero omitted, Abs format (unit mm)*
G04 Created by KiCad (PCBNEW 4.0.0-rc1-stable) date 4/24/2016 3:56:28 PM*
%MOMM*%
G01*
G04 APERTURE LIST*
%ADD10C,0.127000*%
%ADD11C,0.100000*%
%ADD12C,0.200000*%
%ADD13C,0.300000*%
G04 APERTURE END LIST*
D10*
D11*
X20320000Y-10160000D02*
G75*
G03X20320000Y-10160000I-5080000J0D01*
G01*
X20002500Y-10160000D02*
G75*
G03X20002500Y-10160000I-4762500J0D01*
G01*
D12*
X16217900Y-11518900D02*
X16294100Y-11595100D01*
X16294100Y-11518900D02*
X16217900Y-11595100D01*
X16471900Y-11518900D02*
X16548100Y-11595100D01*
X16548100Y-11518900D02*
X16471900Y-11595100D01*
X16725900Y-11518900D02*
X16802100Y-11595100D01*
X16802100Y-11518900D02*
X16725900Y-11595100D01*
X16979900Y-11518900D02*
X17056100Y-11595100D01*
X17056100Y-11518900D02*
X16979900Y-11595100D01*
X13248000Y-10160000D02*
G75*
G03X13248000Y-10160000I-40000J0D01*
G01*
X13248000Y-10414000D02*
G75*
G03X13248000Y-10414000I-40000J0D01*
G01*
X13248000Y-10668000D02*
G75*
G03X13248000Y-10668000I-40000J0D01*
G01*
X13248000Y-10922000D02*
G75*
G03X13248000Y-10922000I-40000J0D01*
G01*
X14010000Y-10160000D02*
G75*
G03X14010000Y-10160000I-40000J0D01*
G01*
X14010000Y-10414000D02*
G75*
G03X14010000Y-10414000I-40000J0D01*
G01*
X14010000Y-10668000D02*
G75*
G03X14010000Y-10668000I-40000J0D01*
G01*
X14010000Y-10922000D02*
G75*
G03X14010000Y-10922000I-40000J0D01*
G01*
X14391000Y-8509000D02*
G75*
G03X14391000Y-8509000I-40000J0D01*
G01*
X14391000Y-9271000D02*
G75*
G03X14391000Y-9271000I-40000J0D01*
G01*
X14645000Y-8509000D02*
G75*
G03X14645000Y-8509000I-40000J0D01*
G01*
X14645000Y-9271000D02*
G75*
G03X14645000Y-9271000I-40000J0D01*
G01*
X14899000Y-8509000D02*
G75*
G03X14899000Y-8509000I-40000J0D01*
G01*
X14899000Y-9271000D02*
G75*
G03X14899000Y-9271000I-40000J0D01*
G01*
X15026000Y-11811000D02*
G75*
G03X15026000Y-11811000I-40000J0D01*
G01*
X15153000Y-8509000D02*
G75*
G03X15153000Y-8509000I-40000J0D01*
G01*
X15153000Y-9271000D02*
G75*
G03X15153000Y-9271000I-40000J0D01*
G01*
X15153000Y-11049000D02*
G75*
G03X15153000Y-11049000I-40000J0D01*
G01*
X15276000Y-11811000D02*
G75*
G03X15276000Y-11811000I-40000J0D01*
G01*
X15407000Y-8509000D02*
G75*
G03X15407000Y-8509000I-40000J0D01*
G01*
X15407000Y-9271000D02*
G75*
G03X15407000Y-9271000I-40000J0D01*
G01*
X15661000Y-8509000D02*
G75*
G03X15661000Y-8509000I-40000J0D01*
G01*
X15661000Y-9271000D02*
G75*
G03X15661000Y-9271000I-40000J0D01*
G01*
X15661000Y-11049000D02*
G75*
G03X15661000Y-11049000I-40000J0D01*
G01*
X15661000Y-11299000D02*
G75*
G03X15661000Y-11299000I-40000J0D01*
G01*
X15915000Y-8509000D02*
G75*
G03X15915000Y-8509000I-40000J0D01*
G01*
X15915000Y-9271000D02*
G75*
G03X15915000Y-9271000I-40000J0D01*
G01*
X16169000Y-8509000D02*
G75*
G03X16169000Y-8509000I-40000J0D01*
G01*
X16169000Y-9271000D02*
G75*
G03X16169000Y-9271000I-40000J0D01*
G01*
X15113000Y-11258995D02*
X15113000Y-11339005D01*
X15072995Y-11299000D02*
X15153005Y-11299000D01*
X11465382Y-10068383D02*
X11465382Y-9997618D01*
X11394617Y-9997618D01*
X11394617Y-10068383D01*
X11465382Y-10068383D01*
X11465382Y-10322383D02*
X11465382Y-10251618D01*
X11394617Y-10251618D01*
X11394617Y-10322383D01*
X11465382Y-10322383D01*
X11513814Y-9576648D02*
X11513814Y-9505883D01*
X11443049Y-9505883D01*
X11443049Y-9576648D01*
X11513814Y-9576648D01*
X11514032Y-10814074D02*
X11514032Y-10743309D01*
X11443267Y-10743309D01*
X11443267Y-10814074D01*
X11514032Y-10814074D01*
X11563367Y-11063236D02*
X11563367Y-10992471D01*
X11492602Y-10992471D01*
X11492602Y-11063236D01*
X11563367Y-11063236D01*
X11563584Y-9327572D02*
X11563584Y-9256807D01*
X11492819Y-9256807D01*
X11492819Y-9327572D01*
X11563584Y-9327572D01*
X11706801Y-8854691D02*
X11706801Y-8783926D01*
X11636036Y-8783926D01*
X11636036Y-8854691D01*
X11706801Y-8854691D01*
X11706801Y-11536074D02*
X11706801Y-11465309D01*
X11636036Y-11465309D01*
X11636036Y-11536074D01*
X11706801Y-11536074D01*
X11804002Y-8620026D02*
X11804002Y-8549261D01*
X11733237Y-8549261D01*
X11733237Y-8620026D01*
X11804002Y-8620026D01*
X11804002Y-11770739D02*
X11804002Y-11699974D01*
X11733237Y-11699974D01*
X11733237Y-11770739D01*
X11804002Y-11770739D01*
X11846382Y-10068383D02*
X11846382Y-9997618D01*
X11775617Y-9997618D01*
X11775617Y-10068383D01*
X11846382Y-10068383D01*
X11846382Y-10322383D02*
X11846382Y-10251618D01*
X11775617Y-10251618D01*
X11775617Y-10322383D01*
X11846382Y-10322383D01*
X11887493Y-9650978D02*
X11887493Y-9580213D01*
X11816728Y-9580213D01*
X11816728Y-9650978D01*
X11887493Y-9650978D01*
X11887711Y-10739744D02*
X11887711Y-10668979D01*
X11816946Y-10668979D01*
X11816946Y-10739744D01*
X11887711Y-10739744D01*
X11937046Y-10988907D02*
X11937046Y-10918142D01*
X11866281Y-10918142D01*
X11866281Y-10988907D01*
X11937046Y-10988907D01*
X11937264Y-9401901D02*
X11937264Y-9331136D01*
X11866499Y-9331136D01*
X11866499Y-9401901D01*
X11937264Y-9401901D01*
X12036926Y-8184257D02*
X12036926Y-8113492D01*
X11966161Y-8113492D01*
X11966161Y-8184257D01*
X12036926Y-8184257D01*
X12037110Y-12206385D02*
X12037110Y-12135620D01*
X11966345Y-12135620D01*
X11966345Y-12206385D01*
X12037110Y-12206385D01*
X12058799Y-9000494D02*
X12058799Y-8929729D01*
X11988034Y-8929729D01*
X11988034Y-9000494D01*
X12058799Y-9000494D01*
X12058799Y-11390271D02*
X12058799Y-11319506D01*
X11988034Y-11319506D01*
X11988034Y-11390271D01*
X12058799Y-11390271D01*
X12156000Y-8765828D02*
X12156000Y-8695063D01*
X12085235Y-8695063D01*
X12085235Y-8765828D01*
X12156000Y-8765828D01*
X12156000Y-11624937D02*
X12156000Y-11554172D01*
X12085235Y-11554172D01*
X12085235Y-11624937D01*
X12156000Y-11624937D01*
X12178041Y-12417702D02*
X12178041Y-12346937D01*
X12107276Y-12346937D01*
X12107276Y-12417702D01*
X12178041Y-12417702D01*
X12178225Y-7973186D02*
X12178225Y-7902421D01*
X12107460Y-7902421D01*
X12107460Y-7973186D01*
X12178225Y-7973186D01*
X12205046Y-10114941D02*
X12205046Y-10044176D01*
X12134281Y-10044176D01*
X12134281Y-10114941D01*
X12205046Y-10114941D01*
X12248030Y-9675189D02*
X12248030Y-9604424D01*
X12177265Y-9604424D01*
X12177265Y-9675189D01*
X12248030Y-9675189D01*
X12279404Y-10873304D02*
X12279404Y-10802539D01*
X12208639Y-10802539D01*
X12208639Y-10873304D01*
X12279404Y-10873304D01*
X12353716Y-8395929D02*
X12353716Y-8325164D01*
X12282951Y-8325164D01*
X12282951Y-8395929D01*
X12353716Y-8395929D01*
X12353900Y-11994713D02*
X12353900Y-11923948D01*
X12283135Y-11923948D01*
X12283135Y-11994713D01*
X12353900Y-11994713D01*
X12407977Y-11296031D02*
X12407977Y-11225266D01*
X12337212Y-11225266D01*
X12337212Y-11296031D01*
X12407977Y-11296031D01*
X12469545Y-8946097D02*
X12469545Y-8875332D01*
X12398780Y-8875332D01*
X12398780Y-8946097D01*
X12469545Y-8946097D01*
X12491503Y-7591108D02*
X12491503Y-7520343D01*
X12420738Y-7520343D01*
X12420738Y-7591108D01*
X12491503Y-7591108D01*
X12491503Y-12799657D02*
X12491503Y-12728892D01*
X12420738Y-12728892D01*
X12420738Y-12799657D01*
X12491503Y-12799657D01*
X12494831Y-12206029D02*
X12494831Y-12135264D01*
X12424066Y-12135264D01*
X12424066Y-12206029D01*
X12494831Y-12206029D01*
X12495015Y-8184859D02*
X12495015Y-8114094D01*
X12424250Y-8114094D01*
X12424250Y-8184859D01*
X12495015Y-8184859D01*
X12671108Y-7411503D02*
X12671108Y-7340738D01*
X12600343Y-7340738D01*
X12600343Y-7411503D01*
X12671108Y-7411503D01*
X12671108Y-12979262D02*
X12671108Y-12908497D01*
X12600343Y-12908497D01*
X12600343Y-12979262D01*
X12671108Y-12979262D01*
X12677543Y-8556269D02*
X12677543Y-8485504D01*
X12606778Y-8485504D01*
X12606778Y-8556269D01*
X12677543Y-8556269D01*
X12760911Y-7860516D02*
X12760911Y-7789751D01*
X12690146Y-7789751D01*
X12690146Y-7860516D01*
X12760911Y-7860516D01*
X12760911Y-12530249D02*
X12760911Y-12459484D01*
X12690146Y-12459484D01*
X12690146Y-12530249D01*
X12760911Y-12530249D01*
X12766889Y-11968212D02*
X12766889Y-11897447D01*
X12696124Y-11897447D01*
X12696124Y-11968212D01*
X12766889Y-11968212D01*
X12940516Y-7680911D02*
X12940516Y-7610146D01*
X12869751Y-7610146D01*
X12869751Y-7680911D01*
X12940516Y-7680911D01*
X12940516Y-12709854D02*
X12940516Y-12639089D01*
X12869751Y-12639089D01*
X12869751Y-12709854D01*
X12940516Y-12709854D01*
X13047446Y-12309557D02*
X13047446Y-12238792D01*
X12976681Y-12238792D01*
X12976681Y-12309557D01*
X13047446Y-12309557D01*
X13053063Y-7098041D02*
X13053063Y-7027276D01*
X12982298Y-7027276D01*
X12982298Y-7098041D01*
X13053063Y-7098041D01*
X13053186Y-13292540D02*
X13053186Y-13221775D01*
X12982421Y-13221775D01*
X12982421Y-13292540D01*
X13053186Y-13292540D01*
X13161207Y-7967446D02*
X13161207Y-7896681D01*
X13090442Y-7896681D01*
X13090442Y-7967446D01*
X13161207Y-7967446D01*
X13264257Y-13433839D02*
X13264257Y-13363074D01*
X13193492Y-13363074D01*
X13193492Y-13433839D01*
X13264257Y-13433839D01*
X13264380Y-6957110D02*
X13264380Y-6886345D01*
X13193615Y-6886345D01*
X13193615Y-6957110D01*
X13264380Y-6957110D01*
X13264735Y-7414831D02*
X13264735Y-7344066D01*
X13193970Y-7344066D01*
X13193970Y-7414831D01*
X13264735Y-7414831D01*
X13264859Y-12975750D02*
X13264859Y-12904985D01*
X13194094Y-12904985D01*
X13194094Y-12975750D01*
X13264859Y-12975750D01*
X13475929Y-13117049D02*
X13475929Y-13046284D01*
X13405164Y-13046284D01*
X13405164Y-13117049D01*
X13475929Y-13117049D01*
X13476052Y-7273900D02*
X13476052Y-7203135D01*
X13405287Y-7203135D01*
X13405287Y-7273900D01*
X13476052Y-7273900D01*
X13502553Y-7686889D02*
X13502553Y-7616124D01*
X13431788Y-7616124D01*
X13431788Y-7686889D01*
X13502553Y-7686889D01*
X13636269Y-12793222D02*
X13636269Y-12722457D01*
X13565504Y-12722457D01*
X13565504Y-12793222D01*
X13636269Y-12793222D01*
X13700026Y-6724002D02*
X13700026Y-6653237D01*
X13629261Y-6653237D01*
X13629261Y-6724002D01*
X13700026Y-6724002D01*
X13700026Y-13666763D02*
X13700026Y-13595998D01*
X13629261Y-13595998D01*
X13629261Y-13666763D01*
X13700026Y-13666763D01*
X13845828Y-7076000D02*
X13845828Y-7005235D01*
X13775063Y-7005235D01*
X13775063Y-7076000D01*
X13845828Y-7076000D01*
X13845828Y-13314765D02*
X13845828Y-13244000D01*
X13775063Y-13244000D01*
X13775063Y-13314765D01*
X13845828Y-13314765D01*
X13934691Y-6626801D02*
X13934691Y-6556036D01*
X13863926Y-6556036D01*
X13863926Y-6626801D01*
X13934691Y-6626801D01*
X13934691Y-13763964D02*
X13934691Y-13693199D01*
X13863926Y-13693199D01*
X13863926Y-13763964D01*
X13934691Y-13763964D01*
X14026097Y-13001220D02*
X14026097Y-12930455D01*
X13955332Y-12930455D01*
X13955332Y-13001220D01*
X14026097Y-13001220D01*
X14080494Y-6978799D02*
X14080494Y-6908034D01*
X14009729Y-6908034D01*
X14009729Y-6978799D01*
X14080494Y-6978799D01*
X14080494Y-13411966D02*
X14080494Y-13341201D01*
X14009729Y-13341201D01*
X14009729Y-13411966D01*
X14080494Y-13411966D01*
X14174734Y-7327977D02*
X14174734Y-7257212D01*
X14103969Y-7257212D01*
X14103969Y-7327977D01*
X14174734Y-7327977D01*
X14386382Y-9814383D02*
X14386382Y-9743618D01*
X14315617Y-9743618D01*
X14315617Y-9814383D01*
X14386382Y-9814383D01*
X14386382Y-10576383D02*
X14386382Y-10505618D01*
X14315617Y-10505618D01*
X14315617Y-10576383D01*
X14386382Y-10576383D01*
X14407529Y-6483367D02*
X14407529Y-6412602D01*
X14336764Y-6412602D01*
X14336764Y-6483367D01*
X14407529Y-6483367D01*
X14407572Y-13907181D02*
X14407572Y-13836416D01*
X14336807Y-13836416D01*
X14336807Y-13907181D01*
X14407572Y-13907181D01*
X14481858Y-6857046D02*
X14481858Y-6786281D01*
X14411093Y-6786281D01*
X14411093Y-6857046D01*
X14481858Y-6857046D01*
X14481901Y-13533501D02*
X14481901Y-13462736D01*
X14411136Y-13462736D01*
X14411136Y-13533501D01*
X14481901Y-13533501D01*
X14597461Y-7199404D02*
X14597461Y-7128639D01*
X14526696Y-7128639D01*
X14526696Y-7199404D01*
X14597461Y-7199404D01*
X14640382Y-10830383D02*
X14640382Y-10759618D01*
X14569617Y-10759618D01*
X14569617Y-10830383D01*
X14640382Y-10830383D01*
X14640382Y-11592382D02*
X14640382Y-11521617D01*
X14569617Y-11521617D01*
X14569617Y-11592382D01*
X14640382Y-11592382D01*
X14656648Y-13956951D02*
X14656648Y-13886186D01*
X14585883Y-13886186D01*
X14585883Y-13956951D01*
X14656648Y-13956951D01*
X14656691Y-6434032D02*
X14656691Y-6363267D01*
X14585926Y-6363267D01*
X14585926Y-6434032D01*
X14656691Y-6434032D01*
X14730977Y-13583272D02*
X14730977Y-13512507D01*
X14660212Y-13512507D01*
X14660212Y-13583272D01*
X14730977Y-13583272D01*
X14731021Y-6807711D02*
X14731021Y-6736946D01*
X14660256Y-6736946D01*
X14660256Y-6807711D01*
X14731021Y-6807711D01*
X14755189Y-13222735D02*
X14755189Y-13151970D01*
X14684424Y-13151970D01*
X14684424Y-13222735D01*
X14755189Y-13222735D01*
X15148382Y-6385382D02*
X15148382Y-6314617D01*
X15077617Y-6314617D01*
X15077617Y-6385382D01*
X15148382Y-6385382D01*
X15148382Y-6766382D02*
X15148382Y-6695617D01*
X15077617Y-6695617D01*
X15077617Y-6766382D01*
X15148382Y-6766382D01*
X15148382Y-13624382D02*
X15148382Y-13553617D01*
X15077617Y-13553617D01*
X15077617Y-13624382D01*
X15148382Y-13624382D01*
X15148382Y-14005382D02*
X15148382Y-13934617D01*
X15077617Y-13934617D01*
X15077617Y-14005382D01*
X15148382Y-14005382D01*
X15194941Y-13265719D02*
X15194941Y-13194954D01*
X15124176Y-13194954D01*
X15124176Y-13265719D01*
X15194941Y-13265719D01*
X15355824Y-7125046D02*
X15355824Y-7054281D01*
X15285059Y-7054281D01*
X15285059Y-7125046D01*
X15355824Y-7125046D01*
X15402382Y-6385382D02*
X15402382Y-6314617D01*
X15331617Y-6314617D01*
X15331617Y-6385382D01*
X15402382Y-6385382D01*
X15402382Y-6766382D02*
X15402382Y-6695617D01*
X15331617Y-6695617D01*
X15331617Y-6766382D01*
X15402382Y-6766382D01*
X15402382Y-13624382D02*
X15402382Y-13553617D01*
X15331617Y-13553617D01*
X15331617Y-13624382D01*
X15402382Y-13624382D01*
X15402382Y-14005382D02*
X15402382Y-13934617D01*
X15331617Y-13934617D01*
X15331617Y-14005382D01*
X15402382Y-14005382D01*
X15795576Y-7168030D02*
X15795576Y-7097265D01*
X15724811Y-7097265D01*
X15724811Y-7168030D01*
X15795576Y-7168030D01*
X15819744Y-13583054D02*
X15819744Y-13512289D01*
X15748979Y-13512289D01*
X15748979Y-13583054D01*
X15819744Y-13583054D01*
X15819787Y-6807493D02*
X15819787Y-6736728D01*
X15749022Y-6736728D01*
X15749022Y-6807493D01*
X15819787Y-6807493D01*
X15894074Y-13956733D02*
X15894074Y-13885968D01*
X15823309Y-13885968D01*
X15823309Y-13956733D01*
X15894074Y-13956733D01*
X15894117Y-6433814D02*
X15894117Y-6363049D01*
X15823352Y-6363049D01*
X15823352Y-6433814D01*
X15894117Y-6433814D01*
X15953304Y-13191361D02*
X15953304Y-13120596D01*
X15882539Y-13120596D01*
X15882539Y-13191361D01*
X15953304Y-13191361D01*
X16068051Y-6861170D02*
X16068051Y-6790405D01*
X15997286Y-6790405D01*
X15997286Y-6861170D01*
X16068051Y-6861170D01*
X16068907Y-13533719D02*
X16068907Y-13462954D01*
X15998142Y-13462954D01*
X15998142Y-13533719D01*
X16068907Y-13533719D01*
X16143193Y-6483584D02*
X16143193Y-6412819D01*
X16072428Y-6412819D01*
X16072428Y-6483584D01*
X16143193Y-6483584D01*
X16143236Y-13907398D02*
X16143236Y-13836633D01*
X16072471Y-13836633D01*
X16072471Y-13907398D01*
X16143236Y-13907398D01*
X16376031Y-13062787D02*
X16376031Y-12992022D01*
X16305266Y-12992022D01*
X16305266Y-13062787D01*
X16376031Y-13062787D01*
X16470271Y-6978799D02*
X16470271Y-6908034D01*
X16399506Y-6908034D01*
X16399506Y-6978799D01*
X16470271Y-6978799D01*
X16470271Y-13411966D02*
X16470271Y-13341201D01*
X16399506Y-13341201D01*
X16399506Y-13411966D01*
X16470271Y-13411966D01*
X16524668Y-7389545D02*
X16524668Y-7318780D01*
X16453903Y-7318780D01*
X16453903Y-7389545D01*
X16524668Y-7389545D01*
X16616074Y-6626801D02*
X16616074Y-6556036D01*
X16545309Y-6556036D01*
X16545309Y-6626801D01*
X16616074Y-6626801D01*
X16616074Y-13763964D02*
X16616074Y-13693199D01*
X16545309Y-13693199D01*
X16545309Y-13763964D01*
X16616074Y-13763964D01*
X16704937Y-7076000D02*
X16704937Y-7005235D01*
X16634172Y-7005235D01*
X16634172Y-7076000D01*
X16704937Y-7076000D01*
X16704937Y-13314765D02*
X16704937Y-13244000D01*
X16634172Y-13244000D01*
X16634172Y-13314765D01*
X16704937Y-13314765D01*
X16850739Y-6724002D02*
X16850739Y-6653237D01*
X16779974Y-6653237D01*
X16779974Y-6724002D01*
X16850739Y-6724002D01*
X16850739Y-13666763D02*
X16850739Y-13595998D01*
X16779974Y-13595998D01*
X16779974Y-13666763D01*
X16850739Y-13666763D01*
X16914496Y-7597543D02*
X16914496Y-7526778D01*
X16843731Y-7526778D01*
X16843731Y-7597543D01*
X16914496Y-7597543D01*
X17048212Y-12703876D02*
X17048212Y-12633111D01*
X16977447Y-12633111D01*
X16977447Y-12703876D01*
X17048212Y-12703876D01*
X17074713Y-13116865D02*
X17074713Y-13046100D01*
X17003948Y-13046100D01*
X17003948Y-13116865D01*
X17074713Y-13116865D01*
X17074836Y-7273716D02*
X17074836Y-7202951D01*
X17004071Y-7202951D01*
X17004071Y-7273716D01*
X17074836Y-7273716D01*
X17285906Y-7415015D02*
X17285906Y-7344250D01*
X17215141Y-7344250D01*
X17215141Y-7415015D01*
X17285906Y-7415015D01*
X17286030Y-12975934D02*
X17286030Y-12905169D01*
X17215265Y-12905169D01*
X17215265Y-12975934D01*
X17286030Y-12975934D01*
X17286385Y-13433655D02*
X17286385Y-13362890D01*
X17215620Y-13362890D01*
X17215620Y-13433655D01*
X17286385Y-13433655D01*
X17286508Y-6956926D02*
X17286508Y-6886161D01*
X17215743Y-6886161D01*
X17215743Y-6956926D01*
X17286508Y-6956926D01*
X17389558Y-12423319D02*
X17389558Y-12352554D01*
X17318793Y-12352554D01*
X17318793Y-12423319D01*
X17389558Y-12423319D01*
X17497579Y-7098225D02*
X17497579Y-7027460D01*
X17426814Y-7027460D01*
X17426814Y-7098225D01*
X17497579Y-7098225D01*
X17497702Y-13292724D02*
X17497702Y-13221959D01*
X17426937Y-13221959D01*
X17426937Y-13292724D01*
X17497702Y-13292724D01*
X17503319Y-8081207D02*
X17503319Y-8010442D01*
X17432554Y-8010442D01*
X17432554Y-8081207D01*
X17503319Y-8081207D01*
X17610249Y-7680911D02*
X17610249Y-7610146D01*
X17539484Y-7610146D01*
X17539484Y-7680911D01*
X17610249Y-7680911D01*
X17610249Y-12709854D02*
X17610249Y-12639089D01*
X17539484Y-12639089D01*
X17539484Y-12709854D01*
X17610249Y-12709854D01*
X17783876Y-8422553D02*
X17783876Y-8351788D01*
X17713111Y-8351788D01*
X17713111Y-8422553D01*
X17783876Y-8422553D01*
X17789854Y-7860516D02*
X17789854Y-7789751D01*
X17719089Y-7789751D01*
X17719089Y-7860516D01*
X17789854Y-7860516D01*
X17789854Y-12530249D02*
X17789854Y-12459484D01*
X17719089Y-12459484D01*
X17719089Y-12530249D01*
X17789854Y-12530249D01*
X17873222Y-11834496D02*
X17873222Y-11763731D01*
X17802457Y-11763731D01*
X17802457Y-11834496D01*
X17873222Y-11834496D01*
X17879657Y-7411503D02*
X17879657Y-7340738D01*
X17808892Y-7340738D01*
X17808892Y-7411503D01*
X17879657Y-7411503D01*
X17879657Y-12979262D02*
X17879657Y-12908497D01*
X17808892Y-12908497D01*
X17808892Y-12979262D01*
X17879657Y-12979262D01*
X18055750Y-12205906D02*
X18055750Y-12135141D01*
X17984985Y-12135141D01*
X17984985Y-12205906D01*
X18055750Y-12205906D01*
X18055934Y-8184735D02*
X18055934Y-8113970D01*
X17985169Y-8113970D01*
X17985169Y-8184735D01*
X18055934Y-8184735D01*
X18059262Y-7591108D02*
X18059262Y-7520343D01*
X17988497Y-7520343D01*
X17988497Y-7591108D01*
X18059262Y-7591108D01*
X18059262Y-12799657D02*
X18059262Y-12728892D01*
X17988497Y-12728892D01*
X17988497Y-12799657D01*
X18059262Y-12799657D01*
X18081220Y-11444668D02*
X18081220Y-11373903D01*
X18010455Y-11373903D01*
X18010455Y-11444668D01*
X18081220Y-11444668D01*
X18142788Y-9094734D02*
X18142788Y-9023969D01*
X18072023Y-9023969D01*
X18072023Y-9094734D01*
X18142788Y-9094734D01*
X18196865Y-8396052D02*
X18196865Y-8325287D01*
X18126100Y-8325287D01*
X18126100Y-8396052D01*
X18196865Y-8396052D01*
X18197049Y-11994836D02*
X18197049Y-11924071D01*
X18126284Y-11924071D01*
X18126284Y-11994836D01*
X18197049Y-11994836D01*
X18271361Y-9517461D02*
X18271361Y-9446696D01*
X18200596Y-9446696D01*
X18200596Y-9517461D01*
X18271361Y-9517461D01*
X18302735Y-10715576D02*
X18302735Y-10644811D01*
X18231970Y-10644811D01*
X18231970Y-10715576D01*
X18302735Y-10715576D01*
X18345719Y-10275824D02*
X18345719Y-10205059D01*
X18274954Y-10205059D01*
X18274954Y-10275824D01*
X18345719Y-10275824D01*
X18372540Y-12417578D02*
X18372540Y-12346813D01*
X18301775Y-12346813D01*
X18301775Y-12417578D01*
X18372540Y-12417578D01*
X18372724Y-7973063D02*
X18372724Y-7902298D01*
X18301959Y-7902298D01*
X18301959Y-7973063D01*
X18372724Y-7973063D01*
X18394765Y-8765828D02*
X18394765Y-8695063D01*
X18324000Y-8695063D01*
X18324000Y-8765828D01*
X18394765Y-8765828D01*
X18394765Y-11624937D02*
X18394765Y-11554172D01*
X18324000Y-11554172D01*
X18324000Y-11624937D01*
X18394765Y-11624937D01*
X18491966Y-9000494D02*
X18491966Y-8929729D01*
X18421201Y-8929729D01*
X18421201Y-9000494D01*
X18491966Y-9000494D01*
X18491966Y-11390271D02*
X18491966Y-11319506D01*
X18421201Y-11319506D01*
X18421201Y-11390271D01*
X18491966Y-11390271D01*
X18513655Y-8184380D02*
X18513655Y-8113615D01*
X18442890Y-8113615D01*
X18442890Y-8184380D01*
X18513655Y-8184380D01*
X18513839Y-12206508D02*
X18513839Y-12135743D01*
X18443074Y-12135743D01*
X18443074Y-12206508D01*
X18513839Y-12206508D01*
X18613501Y-10988864D02*
X18613501Y-10918099D01*
X18542736Y-10918099D01*
X18542736Y-10988864D01*
X18613501Y-10988864D01*
X18613719Y-9401858D02*
X18613719Y-9331093D01*
X18542954Y-9331093D01*
X18542954Y-9401858D01*
X18613719Y-9401858D01*
X18663054Y-9651021D02*
X18663054Y-9580256D01*
X18592289Y-9580256D01*
X18592289Y-9651021D01*
X18663054Y-9651021D01*
X18663272Y-10739788D02*
X18663272Y-10669023D01*
X18592507Y-10669023D01*
X18592507Y-10739788D01*
X18663272Y-10739788D01*
X18704383Y-10068383D02*
X18704383Y-9997618D01*
X18633618Y-9997618D01*
X18633618Y-10068383D01*
X18704383Y-10068383D01*
X18704383Y-10322383D02*
X18704383Y-10251618D01*
X18633618Y-10251618D01*
X18633618Y-10322383D01*
X18704383Y-10322383D01*
X18746763Y-8620026D02*
X18746763Y-8549261D01*
X18675998Y-8549261D01*
X18675998Y-8620026D01*
X18746763Y-8620026D01*
X18746763Y-11770739D02*
X18746763Y-11699974D01*
X18675998Y-11699974D01*
X18675998Y-11770739D01*
X18746763Y-11770739D01*
X18843964Y-8854691D02*
X18843964Y-8783926D01*
X18773199Y-8783926D01*
X18773199Y-8854691D01*
X18843964Y-8854691D01*
X18843964Y-11536074D02*
X18843964Y-11465309D01*
X18773199Y-11465309D01*
X18773199Y-11536074D01*
X18843964Y-11536074D01*
X18987181Y-11063193D02*
X18987181Y-10992428D01*
X18916416Y-10992428D01*
X18916416Y-11063193D01*
X18987181Y-11063193D01*
X18987398Y-9327529D02*
X18987398Y-9256764D01*
X18916633Y-9256764D01*
X18916633Y-9327529D01*
X18987398Y-9327529D01*
X19036733Y-9576691D02*
X19036733Y-9505926D01*
X18965968Y-9505926D01*
X18965968Y-9576691D01*
X19036733Y-9576691D01*
X19036951Y-10814117D02*
X19036951Y-10743352D01*
X18966186Y-10743352D01*
X18966186Y-10814117D01*
X19036951Y-10814117D01*
X19085383Y-10068383D02*
X19085383Y-9997618D01*
X19014618Y-9997618D01*
X19014618Y-10068383D01*
X19085383Y-10068383D01*
X19085383Y-10322383D02*
X19085383Y-10251618D01*
X19014618Y-10251618D01*
X19014618Y-10322383D01*
X19085383Y-10322383D01*
X15621000Y-6146800D02*
X15671800Y-6096000D01*
X15621000Y-6045200D01*
X15570200Y-6096000D01*
X15621000Y-6146800D01*
X15621000Y-8305800D02*
X15671800Y-8255000D01*
X15621000Y-8204200D01*
X15570200Y-8255000D01*
X15621000Y-8305800D01*
X15170000Y-9865000D02*
X15310000Y-10005000D01*
X15310000Y-9865000D02*
X15170000Y-10005000D01*
X15310000Y-9935000D02*
G75*
G03X15310000Y-9935000I-70000J0D01*
G01*
X15170000Y-10315000D02*
X15310000Y-10455000D01*
X15310000Y-10315000D02*
X15170000Y-10455000D01*
X15310000Y-10385000D02*
G75*
G03X15310000Y-10385000I-70000J0D01*
G01*
D13*
X10426429Y-15710714D02*
X10426429Y-15410714D01*
X10497857Y-15410714D01*
X10540714Y-15425000D01*
X10569286Y-15453571D01*
X10583571Y-15482143D01*
X10597857Y-15539286D01*
X10597857Y-15582143D01*
X10583571Y-15639286D01*
X10569286Y-15667857D01*
X10540714Y-15696429D01*
X10497857Y-15710714D01*
X10426429Y-15710714D01*
X10726429Y-15710714D02*
X10726429Y-15510714D01*
X10726429Y-15567857D02*
X10740714Y-15539286D01*
X10755000Y-15525000D01*
X10783571Y-15510714D01*
X10812143Y-15510714D01*
X10912143Y-15710714D02*
X10912143Y-15510714D01*
X10912143Y-15410714D02*
X10897857Y-15425000D01*
X10912143Y-15439286D01*
X10926429Y-15425000D01*
X10912143Y-15410714D01*
X10912143Y-15439286D01*
X11097857Y-15710714D02*
X11069286Y-15696429D01*
X11055000Y-15667857D01*
X11055000Y-15410714D01*
X11255000Y-15710714D02*
X11226428Y-15696429D01*
X11212143Y-15667857D01*
X11212143Y-15410714D01*
X11597857Y-15710714D02*
X11597857Y-15410714D01*
X11697857Y-15625000D01*
X11797857Y-15410714D01*
X11797857Y-15710714D01*
X12069286Y-15710714D02*
X12069286Y-15553571D01*
X12055000Y-15525000D01*
X12026428Y-15510714D01*
X11969286Y-15510714D01*
X11940714Y-15525000D01*
X12069286Y-15696429D02*
X12040714Y-15710714D01*
X11969286Y-15710714D01*
X11940714Y-15696429D01*
X11926428Y-15667857D01*
X11926428Y-15639286D01*
X11940714Y-15610714D01*
X11969286Y-15596429D01*
X12040714Y-15596429D01*
X12069286Y-15582143D01*
X12212143Y-15510714D02*
X12212143Y-15810714D01*
X12212143Y-15525000D02*
X12240714Y-15510714D01*
X12297857Y-15510714D01*
X12326428Y-15525000D01*
X12340714Y-15539286D01*
X12355000Y-15567857D01*
X12355000Y-15653571D01*
X12340714Y-15682143D01*
X12326428Y-15696429D01*
X12297857Y-15710714D01*
X12240714Y-15710714D01*
X12212143Y-15696429D01*
X12483571Y-15682143D02*
X12497857Y-15696429D01*
X12483571Y-15710714D01*
X12469286Y-15696429D01*
X12483571Y-15682143D01*
X12483571Y-15710714D01*
X12483571Y-15525000D02*
X12497857Y-15539286D01*
X12483571Y-15553571D01*
X12469286Y-15539286D01*
X12483571Y-15525000D01*
X12483571Y-15553571D01*
X10078800Y-16166900D02*
X10155000Y-16243100D01*
X10155000Y-16166900D02*
X10078800Y-16243100D01*
X10483571Y-16040714D02*
X10512143Y-16040714D01*
X10540714Y-16055000D01*
X10555000Y-16069286D01*
X10569286Y-16097857D01*
X10583571Y-16155000D01*
X10583571Y-16226429D01*
X10569286Y-16283571D01*
X10555000Y-16312143D01*
X10540714Y-16326429D01*
X10512143Y-16340714D01*
X10483571Y-16340714D01*
X10455000Y-16326429D01*
X10440714Y-16312143D01*
X10426429Y-16283571D01*
X10412143Y-16226429D01*
X10412143Y-16155000D01*
X10426429Y-16097857D01*
X10440714Y-16069286D01*
X10455000Y-16055000D01*
X10483571Y-16040714D01*
X10712143Y-16312143D02*
X10726429Y-16326429D01*
X10712143Y-16340714D01*
X10697857Y-16326429D01*
X10712143Y-16312143D01*
X10712143Y-16340714D01*
X10826428Y-16040714D02*
X11026428Y-16040714D01*
X10897857Y-16340714D01*
X11269286Y-16040714D02*
X11212143Y-16040714D01*
X11183571Y-16055000D01*
X11169286Y-16069286D01*
X11140714Y-16112143D01*
X11126429Y-16169286D01*
X11126429Y-16283571D01*
X11140714Y-16312143D01*
X11155000Y-16326429D01*
X11183571Y-16340714D01*
X11240714Y-16340714D01*
X11269286Y-16326429D01*
X11283571Y-16312143D01*
X11297857Y-16283571D01*
X11297857Y-16212143D01*
X11283571Y-16183571D01*
X11269286Y-16169286D01*
X11240714Y-16155000D01*
X11183571Y-16155000D01*
X11155000Y-16169286D01*
X11140714Y-16183571D01*
X11126429Y-16212143D01*
X11426428Y-16340714D02*
X11426428Y-16140714D01*
X11426428Y-16169286D02*
X11440714Y-16155000D01*
X11469286Y-16140714D01*
X11512143Y-16140714D01*
X11540714Y-16155000D01*
X11555000Y-16183571D01*
X11555000Y-16340714D01*
X11555000Y-16183571D02*
X11569286Y-16155000D01*
X11597857Y-16140714D01*
X11640714Y-16140714D01*
X11669286Y-16155000D01*
X11683571Y-16183571D01*
X11683571Y-16340714D01*
X11826428Y-16340714D02*
X11826428Y-16140714D01*
X11826428Y-16169286D02*
X11840714Y-16155000D01*
X11869286Y-16140714D01*
X11912143Y-16140714D01*
X11940714Y-16155000D01*
X11955000Y-16183571D01*
X11955000Y-16340714D01*
X11955000Y-16183571D02*
X11969286Y-16155000D01*
X11997857Y-16140714D01*
X12040714Y-16140714D01*
X12069286Y-16155000D01*
X12083571Y-16183571D01*
X12083571Y-16340714D01*
X12669286Y-16026429D02*
X12412143Y-16412143D01*
X13055000Y-16040714D02*
X13083571Y-16040714D01*
X13112143Y-16055000D01*
X13126428Y-16069286D01*
X13140714Y-16097857D01*
X13155000Y-16155000D01*
X13155000Y-16226429D01*
X13140714Y-16283571D01*
X13126428Y-16312143D01*
X13112143Y-16326429D01*
X13083571Y-16340714D01*
X13055000Y-16340714D01*
X13026428Y-16326429D01*
X13012143Y-16312143D01*
X12997857Y-16283571D01*
X12983571Y-16226429D01*
X12983571Y-16155000D01*
X12997857Y-16097857D01*
X13012143Y-16069286D01*
X13026428Y-16055000D01*
X13055000Y-16040714D01*
X13283571Y-16312143D02*
X13297857Y-16326429D01*
X13283571Y-16340714D01*
X13269286Y-16326429D01*
X13283571Y-16312143D01*
X13283571Y-16340714D01*
X13483571Y-16040714D02*
X13512143Y-16040714D01*
X13540714Y-16055000D01*
X13555000Y-16069286D01*
X13569285Y-16097857D01*
X13583571Y-16155000D01*
X13583571Y-16226429D01*
X13569285Y-16283571D01*
X13555000Y-16312143D01*
X13540714Y-16326429D01*
X13512143Y-16340714D01*
X13483571Y-16340714D01*
X13455000Y-16326429D01*
X13440714Y-16312143D01*
X13426428Y-16283571D01*
X13412143Y-16226429D01*
X13412143Y-16155000D01*
X13426428Y-16097857D01*
X13440714Y-16069286D01*
X13455000Y-16055000D01*
X13483571Y-16040714D01*
X13683571Y-16040714D02*
X13869285Y-16040714D01*
X13769285Y-16155000D01*
X13812143Y-16155000D01*
X13840714Y-16169286D01*
X13855000Y-16183571D01*
X13869285Y-16212143D01*
X13869285Y-16283571D01*
X13855000Y-16312143D01*
X13840714Y-16326429D01*
X13812143Y-16340714D01*
X13726428Y-16340714D01*
X13697857Y-16326429D01*
X13683571Y-16312143D01*
X14055000Y-16040714D02*
X14083571Y-16040714D01*
X14112143Y-16055000D01*
X14126428Y-16069286D01*
X14140714Y-16097857D01*
X14155000Y-16155000D01*
X14155000Y-16226429D01*
X14140714Y-16283571D01*
X14126428Y-16312143D01*
X14112143Y-16326429D01*
X14083571Y-16340714D01*
X14055000Y-16340714D01*
X14026428Y-16326429D01*
X14012143Y-16312143D01*
X13997857Y-16283571D01*
X13983571Y-16226429D01*
X13983571Y-16155000D01*
X13997857Y-16097857D01*
X14012143Y-16069286D01*
X14026428Y-16055000D01*
X14055000Y-16040714D01*
X14269286Y-16040714D02*
X14269286Y-16097857D01*
X14383571Y-16040714D02*
X14383571Y-16097857D01*
X14826428Y-16455000D02*
X14812143Y-16440714D01*
X14783571Y-16397857D01*
X14769285Y-16369286D01*
X14755000Y-16326429D01*
X14740714Y-16255000D01*
X14740714Y-16197857D01*
X14755000Y-16126429D01*
X14769285Y-16083571D01*
X14783571Y-16055000D01*
X14812143Y-16012143D01*
X14826428Y-15997857D01*
X15069285Y-16140714D02*
X15069285Y-16340714D01*
X14997857Y-16026429D02*
X14926428Y-16240714D01*
X15112143Y-16240714D01*
X15455000Y-16340714D02*
X15455000Y-16040714D01*
X15583571Y-16340714D02*
X15583571Y-16183571D01*
X15569285Y-16155000D01*
X15540714Y-16140714D01*
X15497857Y-16140714D01*
X15469285Y-16155000D01*
X15455000Y-16169286D01*
X15769285Y-16340714D02*
X15740714Y-16326429D01*
X15726428Y-16312143D01*
X15712143Y-16283571D01*
X15712143Y-16197857D01*
X15726428Y-16169286D01*
X15740714Y-16155000D01*
X15769285Y-16140714D01*
X15812143Y-16140714D01*
X15840714Y-16155000D01*
X15855000Y-16169286D01*
X15869285Y-16197857D01*
X15869285Y-16283571D01*
X15855000Y-16312143D01*
X15840714Y-16326429D01*
X15812143Y-16340714D01*
X15769285Y-16340714D01*
X16040714Y-16340714D02*
X16012143Y-16326429D01*
X15997857Y-16297857D01*
X15997857Y-16040714D01*
X16269286Y-16326429D02*
X16240714Y-16340714D01*
X16183571Y-16340714D01*
X16155000Y-16326429D01*
X16140714Y-16297857D01*
X16140714Y-16183571D01*
X16155000Y-16155000D01*
X16183571Y-16140714D01*
X16240714Y-16140714D01*
X16269286Y-16155000D01*
X16283571Y-16183571D01*
X16283571Y-16212143D01*
X16140714Y-16240714D01*
X16397857Y-16326429D02*
X16426428Y-16340714D01*
X16483571Y-16340714D01*
X16512143Y-16326429D01*
X16526428Y-16297857D01*
X16526428Y-16283571D01*
X16512143Y-16255000D01*
X16483571Y-16240714D01*
X16440714Y-16240714D01*
X16412143Y-16226429D01*
X16397857Y-16197857D01*
X16397857Y-16183571D01*
X16412143Y-16155000D01*
X16440714Y-16140714D01*
X16483571Y-16140714D01*
X16512143Y-16155000D01*
X16626428Y-16455000D02*
X16640714Y-16440714D01*
X16669286Y-16397857D01*
X16683571Y-16369286D01*
X16697857Y-16326429D01*
X16712143Y-16255000D01*
X16712143Y-16197857D01*
X16697857Y-16126429D01*
X16683571Y-16083571D01*
X16669286Y-16055000D01*
X16640714Y-16012143D01*
X16626428Y-15997857D01*
X10155000Y-16601000D02*
G75*
G03X10155000Y-16601000I-40000J0D01*
G01*
X10483571Y-16436714D02*
X10512143Y-16436714D01*
X10540714Y-16451000D01*
X10555000Y-16465286D01*
X10569286Y-16493857D01*
X10583571Y-16551000D01*
X10583571Y-16622429D01*
X10569286Y-16679571D01*
X10555000Y-16708143D01*
X10540714Y-16722429D01*
X10512143Y-16736714D01*
X10483571Y-16736714D01*
X10455000Y-16722429D01*
X10440714Y-16708143D01*
X10426429Y-16679571D01*
X10412143Y-16622429D01*
X10412143Y-16551000D01*
X10426429Y-16493857D01*
X10440714Y-16465286D01*
X10455000Y-16451000D01*
X10483571Y-16436714D01*
X10712143Y-16708143D02*
X10726429Y-16722429D01*
X10712143Y-16736714D01*
X10697857Y-16722429D01*
X10712143Y-16708143D01*
X10712143Y-16736714D01*
X10897857Y-16565286D02*
X10869286Y-16551000D01*
X10855000Y-16536714D01*
X10840714Y-16508143D01*
X10840714Y-16493857D01*
X10855000Y-16465286D01*
X10869286Y-16451000D01*
X10897857Y-16436714D01*
X10955000Y-16436714D01*
X10983571Y-16451000D01*
X10997857Y-16465286D01*
X11012143Y-16493857D01*
X11012143Y-16508143D01*
X10997857Y-16536714D01*
X10983571Y-16551000D01*
X10955000Y-16565286D01*
X10897857Y-16565286D01*
X10869286Y-16579571D01*
X10855000Y-16593857D01*
X10840714Y-16622429D01*
X10840714Y-16679571D01*
X10855000Y-16708143D01*
X10869286Y-16722429D01*
X10897857Y-16736714D01*
X10955000Y-16736714D01*
X10983571Y-16722429D01*
X10997857Y-16708143D01*
X11012143Y-16679571D01*
X11012143Y-16622429D01*
X10997857Y-16593857D01*
X10983571Y-16579571D01*
X10955000Y-16565286D01*
X11197857Y-16436714D02*
X11226428Y-16436714D01*
X11255000Y-16451000D01*
X11269286Y-16465286D01*
X11283571Y-16493857D01*
X11297857Y-16551000D01*
X11297857Y-16622429D01*
X11283571Y-16679571D01*
X11269286Y-16708143D01*
X11255000Y-16722429D01*
X11226428Y-16736714D01*
X11197857Y-16736714D01*
X11169286Y-16722429D01*
X11155000Y-16708143D01*
X11140714Y-16679571D01*
X11126429Y-16622429D01*
X11126429Y-16551000D01*
X11140714Y-16493857D01*
X11155000Y-16465286D01*
X11169286Y-16451000D01*
X11197857Y-16436714D01*
X11426428Y-16736714D02*
X11426428Y-16536714D01*
X11426428Y-16565286D02*
X11440714Y-16551000D01*
X11469286Y-16536714D01*
X11512143Y-16536714D01*
X11540714Y-16551000D01*
X11555000Y-16579571D01*
X11555000Y-16736714D01*
X11555000Y-16579571D02*
X11569286Y-16551000D01*
X11597857Y-16536714D01*
X11640714Y-16536714D01*
X11669286Y-16551000D01*
X11683571Y-16579571D01*
X11683571Y-16736714D01*
X11826428Y-16736714D02*
X11826428Y-16536714D01*
X11826428Y-16565286D02*
X11840714Y-16551000D01*
X11869286Y-16536714D01*
X11912143Y-16536714D01*
X11940714Y-16551000D01*
X11955000Y-16579571D01*
X11955000Y-16736714D01*
X11955000Y-16579571D02*
X11969286Y-16551000D01*
X11997857Y-16536714D01*
X12040714Y-16536714D01*
X12069286Y-16551000D01*
X12083571Y-16579571D01*
X12083571Y-16736714D01*
X12669286Y-16422429D02*
X12412143Y-16808143D01*
X13055000Y-16436714D02*
X13083571Y-16436714D01*
X13112143Y-16451000D01*
X13126428Y-16465286D01*
X13140714Y-16493857D01*
X13155000Y-16551000D01*
X13155000Y-16622429D01*
X13140714Y-16679571D01*
X13126428Y-16708143D01*
X13112143Y-16722429D01*
X13083571Y-16736714D01*
X13055000Y-16736714D01*
X13026428Y-16722429D01*
X13012143Y-16708143D01*
X12997857Y-16679571D01*
X12983571Y-16622429D01*
X12983571Y-16551000D01*
X12997857Y-16493857D01*
X13012143Y-16465286D01*
X13026428Y-16451000D01*
X13055000Y-16436714D01*
X13283571Y-16708143D02*
X13297857Y-16722429D01*
X13283571Y-16736714D01*
X13269286Y-16722429D01*
X13283571Y-16708143D01*
X13283571Y-16736714D01*
X13483571Y-16436714D02*
X13512143Y-16436714D01*
X13540714Y-16451000D01*
X13555000Y-16465286D01*
X13569285Y-16493857D01*
X13583571Y-16551000D01*
X13583571Y-16622429D01*
X13569285Y-16679571D01*
X13555000Y-16708143D01*
X13540714Y-16722429D01*
X13512143Y-16736714D01*
X13483571Y-16736714D01*
X13455000Y-16722429D01*
X13440714Y-16708143D01*
X13426428Y-16679571D01*
X13412143Y-16622429D01*
X13412143Y-16551000D01*
X13426428Y-16493857D01*
X13440714Y-16465286D01*
X13455000Y-16451000D01*
X13483571Y-16436714D01*
X13683571Y-16436714D02*
X13869285Y-16436714D01*
X13769285Y-16551000D01*
X13812143Y-16551000D01*
X13840714Y-16565286D01*
X13855000Y-16579571D01*
X13869285Y-16608143D01*
X13869285Y-16679571D01*
X13855000Y-16708143D01*
X13840714Y-16722429D01*
X13812143Y-16736714D01*
X13726428Y-16736714D01*
X13697857Y-16722429D01*
X13683571Y-16708143D01*
X14155000Y-16736714D02*
X13983571Y-16736714D01*
X14069285Y-16736714D02*
X14069285Y-16436714D01*
X14040714Y-16479571D01*
X14012143Y-16508143D01*
X13983571Y-16522429D01*
X14269286Y-16436714D02*
X14269286Y-16493857D01*
X14383571Y-16436714D02*
X14383571Y-16493857D01*
X14826428Y-16851000D02*
X14812143Y-16836714D01*
X14783571Y-16793857D01*
X14769285Y-16765286D01*
X14755000Y-16722429D01*
X14740714Y-16651000D01*
X14740714Y-16593857D01*
X14755000Y-16522429D01*
X14769285Y-16479571D01*
X14783571Y-16451000D01*
X14812143Y-16408143D01*
X14826428Y-16393857D01*
X14926428Y-16465286D02*
X14940714Y-16451000D01*
X14969285Y-16436714D01*
X15040714Y-16436714D01*
X15069285Y-16451000D01*
X15083571Y-16465286D01*
X15097857Y-16493857D01*
X15097857Y-16522429D01*
X15083571Y-16565286D01*
X14912143Y-16736714D01*
X15097857Y-16736714D01*
X15240714Y-16736714D02*
X15297857Y-16736714D01*
X15326428Y-16722429D01*
X15340714Y-16708143D01*
X15369285Y-16665286D01*
X15383571Y-16608143D01*
X15383571Y-16493857D01*
X15369285Y-16465286D01*
X15355000Y-16451000D01*
X15326428Y-16436714D01*
X15269285Y-16436714D01*
X15240714Y-16451000D01*
X15226428Y-16465286D01*
X15212143Y-16493857D01*
X15212143Y-16565286D01*
X15226428Y-16593857D01*
X15240714Y-16608143D01*
X15269285Y-16622429D01*
X15326428Y-16622429D01*
X15355000Y-16608143D01*
X15369285Y-16593857D01*
X15383571Y-16565286D01*
X15740714Y-16736714D02*
X15740714Y-16436714D01*
X15869285Y-16736714D02*
X15869285Y-16579571D01*
X15855000Y-16551000D01*
X15826428Y-16536714D01*
X15783571Y-16536714D01*
X15755000Y-16551000D01*
X15740714Y-16565286D01*
X16055000Y-16736714D02*
X16026428Y-16722429D01*
X16012143Y-16708143D01*
X15997857Y-16679571D01*
X15997857Y-16593857D01*
X16012143Y-16565286D01*
X16026428Y-16551000D01*
X16055000Y-16536714D01*
X16097857Y-16536714D01*
X16126428Y-16551000D01*
X16140714Y-16565286D01*
X16155000Y-16593857D01*
X16155000Y-16679571D01*
X16140714Y-16708143D01*
X16126428Y-16722429D01*
X16097857Y-16736714D01*
X16055000Y-16736714D01*
X16326428Y-16736714D02*
X16297857Y-16722429D01*
X16283571Y-16693857D01*
X16283571Y-16436714D01*
X16555000Y-16722429D02*
X16526428Y-16736714D01*
X16469286Y-16736714D01*
X16440714Y-16722429D01*
X16426428Y-16693857D01*
X16426428Y-16579571D01*
X16440714Y-16551000D01*
X16469286Y-16536714D01*
X16526428Y-16536714D01*
X16555000Y-16551000D01*
X16569286Y-16579571D01*
X16569286Y-16608143D01*
X16426428Y-16636714D01*
X16683571Y-16722429D02*
X16712143Y-16736714D01*
X16769286Y-16736714D01*
X16797857Y-16722429D01*
X16812143Y-16693857D01*
X16812143Y-16679571D01*
X16797857Y-16651000D01*
X16769286Y-16636714D01*
X16726428Y-16636714D01*
X16697857Y-16622429D01*
X16683571Y-16593857D01*
X16683571Y-16579571D01*
X16697857Y-16551000D01*
X16726428Y-16536714D01*
X16769286Y-16536714D01*
X16797857Y-16551000D01*
X16912143Y-16851000D02*
X16926429Y-16836714D01*
X16955000Y-16793857D01*
X16969286Y-16765286D01*
X16983571Y-16722429D01*
X16997857Y-16651000D01*
X16997857Y-16593857D01*
X16983571Y-16522429D01*
X16969286Y-16479571D01*
X16955000Y-16451000D01*
X16926429Y-16408143D01*
X16912143Y-16393857D01*
X10114995Y-16956995D02*
X10114995Y-17037005D01*
X10074990Y-16997000D02*
X10155000Y-16997000D01*
X10483571Y-16832714D02*
X10512143Y-16832714D01*
X10540714Y-16847000D01*
X10555000Y-16861286D01*
X10569286Y-16889857D01*
X10583571Y-16947000D01*
X10583571Y-17018429D01*
X10569286Y-17075572D01*
X10555000Y-17104143D01*
X10540714Y-17118429D01*
X10512143Y-17132714D01*
X10483571Y-17132714D01*
X10455000Y-17118429D01*
X10440714Y-17104143D01*
X10426429Y-17075572D01*
X10412143Y-17018429D01*
X10412143Y-16947000D01*
X10426429Y-16889857D01*
X10440714Y-16861286D01*
X10455000Y-16847000D01*
X10483571Y-16832714D01*
X10712143Y-17104143D02*
X10726429Y-17118429D01*
X10712143Y-17132714D01*
X10697857Y-17118429D01*
X10712143Y-17104143D01*
X10712143Y-17132714D01*
X10897857Y-16961286D02*
X10869286Y-16947000D01*
X10855000Y-16932714D01*
X10840714Y-16904143D01*
X10840714Y-16889857D01*
X10855000Y-16861286D01*
X10869286Y-16847000D01*
X10897857Y-16832714D01*
X10955000Y-16832714D01*
X10983571Y-16847000D01*
X10997857Y-16861286D01*
X11012143Y-16889857D01*
X11012143Y-16904143D01*
X10997857Y-16932714D01*
X10983571Y-16947000D01*
X10955000Y-16961286D01*
X10897857Y-16961286D01*
X10869286Y-16975572D01*
X10855000Y-16989857D01*
X10840714Y-17018429D01*
X10840714Y-17075572D01*
X10855000Y-17104143D01*
X10869286Y-17118429D01*
X10897857Y-17132714D01*
X10955000Y-17132714D01*
X10983571Y-17118429D01*
X10997857Y-17104143D01*
X11012143Y-17075572D01*
X11012143Y-17018429D01*
X10997857Y-16989857D01*
X10983571Y-16975572D01*
X10955000Y-16961286D01*
X11197857Y-16832714D02*
X11226428Y-16832714D01*
X11255000Y-16847000D01*
X11269286Y-16861286D01*
X11283571Y-16889857D01*
X11297857Y-16947000D01*
X11297857Y-17018429D01*
X11283571Y-17075572D01*
X11269286Y-17104143D01*
X11255000Y-17118429D01*
X11226428Y-17132714D01*
X11197857Y-17132714D01*
X11169286Y-17118429D01*
X11155000Y-17104143D01*
X11140714Y-17075572D01*
X11126429Y-17018429D01*
X11126429Y-16947000D01*
X11140714Y-16889857D01*
X11155000Y-16861286D01*
X11169286Y-16847000D01*
X11197857Y-16832714D01*
X11426428Y-17132714D02*
X11426428Y-16932714D01*
X11426428Y-16961286D02*
X11440714Y-16947000D01*
X11469286Y-16932714D01*
X11512143Y-16932714D01*
X11540714Y-16947000D01*
X11555000Y-16975572D01*
X11555000Y-17132714D01*
X11555000Y-16975572D02*
X11569286Y-16947000D01*
X11597857Y-16932714D01*
X11640714Y-16932714D01*
X11669286Y-16947000D01*
X11683571Y-16975572D01*
X11683571Y-17132714D01*
X11826428Y-17132714D02*
X11826428Y-16932714D01*
X11826428Y-16961286D02*
X11840714Y-16947000D01*
X11869286Y-16932714D01*
X11912143Y-16932714D01*
X11940714Y-16947000D01*
X11955000Y-16975572D01*
X11955000Y-17132714D01*
X11955000Y-16975572D02*
X11969286Y-16947000D01*
X11997857Y-16932714D01*
X12040714Y-16932714D01*
X12069286Y-16947000D01*
X12083571Y-16975572D01*
X12083571Y-17132714D01*
X12669286Y-16818429D02*
X12412143Y-17204143D01*
X13055000Y-16832714D02*
X13083571Y-16832714D01*
X13112143Y-16847000D01*
X13126428Y-16861286D01*
X13140714Y-16889857D01*
X13155000Y-16947000D01*
X13155000Y-17018429D01*
X13140714Y-17075572D01*
X13126428Y-17104143D01*
X13112143Y-17118429D01*
X13083571Y-17132714D01*
X13055000Y-17132714D01*
X13026428Y-17118429D01*
X13012143Y-17104143D01*
X12997857Y-17075572D01*
X12983571Y-17018429D01*
X12983571Y-16947000D01*
X12997857Y-16889857D01*
X13012143Y-16861286D01*
X13026428Y-16847000D01*
X13055000Y-16832714D01*
X13283571Y-17104143D02*
X13297857Y-17118429D01*
X13283571Y-17132714D01*
X13269286Y-17118429D01*
X13283571Y-17104143D01*
X13283571Y-17132714D01*
X13483571Y-16832714D02*
X13512143Y-16832714D01*
X13540714Y-16847000D01*
X13555000Y-16861286D01*
X13569285Y-16889857D01*
X13583571Y-16947000D01*
X13583571Y-17018429D01*
X13569285Y-17075572D01*
X13555000Y-17104143D01*
X13540714Y-17118429D01*
X13512143Y-17132714D01*
X13483571Y-17132714D01*
X13455000Y-17118429D01*
X13440714Y-17104143D01*
X13426428Y-17075572D01*
X13412143Y-17018429D01*
X13412143Y-16947000D01*
X13426428Y-16889857D01*
X13440714Y-16861286D01*
X13455000Y-16847000D01*
X13483571Y-16832714D01*
X13683571Y-16832714D02*
X13869285Y-16832714D01*
X13769285Y-16947000D01*
X13812143Y-16947000D01*
X13840714Y-16961286D01*
X13855000Y-16975572D01*
X13869285Y-17004143D01*
X13869285Y-17075572D01*
X13855000Y-17104143D01*
X13840714Y-17118429D01*
X13812143Y-17132714D01*
X13726428Y-17132714D01*
X13697857Y-17118429D01*
X13683571Y-17104143D01*
X13983571Y-16861286D02*
X13997857Y-16847000D01*
X14026428Y-16832714D01*
X14097857Y-16832714D01*
X14126428Y-16847000D01*
X14140714Y-16861286D01*
X14155000Y-16889857D01*
X14155000Y-16918429D01*
X14140714Y-16961286D01*
X13969285Y-17132714D01*
X14155000Y-17132714D01*
X14269286Y-16832714D02*
X14269286Y-16889857D01*
X14383571Y-16832714D02*
X14383571Y-16889857D01*
X14826428Y-17247000D02*
X14812143Y-17232714D01*
X14783571Y-17189857D01*
X14769285Y-17161286D01*
X14755000Y-17118429D01*
X14740714Y-17047000D01*
X14740714Y-16989857D01*
X14755000Y-16918429D01*
X14769285Y-16875572D01*
X14783571Y-16847000D01*
X14812143Y-16804143D01*
X14826428Y-16789857D01*
X15097857Y-17132714D02*
X14926428Y-17132714D01*
X15012143Y-17132714D02*
X15012143Y-16832714D01*
X14983571Y-16875572D01*
X14955000Y-16904143D01*
X14926428Y-16918429D01*
X15455000Y-17132714D02*
X15455000Y-16832714D01*
X15583571Y-17132714D02*
X15583571Y-16975572D01*
X15569285Y-16947000D01*
X15540714Y-16932714D01*
X15497857Y-16932714D01*
X15469285Y-16947000D01*
X15455000Y-16961286D01*
X15769285Y-17132714D02*
X15740714Y-17118429D01*
X15726428Y-17104143D01*
X15712143Y-17075572D01*
X15712143Y-16989857D01*
X15726428Y-16961286D01*
X15740714Y-16947000D01*
X15769285Y-16932714D01*
X15812143Y-16932714D01*
X15840714Y-16947000D01*
X15855000Y-16961286D01*
X15869285Y-16989857D01*
X15869285Y-17075572D01*
X15855000Y-17104143D01*
X15840714Y-17118429D01*
X15812143Y-17132714D01*
X15769285Y-17132714D01*
X16040714Y-17132714D02*
X16012143Y-17118429D01*
X15997857Y-17089857D01*
X15997857Y-16832714D01*
X16269286Y-17118429D02*
X16240714Y-17132714D01*
X16183571Y-17132714D01*
X16155000Y-17118429D01*
X16140714Y-17089857D01*
X16140714Y-16975572D01*
X16155000Y-16947000D01*
X16183571Y-16932714D01*
X16240714Y-16932714D01*
X16269286Y-16947000D01*
X16283571Y-16975572D01*
X16283571Y-17004143D01*
X16140714Y-17032714D01*
X16383571Y-17247000D02*
X16397857Y-17232714D01*
X16426428Y-17189857D01*
X16440714Y-17161286D01*
X16455000Y-17118429D01*
X16469286Y-17047000D01*
X16469286Y-16989857D01*
X16455000Y-16918429D01*
X16440714Y-16875572D01*
X16426428Y-16847000D01*
X16397857Y-16804143D01*
X16383571Y-16789857D01*
X10140344Y-17428383D02*
X10140344Y-17357618D01*
X10069579Y-17357618D01*
X10069579Y-17428383D01*
X10140344Y-17428383D01*
X10583571Y-17528714D02*
X10412143Y-17528714D01*
X10497857Y-17528714D02*
X10497857Y-17228714D01*
X10469286Y-17271572D01*
X10440714Y-17300143D01*
X10412143Y-17314429D01*
X10712143Y-17500143D02*
X10726429Y-17514429D01*
X10712143Y-17528714D01*
X10697857Y-17514429D01*
X10712143Y-17500143D01*
X10712143Y-17528714D01*
X10912143Y-17228714D02*
X10940714Y-17228714D01*
X10969286Y-17243000D01*
X10983571Y-17257286D01*
X10997857Y-17285857D01*
X11012143Y-17343000D01*
X11012143Y-17414429D01*
X10997857Y-17471572D01*
X10983571Y-17500143D01*
X10969286Y-17514429D01*
X10940714Y-17528714D01*
X10912143Y-17528714D01*
X10883571Y-17514429D01*
X10869286Y-17500143D01*
X10855000Y-17471572D01*
X10840714Y-17414429D01*
X10840714Y-17343000D01*
X10855000Y-17285857D01*
X10869286Y-17257286D01*
X10883571Y-17243000D01*
X10912143Y-17228714D01*
X11197857Y-17228714D02*
X11226428Y-17228714D01*
X11255000Y-17243000D01*
X11269286Y-17257286D01*
X11283571Y-17285857D01*
X11297857Y-17343000D01*
X11297857Y-17414429D01*
X11283571Y-17471572D01*
X11269286Y-17500143D01*
X11255000Y-17514429D01*
X11226428Y-17528714D01*
X11197857Y-17528714D01*
X11169286Y-17514429D01*
X11155000Y-17500143D01*
X11140714Y-17471572D01*
X11126429Y-17414429D01*
X11126429Y-17343000D01*
X11140714Y-17285857D01*
X11155000Y-17257286D01*
X11169286Y-17243000D01*
X11197857Y-17228714D01*
X11426428Y-17528714D02*
X11426428Y-17328714D01*
X11426428Y-17357286D02*
X11440714Y-17343000D01*
X11469286Y-17328714D01*
X11512143Y-17328714D01*
X11540714Y-17343000D01*
X11555000Y-17371572D01*
X11555000Y-17528714D01*
X11555000Y-17371572D02*
X11569286Y-17343000D01*
X11597857Y-17328714D01*
X11640714Y-17328714D01*
X11669286Y-17343000D01*
X11683571Y-17371572D01*
X11683571Y-17528714D01*
X11826428Y-17528714D02*
X11826428Y-17328714D01*
X11826428Y-17357286D02*
X11840714Y-17343000D01*
X11869286Y-17328714D01*
X11912143Y-17328714D01*
X11940714Y-17343000D01*
X11955000Y-17371572D01*
X11955000Y-17528714D01*
X11955000Y-17371572D02*
X11969286Y-17343000D01*
X11997857Y-17328714D01*
X12040714Y-17328714D01*
X12069286Y-17343000D01*
X12083571Y-17371572D01*
X12083571Y-17528714D01*
X12669286Y-17214429D02*
X12412143Y-17600143D01*
X13055000Y-17228714D02*
X13083571Y-17228714D01*
X13112143Y-17243000D01*
X13126428Y-17257286D01*
X13140714Y-17285857D01*
X13155000Y-17343000D01*
X13155000Y-17414429D01*
X13140714Y-17471572D01*
X13126428Y-17500143D01*
X13112143Y-17514429D01*
X13083571Y-17528714D01*
X13055000Y-17528714D01*
X13026428Y-17514429D01*
X13012143Y-17500143D01*
X12997857Y-17471572D01*
X12983571Y-17414429D01*
X12983571Y-17343000D01*
X12997857Y-17285857D01*
X13012143Y-17257286D01*
X13026428Y-17243000D01*
X13055000Y-17228714D01*
X13283571Y-17500143D02*
X13297857Y-17514429D01*
X13283571Y-17528714D01*
X13269286Y-17514429D01*
X13283571Y-17500143D01*
X13283571Y-17528714D01*
X13483571Y-17228714D02*
X13512143Y-17228714D01*
X13540714Y-17243000D01*
X13555000Y-17257286D01*
X13569285Y-17285857D01*
X13583571Y-17343000D01*
X13583571Y-17414429D01*
X13569285Y-17471572D01*
X13555000Y-17500143D01*
X13540714Y-17514429D01*
X13512143Y-17528714D01*
X13483571Y-17528714D01*
X13455000Y-17514429D01*
X13440714Y-17500143D01*
X13426428Y-17471572D01*
X13412143Y-17414429D01*
X13412143Y-17343000D01*
X13426428Y-17285857D01*
X13440714Y-17257286D01*
X13455000Y-17243000D01*
X13483571Y-17228714D01*
X13683571Y-17228714D02*
X13869285Y-17228714D01*
X13769285Y-17343000D01*
X13812143Y-17343000D01*
X13840714Y-17357286D01*
X13855000Y-17371572D01*
X13869285Y-17400143D01*
X13869285Y-17471572D01*
X13855000Y-17500143D01*
X13840714Y-17514429D01*
X13812143Y-17528714D01*
X13726428Y-17528714D01*
X13697857Y-17514429D01*
X13683571Y-17500143D01*
X14012143Y-17528714D02*
X14069285Y-17528714D01*
X14097857Y-17514429D01*
X14112143Y-17500143D01*
X14140714Y-17457286D01*
X14155000Y-17400143D01*
X14155000Y-17285857D01*
X14140714Y-17257286D01*
X14126428Y-17243000D01*
X14097857Y-17228714D01*
X14040714Y-17228714D01*
X14012143Y-17243000D01*
X13997857Y-17257286D01*
X13983571Y-17285857D01*
X13983571Y-17357286D01*
X13997857Y-17385857D01*
X14012143Y-17400143D01*
X14040714Y-17414429D01*
X14097857Y-17414429D01*
X14126428Y-17400143D01*
X14140714Y-17385857D01*
X14155000Y-17357286D01*
X14269286Y-17228714D02*
X14269286Y-17285857D01*
X14383571Y-17228714D02*
X14383571Y-17285857D01*
X14826428Y-17643000D02*
X14812143Y-17628714D01*
X14783571Y-17585857D01*
X14769285Y-17557286D01*
X14755000Y-17514429D01*
X14740714Y-17443000D01*
X14740714Y-17385857D01*
X14755000Y-17314429D01*
X14769285Y-17271572D01*
X14783571Y-17243000D01*
X14812143Y-17200143D01*
X14826428Y-17185857D01*
X15097857Y-17528714D02*
X14926428Y-17528714D01*
X15012143Y-17528714D02*
X15012143Y-17228714D01*
X14983571Y-17271572D01*
X14955000Y-17300143D01*
X14926428Y-17314429D01*
X15355000Y-17228714D02*
X15297857Y-17228714D01*
X15269285Y-17243000D01*
X15255000Y-17257286D01*
X15226428Y-17300143D01*
X15212143Y-17357286D01*
X15212143Y-17471572D01*
X15226428Y-17500143D01*
X15240714Y-17514429D01*
X15269285Y-17528714D01*
X15326428Y-17528714D01*
X15355000Y-17514429D01*
X15369285Y-17500143D01*
X15383571Y-17471572D01*
X15383571Y-17400143D01*
X15369285Y-17371572D01*
X15355000Y-17357286D01*
X15326428Y-17343000D01*
X15269285Y-17343000D01*
X15240714Y-17357286D01*
X15226428Y-17371572D01*
X15212143Y-17400143D01*
X15640714Y-17328714D02*
X15640714Y-17528714D01*
X15569285Y-17214429D02*
X15497857Y-17428714D01*
X15683571Y-17428714D01*
X16026428Y-17528714D02*
X16026428Y-17228714D01*
X16155000Y-17528714D02*
X16155000Y-17371572D01*
X16140714Y-17343000D01*
X16112143Y-17328714D01*
X16069285Y-17328714D01*
X16040714Y-17343000D01*
X16026428Y-17357286D01*
X16340714Y-17528714D02*
X16312143Y-17514429D01*
X16297857Y-17500143D01*
X16283571Y-17471572D01*
X16283571Y-17385857D01*
X16297857Y-17357286D01*
X16312143Y-17343000D01*
X16340714Y-17328714D01*
X16383571Y-17328714D01*
X16412143Y-17343000D01*
X16426428Y-17357286D01*
X16440714Y-17385857D01*
X16440714Y-17471572D01*
X16426428Y-17500143D01*
X16412143Y-17514429D01*
X16383571Y-17528714D01*
X16340714Y-17528714D01*
X16612143Y-17528714D02*
X16583571Y-17514429D01*
X16569286Y-17485857D01*
X16569286Y-17228714D01*
X16840714Y-17514429D02*
X16812143Y-17528714D01*
X16755000Y-17528714D01*
X16726428Y-17514429D01*
X16712143Y-17485857D01*
X16712143Y-17371572D01*
X16726428Y-17343000D01*
X16755000Y-17328714D01*
X16812143Y-17328714D01*
X16840714Y-17343000D01*
X16855000Y-17371572D01*
X16855000Y-17400143D01*
X16712143Y-17428714D01*
X16969286Y-17514429D02*
X16997857Y-17528714D01*
X17055000Y-17528714D01*
X17083571Y-17514429D01*
X17097857Y-17485857D01*
X17097857Y-17471572D01*
X17083571Y-17443000D01*
X17055000Y-17428714D01*
X17012143Y-17428714D01*
X16983571Y-17414429D01*
X16969286Y-17385857D01*
X16969286Y-17371572D01*
X16983571Y-17343000D01*
X17012143Y-17328714D01*
X17055000Y-17328714D01*
X17083571Y-17343000D01*
X17197857Y-17643000D02*
X17212143Y-17628714D01*
X17240714Y-17585857D01*
X17255000Y-17557286D01*
X17269286Y-17514429D01*
X17283571Y-17443000D01*
X17283571Y-17385857D01*
X17269286Y-17314429D01*
X17255000Y-17271572D01*
X17240714Y-17243000D01*
X17212143Y-17200143D01*
X17197857Y-17185857D01*
X10104200Y-17839800D02*
X10155000Y-17789000D01*
X10104200Y-17738200D01*
X10053400Y-17789000D01*
X10104200Y-17839800D01*
X10583571Y-17924714D02*
X10412143Y-17924714D01*
X10497857Y-17924714D02*
X10497857Y-17624714D01*
X10469286Y-17667572D01*
X10440714Y-17696143D01*
X10412143Y-17710429D01*
X10712143Y-17896143D02*
X10726429Y-17910429D01*
X10712143Y-17924714D01*
X10697857Y-17910429D01*
X10712143Y-17896143D01*
X10712143Y-17924714D01*
X10912143Y-17624714D02*
X10940714Y-17624714D01*
X10969286Y-17639000D01*
X10983571Y-17653286D01*
X10997857Y-17681857D01*
X11012143Y-17739000D01*
X11012143Y-17810429D01*
X10997857Y-17867572D01*
X10983571Y-17896143D01*
X10969286Y-17910429D01*
X10940714Y-17924714D01*
X10912143Y-17924714D01*
X10883571Y-17910429D01*
X10869286Y-17896143D01*
X10855000Y-17867572D01*
X10840714Y-17810429D01*
X10840714Y-17739000D01*
X10855000Y-17681857D01*
X10869286Y-17653286D01*
X10883571Y-17639000D01*
X10912143Y-17624714D01*
X11126429Y-17653286D02*
X11140714Y-17639000D01*
X11169286Y-17624714D01*
X11240714Y-17624714D01*
X11269286Y-17639000D01*
X11283571Y-17653286D01*
X11297857Y-17681857D01*
X11297857Y-17710429D01*
X11283571Y-17753286D01*
X11112143Y-17924714D01*
X11297857Y-17924714D01*
X11426428Y-17924714D02*
X11426428Y-17724714D01*
X11426428Y-17753286D02*
X11440714Y-17739000D01*
X11469286Y-17724714D01*
X11512143Y-17724714D01*
X11540714Y-17739000D01*
X11555000Y-17767572D01*
X11555000Y-17924714D01*
X11555000Y-17767572D02*
X11569286Y-17739000D01*
X11597857Y-17724714D01*
X11640714Y-17724714D01*
X11669286Y-17739000D01*
X11683571Y-17767572D01*
X11683571Y-17924714D01*
X11826428Y-17924714D02*
X11826428Y-17724714D01*
X11826428Y-17753286D02*
X11840714Y-17739000D01*
X11869286Y-17724714D01*
X11912143Y-17724714D01*
X11940714Y-17739000D01*
X11955000Y-17767572D01*
X11955000Y-17924714D01*
X11955000Y-17767572D02*
X11969286Y-17739000D01*
X11997857Y-17724714D01*
X12040714Y-17724714D01*
X12069286Y-17739000D01*
X12083571Y-17767572D01*
X12083571Y-17924714D01*
X12669286Y-17610429D02*
X12412143Y-17996143D01*
X13055000Y-17624714D02*
X13083571Y-17624714D01*
X13112143Y-17639000D01*
X13126428Y-17653286D01*
X13140714Y-17681857D01*
X13155000Y-17739000D01*
X13155000Y-17810429D01*
X13140714Y-17867572D01*
X13126428Y-17896143D01*
X13112143Y-17910429D01*
X13083571Y-17924714D01*
X13055000Y-17924714D01*
X13026428Y-17910429D01*
X13012143Y-17896143D01*
X12997857Y-17867572D01*
X12983571Y-17810429D01*
X12983571Y-17739000D01*
X12997857Y-17681857D01*
X13012143Y-17653286D01*
X13026428Y-17639000D01*
X13055000Y-17624714D01*
X13283571Y-17896143D02*
X13297857Y-17910429D01*
X13283571Y-17924714D01*
X13269286Y-17910429D01*
X13283571Y-17896143D01*
X13283571Y-17924714D01*
X13483571Y-17624714D02*
X13512143Y-17624714D01*
X13540714Y-17639000D01*
X13555000Y-17653286D01*
X13569285Y-17681857D01*
X13583571Y-17739000D01*
X13583571Y-17810429D01*
X13569285Y-17867572D01*
X13555000Y-17896143D01*
X13540714Y-17910429D01*
X13512143Y-17924714D01*
X13483571Y-17924714D01*
X13455000Y-17910429D01*
X13440714Y-17896143D01*
X13426428Y-17867572D01*
X13412143Y-17810429D01*
X13412143Y-17739000D01*
X13426428Y-17681857D01*
X13440714Y-17653286D01*
X13455000Y-17639000D01*
X13483571Y-17624714D01*
X13840714Y-17724714D02*
X13840714Y-17924714D01*
X13769285Y-17610429D02*
X13697857Y-17824714D01*
X13883571Y-17824714D01*
X14055000Y-17624714D02*
X14083571Y-17624714D01*
X14112143Y-17639000D01*
X14126428Y-17653286D01*
X14140714Y-17681857D01*
X14155000Y-17739000D01*
X14155000Y-17810429D01*
X14140714Y-17867572D01*
X14126428Y-17896143D01*
X14112143Y-17910429D01*
X14083571Y-17924714D01*
X14055000Y-17924714D01*
X14026428Y-17910429D01*
X14012143Y-17896143D01*
X13997857Y-17867572D01*
X13983571Y-17810429D01*
X13983571Y-17739000D01*
X13997857Y-17681857D01*
X14012143Y-17653286D01*
X14026428Y-17639000D01*
X14055000Y-17624714D01*
X14269286Y-17624714D02*
X14269286Y-17681857D01*
X14383571Y-17624714D02*
X14383571Y-17681857D01*
X14826428Y-18039000D02*
X14812143Y-18024714D01*
X14783571Y-17981857D01*
X14769285Y-17953286D01*
X14755000Y-17910429D01*
X14740714Y-17839000D01*
X14740714Y-17781857D01*
X14755000Y-17710429D01*
X14769285Y-17667572D01*
X14783571Y-17639000D01*
X14812143Y-17596143D01*
X14826428Y-17581857D01*
X14926428Y-17653286D02*
X14940714Y-17639000D01*
X14969285Y-17624714D01*
X15040714Y-17624714D01*
X15069285Y-17639000D01*
X15083571Y-17653286D01*
X15097857Y-17681857D01*
X15097857Y-17710429D01*
X15083571Y-17753286D01*
X14912143Y-17924714D01*
X15097857Y-17924714D01*
X15455000Y-17924714D02*
X15455000Y-17624714D01*
X15583571Y-17924714D02*
X15583571Y-17767572D01*
X15569285Y-17739000D01*
X15540714Y-17724714D01*
X15497857Y-17724714D01*
X15469285Y-17739000D01*
X15455000Y-17753286D01*
X15769285Y-17924714D02*
X15740714Y-17910429D01*
X15726428Y-17896143D01*
X15712143Y-17867572D01*
X15712143Y-17781857D01*
X15726428Y-17753286D01*
X15740714Y-17739000D01*
X15769285Y-17724714D01*
X15812143Y-17724714D01*
X15840714Y-17739000D01*
X15855000Y-17753286D01*
X15869285Y-17781857D01*
X15869285Y-17867572D01*
X15855000Y-17896143D01*
X15840714Y-17910429D01*
X15812143Y-17924714D01*
X15769285Y-17924714D01*
X16040714Y-17924714D02*
X16012143Y-17910429D01*
X15997857Y-17881857D01*
X15997857Y-17624714D01*
X16269286Y-17910429D02*
X16240714Y-17924714D01*
X16183571Y-17924714D01*
X16155000Y-17910429D01*
X16140714Y-17881857D01*
X16140714Y-17767572D01*
X16155000Y-17739000D01*
X16183571Y-17724714D01*
X16240714Y-17724714D01*
X16269286Y-17739000D01*
X16283571Y-17767572D01*
X16283571Y-17796143D01*
X16140714Y-17824714D01*
X16397857Y-17910429D02*
X16426428Y-17924714D01*
X16483571Y-17924714D01*
X16512143Y-17910429D01*
X16526428Y-17881857D01*
X16526428Y-17867572D01*
X16512143Y-17839000D01*
X16483571Y-17824714D01*
X16440714Y-17824714D01*
X16412143Y-17810429D01*
X16397857Y-17781857D01*
X16397857Y-17767572D01*
X16412143Y-17739000D01*
X16440714Y-17724714D01*
X16483571Y-17724714D01*
X16512143Y-17739000D01*
X16626428Y-18039000D02*
X16640714Y-18024714D01*
X16669286Y-17981857D01*
X16683571Y-17953286D01*
X16697857Y-17910429D01*
X16712143Y-17839000D01*
X16712143Y-17781857D01*
X16697857Y-17710429D01*
X16683571Y-17667572D01*
X16669286Y-17639000D01*
X16640714Y-17596143D01*
X16626428Y-17581857D01*
X10015000Y-18115000D02*
X10155000Y-18255000D01*
X10155000Y-18115000D02*
X10015000Y-18255000D01*
X10155000Y-18185000D02*
G75*
G03X10155000Y-18185000I-70000J0D01*
G01*
X10583571Y-18320714D02*
X10412143Y-18320714D01*
X10497857Y-18320714D02*
X10497857Y-18020714D01*
X10469286Y-18063572D01*
X10440714Y-18092143D01*
X10412143Y-18106429D01*
X10712143Y-18292143D02*
X10726429Y-18306429D01*
X10712143Y-18320714D01*
X10697857Y-18306429D01*
X10712143Y-18292143D01*
X10712143Y-18320714D01*
X10983571Y-18120714D02*
X10983571Y-18320714D01*
X10912143Y-18006429D02*
X10840714Y-18220714D01*
X11026428Y-18220714D01*
X11197857Y-18020714D02*
X11226428Y-18020714D01*
X11255000Y-18035000D01*
X11269286Y-18049286D01*
X11283571Y-18077857D01*
X11297857Y-18135000D01*
X11297857Y-18206429D01*
X11283571Y-18263572D01*
X11269286Y-18292143D01*
X11255000Y-18306429D01*
X11226428Y-18320714D01*
X11197857Y-18320714D01*
X11169286Y-18306429D01*
X11155000Y-18292143D01*
X11140714Y-18263572D01*
X11126429Y-18206429D01*
X11126429Y-18135000D01*
X11140714Y-18077857D01*
X11155000Y-18049286D01*
X11169286Y-18035000D01*
X11197857Y-18020714D01*
X11426428Y-18320714D02*
X11426428Y-18120714D01*
X11426428Y-18149286D02*
X11440714Y-18135000D01*
X11469286Y-18120714D01*
X11512143Y-18120714D01*
X11540714Y-18135000D01*
X11555000Y-18163572D01*
X11555000Y-18320714D01*
X11555000Y-18163572D02*
X11569286Y-18135000D01*
X11597857Y-18120714D01*
X11640714Y-18120714D01*
X11669286Y-18135000D01*
X11683571Y-18163572D01*
X11683571Y-18320714D01*
X11826428Y-18320714D02*
X11826428Y-18120714D01*
X11826428Y-18149286D02*
X11840714Y-18135000D01*
X11869286Y-18120714D01*
X11912143Y-18120714D01*
X11940714Y-18135000D01*
X11955000Y-18163572D01*
X11955000Y-18320714D01*
X11955000Y-18163572D02*
X11969286Y-18135000D01*
X11997857Y-18120714D01*
X12040714Y-18120714D01*
X12069286Y-18135000D01*
X12083571Y-18163572D01*
X12083571Y-18320714D01*
X12669286Y-18006429D02*
X12412143Y-18392143D01*
X13055000Y-18020714D02*
X13083571Y-18020714D01*
X13112143Y-18035000D01*
X13126428Y-18049286D01*
X13140714Y-18077857D01*
X13155000Y-18135000D01*
X13155000Y-18206429D01*
X13140714Y-18263572D01*
X13126428Y-18292143D01*
X13112143Y-18306429D01*
X13083571Y-18320714D01*
X13055000Y-18320714D01*
X13026428Y-18306429D01*
X13012143Y-18292143D01*
X12997857Y-18263572D01*
X12983571Y-18206429D01*
X12983571Y-18135000D01*
X12997857Y-18077857D01*
X13012143Y-18049286D01*
X13026428Y-18035000D01*
X13055000Y-18020714D01*
X13283571Y-18292143D02*
X13297857Y-18306429D01*
X13283571Y-18320714D01*
X13269286Y-18306429D01*
X13283571Y-18292143D01*
X13283571Y-18320714D01*
X13483571Y-18020714D02*
X13512143Y-18020714D01*
X13540714Y-18035000D01*
X13555000Y-18049286D01*
X13569285Y-18077857D01*
X13583571Y-18135000D01*
X13583571Y-18206429D01*
X13569285Y-18263572D01*
X13555000Y-18292143D01*
X13540714Y-18306429D01*
X13512143Y-18320714D01*
X13483571Y-18320714D01*
X13455000Y-18306429D01*
X13440714Y-18292143D01*
X13426428Y-18263572D01*
X13412143Y-18206429D01*
X13412143Y-18135000D01*
X13426428Y-18077857D01*
X13440714Y-18049286D01*
X13455000Y-18035000D01*
X13483571Y-18020714D01*
X13855000Y-18020714D02*
X13712143Y-18020714D01*
X13697857Y-18163572D01*
X13712143Y-18149286D01*
X13740714Y-18135000D01*
X13812143Y-18135000D01*
X13840714Y-18149286D01*
X13855000Y-18163572D01*
X13869285Y-18192143D01*
X13869285Y-18263572D01*
X13855000Y-18292143D01*
X13840714Y-18306429D01*
X13812143Y-18320714D01*
X13740714Y-18320714D01*
X13712143Y-18306429D01*
X13697857Y-18292143D01*
X14140714Y-18020714D02*
X13997857Y-18020714D01*
X13983571Y-18163572D01*
X13997857Y-18149286D01*
X14026428Y-18135000D01*
X14097857Y-18135000D01*
X14126428Y-18149286D01*
X14140714Y-18163572D01*
X14155000Y-18192143D01*
X14155000Y-18263572D01*
X14140714Y-18292143D01*
X14126428Y-18306429D01*
X14097857Y-18320714D01*
X14026428Y-18320714D01*
X13997857Y-18306429D01*
X13983571Y-18292143D01*
X14269286Y-18020714D02*
X14269286Y-18077857D01*
X14383571Y-18020714D02*
X14383571Y-18077857D01*
X14826428Y-18435000D02*
X14812143Y-18420714D01*
X14783571Y-18377857D01*
X14769285Y-18349286D01*
X14755000Y-18306429D01*
X14740714Y-18235000D01*
X14740714Y-18177857D01*
X14755000Y-18106429D01*
X14769285Y-18063572D01*
X14783571Y-18035000D01*
X14812143Y-17992143D01*
X14826428Y-17977857D01*
X14926428Y-18049286D02*
X14940714Y-18035000D01*
X14969285Y-18020714D01*
X15040714Y-18020714D01*
X15069285Y-18035000D01*
X15083571Y-18049286D01*
X15097857Y-18077857D01*
X15097857Y-18106429D01*
X15083571Y-18149286D01*
X14912143Y-18320714D01*
X15097857Y-18320714D01*
X15455000Y-18320714D02*
X15455000Y-18020714D01*
X15583571Y-18320714D02*
X15583571Y-18163572D01*
X15569285Y-18135000D01*
X15540714Y-18120714D01*
X15497857Y-18120714D01*
X15469285Y-18135000D01*
X15455000Y-18149286D01*
X15769285Y-18320714D02*
X15740714Y-18306429D01*
X15726428Y-18292143D01*
X15712143Y-18263572D01*
X15712143Y-18177857D01*
X15726428Y-18149286D01*
X15740714Y-18135000D01*
X15769285Y-18120714D01*
X15812143Y-18120714D01*
X15840714Y-18135000D01*
X15855000Y-18149286D01*
X15869285Y-18177857D01*
X15869285Y-18263572D01*
X15855000Y-18292143D01*
X15840714Y-18306429D01*
X15812143Y-18320714D01*
X15769285Y-18320714D01*
X16040714Y-18320714D02*
X16012143Y-18306429D01*
X15997857Y-18277857D01*
X15997857Y-18020714D01*
X16269286Y-18306429D02*
X16240714Y-18320714D01*
X16183571Y-18320714D01*
X16155000Y-18306429D01*
X16140714Y-18277857D01*
X16140714Y-18163572D01*
X16155000Y-18135000D01*
X16183571Y-18120714D01*
X16240714Y-18120714D01*
X16269286Y-18135000D01*
X16283571Y-18163572D01*
X16283571Y-18192143D01*
X16140714Y-18220714D01*
X16397857Y-18306429D02*
X16426428Y-18320714D01*
X16483571Y-18320714D01*
X16512143Y-18306429D01*
X16526428Y-18277857D01*
X16526428Y-18263572D01*
X16512143Y-18235000D01*
X16483571Y-18220714D01*
X16440714Y-18220714D01*
X16412143Y-18206429D01*
X16397857Y-18177857D01*
X16397857Y-18163572D01*
X16412143Y-18135000D01*
X16440714Y-18120714D01*
X16483571Y-18120714D01*
X16512143Y-18135000D01*
X16626428Y-18435000D02*
X16640714Y-18420714D01*
X16669286Y-18377857D01*
X16683571Y-18349286D01*
X16697857Y-18306429D01*
X16712143Y-18235000D01*
X16712143Y-18177857D01*
X16697857Y-18106429D01*
X16683571Y-18063572D01*
X16669286Y-18035000D01*
X16640714Y-17992143D01*
X16626428Y-17977857D01*
M02*
