G04 #@! TF.FileFunction,Legend,Bot*
%FSLAX46Y46*%
G04 Gerber Fmt 4.6, Leading zero omitted, Abs format (unit mm)*
G04 Created by KiCad (PCBNEW 4.0.0-rc1-stable) date 4/24/2016 3:59:36 PM*
%MOMM*%
G01*
G04 APERTURE LIST*
%ADD10C,0.100000*%
%ADD11C,0.150000*%
G04 APERTURE END LIST*
D10*
D11*
X154884888Y-137414904D02*
G75*
G02X154900000Y-134390000I-2484888J1524904D01*
G01*
X154900000Y-137390000D02*
X154900000Y-134390000D01*
X154917936Y-135890000D02*
G75*
G03X154917936Y-135890000I-2517936J0D01*
G01*
X161823183Y-136243253D02*
G75*
G02X161250467Y-133273022I-2733752J1013212D01*
G01*
X161833170Y-136215887D02*
X161250467Y-133273022D01*
X161607367Y-135230041D02*
G75*
G03X161607367Y-135230041I-2517936J0D01*
G01*
X168401508Y-133737732D02*
G75*
G02X167257889Y-130937301I-2879293J457903D01*
G01*
X168405939Y-133708940D02*
X167257889Y-130937301D01*
X168040151Y-133279829D02*
G75*
G03X168040151Y-133279829I-2517936J0D01*
G01*
X174363285Y-130000096D02*
G75*
G02X172697507Y-127475129I-2913397J-110075D01*
G01*
X174362040Y-129970992D02*
X172697507Y-127475129D01*
X173967823Y-130110171D02*
G75*
G03X173967823Y-130110171I-2517935J0D01*
G01*
X179482043Y-125167881D02*
G75*
G02X177353798Y-123018264I-2835352J-678811D01*
G01*
X179475119Y-125139585D02*
X177353798Y-123018264D01*
X179164627Y-125846692D02*
G75*
G03X179164627Y-125846692I-2517936J0D01*
G01*
X183559675Y-119433281D02*
G75*
G02X181054434Y-117737983I-2649503J-1216606D01*
G01*
X183547387Y-119406870D02*
X181054434Y-117737983D01*
X183428108Y-120649887D02*
G75*
G03X183428108Y-120649887I-2517936J0D01*
G01*
X186439582Y-113010033D02*
G75*
G02X183650718Y-111838491I-2359753J-1712182D01*
G01*
X186422357Y-112986541D02*
X183650718Y-111838491D01*
X186597765Y-114722215D02*
G75*
G03X186597765Y-114722215I-2517936J0D01*
G01*
X188012288Y-106151513D02*
G75*
G02X185048984Y-105543975I-1982248J-2137918D01*
G01*
X187990828Y-106131813D02*
X185048984Y-105543975D01*
X188547975Y-108289431D02*
G75*
G03X188547975Y-108289431I-2517935J0D01*
G01*
X188214904Y-99115112D02*
G75*
G02X185190000Y-99100000I-1524904J-2484888D01*
G01*
X188190000Y-99100000D02*
X185190000Y-99100000D01*
X189207936Y-101600000D02*
G75*
G03X189207936Y-101600000I-2517936J0D01*
G01*
X187043253Y-92176817D02*
G75*
G02X184073022Y-92749533I-1013212J-2733752D01*
G01*
X187015887Y-92166830D02*
X184073022Y-92749533D01*
X188547977Y-94910569D02*
G75*
G03X188547977Y-94910569I-2517936J0D01*
G01*
X184537732Y-85598492D02*
G75*
G02X181737301Y-86742111I-457903J-2879293D01*
G01*
X184508940Y-85594061D02*
X181737301Y-86742111D01*
X186597765Y-88477785D02*
G75*
G03X186597765Y-88477785I-2517936J0D01*
G01*
X180800096Y-79636715D02*
G75*
G02X178275129Y-81302493I110075J-2913397D01*
G01*
X180770992Y-79637960D02*
X178275129Y-81302493D01*
X183428106Y-82550112D02*
G75*
G03X183428106Y-82550112I-2517935J0D01*
G01*
X175967881Y-74517957D02*
G75*
G02X173818264Y-76646202I678811J-2835352D01*
G01*
X175939585Y-74524881D02*
X173818264Y-76646202D01*
X179164628Y-77353309D02*
G75*
G03X179164628Y-77353309I-2517936J0D01*
G01*
X170233281Y-70440325D02*
G75*
G02X168537983Y-72945566I1216606J-2649503D01*
G01*
X170206870Y-70452613D02*
X168537983Y-72945566D01*
X173967823Y-73089828D02*
G75*
G03X173967823Y-73089828I-2517936J0D01*
G01*
X163810033Y-67560418D02*
G75*
G02X162638491Y-70349282I1712182J-2359753D01*
G01*
X163786541Y-67577643D02*
X162638491Y-70349282D01*
X168040151Y-69920171D02*
G75*
G03X168040151Y-69920171I-2517936J0D01*
G01*
X156978849Y-65973906D02*
G75*
G02X156324841Y-68927302I2106519J-2015584D01*
G01*
X156958816Y-65995055D02*
X156324841Y-68927302D01*
X161603304Y-67989490D02*
G75*
G03X161603304Y-67989490I-2517936J0D01*
G01*
X149915112Y-65785096D02*
G75*
G02X149900000Y-68810000I2484888J-1524904D01*
G01*
X149900000Y-65810000D02*
X149900000Y-68810000D01*
X154917936Y-67310000D02*
G75*
G03X154917936Y-67310000I-2517936J0D01*
G01*
X142976817Y-66956747D02*
G75*
G02X143549533Y-69926978I2733752J-1013212D01*
G01*
X142966830Y-66984113D02*
X143549533Y-69926978D01*
X148228505Y-67969959D02*
G75*
G03X148228505Y-67969959I-2517936J0D01*
G01*
X136398492Y-69462268D02*
G75*
G02X137542111Y-72262699I2879293J-457903D01*
G01*
X136394061Y-69491060D02*
X137542111Y-72262699D01*
X141795721Y-69920171D02*
G75*
G03X141795721Y-69920171I-2517936J0D01*
G01*
X130436715Y-73199904D02*
G75*
G02X132102493Y-75724871I2913397J110075D01*
G01*
X130437960Y-73229008D02*
X132102493Y-75724871D01*
X135868047Y-73089829D02*
G75*
G03X135868047Y-73089829I-2517935J0D01*
G01*
X125317957Y-78032119D02*
G75*
G02X127446202Y-80181736I2835352J678811D01*
G01*
X125324881Y-78060415D02*
X127446202Y-80181736D01*
X130671245Y-77353308D02*
G75*
G03X130671245Y-77353308I-2517936J0D01*
G01*
X121240325Y-83766719D02*
G75*
G02X123745566Y-85462017I2649503J1216606D01*
G01*
X121252613Y-83793130D02*
X123745566Y-85462017D01*
X126407764Y-82550113D02*
G75*
G03X126407764Y-82550113I-2517936J0D01*
G01*
X118360418Y-90189967D02*
G75*
G02X121149282Y-91361509I2359753J1712182D01*
G01*
X118377643Y-90213459D02*
X121149282Y-91361509D01*
X123238107Y-88477785D02*
G75*
G03X123238107Y-88477785I-2517936J0D01*
G01*
X116787712Y-97048487D02*
G75*
G02X119751016Y-97656025I1982248J2137918D01*
G01*
X116809172Y-97068187D02*
X119751016Y-97656025D01*
X121287895Y-94910569D02*
G75*
G03X121287895Y-94910569I-2517935J0D01*
G01*
X116585096Y-104084888D02*
G75*
G02X119610000Y-104100000I1524904J2484888D01*
G01*
X116610000Y-104100000D02*
X119610000Y-104100000D01*
X120627936Y-101600000D02*
G75*
G03X120627936Y-101600000I-2517936J0D01*
G01*
X117756747Y-111023183D02*
G75*
G02X120726978Y-110450467I1013212J2733752D01*
G01*
X117784113Y-111033170D02*
X120726978Y-110450467D01*
X121287895Y-108289431D02*
G75*
G03X121287895Y-108289431I-2517936J0D01*
G01*
X120262268Y-117601508D02*
G75*
G02X123062699Y-116457889I457903J2879293D01*
G01*
X120291060Y-117605939D02*
X123062699Y-116457889D01*
X123238107Y-114722215D02*
G75*
G03X123238107Y-114722215I-2517936J0D01*
G01*
X123999904Y-123563285D02*
G75*
G02X126524871Y-121897507I-110075J2913397D01*
G01*
X124029008Y-123562040D02*
X126524871Y-121897507D01*
X126407764Y-120649888D02*
G75*
G03X126407764Y-120649888I-2517935J0D01*
G01*
X128832119Y-128682043D02*
G75*
G02X130981736Y-126553798I-678811J2835352D01*
G01*
X128860415Y-128675119D02*
X130981736Y-126553798D01*
X130671244Y-125846691D02*
G75*
G03X130671244Y-125846691I-2517936J0D01*
G01*
X134566719Y-132759675D02*
G75*
G02X136262017Y-130254434I-1216606J2649503D01*
G01*
X134593130Y-132747387D02*
X136262017Y-130254434D01*
X135868049Y-130110172D02*
G75*
G03X135868049Y-130110172I-2517936J0D01*
G01*
X140989967Y-135639582D02*
G75*
G02X142161509Y-132850718I-1712182J2359753D01*
G01*
X141013459Y-135622357D02*
X142161509Y-132850718D01*
X141795721Y-133279829D02*
G75*
G03X141795721Y-133279829I-2517936J0D01*
G01*
X147848487Y-137212288D02*
G75*
G02X148456025Y-134248984I-2137918J1982248D01*
G01*
X147868187Y-137190828D02*
X148456025Y-134248984D01*
X148228504Y-135230040D02*
G75*
G03X148228504Y-135230040I-2517935J0D01*
G01*
X153836476Y-140406381D02*
X153836476Y-139406381D01*
X153598381Y-139406381D01*
X153455523Y-139454000D01*
X153360285Y-139549238D01*
X153312666Y-139644476D01*
X153265047Y-139834952D01*
X153265047Y-139977810D01*
X153312666Y-140168286D01*
X153360285Y-140263524D01*
X153455523Y-140358762D01*
X153598381Y-140406381D01*
X153836476Y-140406381D01*
X152931714Y-139406381D02*
X152312666Y-139406381D01*
X152646000Y-139787333D01*
X152503142Y-139787333D01*
X152407904Y-139834952D01*
X152360285Y-139882571D01*
X152312666Y-139977810D01*
X152312666Y-140215905D01*
X152360285Y-140311143D01*
X152407904Y-140358762D01*
X152503142Y-140406381D01*
X152788857Y-140406381D01*
X152884095Y-140358762D01*
X152931714Y-140311143D01*
X151693619Y-139406381D02*
X151598380Y-139406381D01*
X151503142Y-139454000D01*
X151455523Y-139501619D01*
X151407904Y-139596857D01*
X151360285Y-139787333D01*
X151360285Y-140025429D01*
X151407904Y-140215905D01*
X151455523Y-140311143D01*
X151503142Y-140358762D01*
X151598380Y-140406381D01*
X151693619Y-140406381D01*
X151788857Y-140358762D01*
X151836476Y-140311143D01*
X151884095Y-140215905D01*
X151931714Y-140025429D01*
X151931714Y-139787333D01*
X151884095Y-139596857D01*
X151836476Y-139501619D01*
X151788857Y-139454000D01*
X151693619Y-139406381D01*
X150979333Y-139501619D02*
X150931714Y-139454000D01*
X150836476Y-139406381D01*
X150598380Y-139406381D01*
X150503142Y-139454000D01*
X150455523Y-139501619D01*
X150407904Y-139596857D01*
X150407904Y-139692095D01*
X150455523Y-139834952D01*
X151026952Y-140406381D01*
X150407904Y-140406381D01*
X155836905Y-138247381D02*
X155836905Y-137247381D01*
X155265476Y-138247381D02*
X155694048Y-137675952D01*
X155265476Y-137247381D02*
X155836905Y-137818810D01*
X161375786Y-139381395D02*
X161181552Y-138400440D01*
X160947991Y-138446686D01*
X160817103Y-138521146D01*
X160742177Y-138633069D01*
X160713964Y-138735742D01*
X160704249Y-138931840D01*
X160731997Y-139071977D01*
X160815706Y-139249576D01*
X160880916Y-139333751D01*
X160992839Y-139408677D01*
X161142226Y-139427641D01*
X161375786Y-139381395D01*
X160294021Y-138576176D02*
X159686762Y-138696416D01*
X160087742Y-139005368D01*
X159947605Y-139033116D01*
X159863430Y-139098326D01*
X159825967Y-139154288D01*
X159797754Y-139256962D01*
X159844000Y-139490523D01*
X159909210Y-139574698D01*
X159965172Y-139612161D01*
X160067845Y-139640374D01*
X160348119Y-139584879D01*
X160432294Y-139519668D01*
X160469757Y-139463707D01*
X159079505Y-138816656D02*
X158986080Y-138835155D01*
X158901905Y-138900366D01*
X158864442Y-138956327D01*
X158836228Y-139059000D01*
X158826513Y-139255098D01*
X158872760Y-139488659D01*
X158956469Y-139666259D01*
X159021679Y-139750434D01*
X159077641Y-139787896D01*
X159180314Y-139816110D01*
X159273739Y-139797611D01*
X159357914Y-139732401D01*
X159395377Y-139676439D01*
X159423591Y-139573766D01*
X159433306Y-139377668D01*
X159387060Y-139144107D01*
X159303351Y-138966508D01*
X159238140Y-138882333D01*
X159182179Y-138844870D01*
X159079505Y-138816656D01*
X157976445Y-139374873D02*
X158105935Y-140028843D01*
X158136013Y-138954929D02*
X158508312Y-139609366D01*
X157901054Y-139729606D01*
X162918765Y-136874960D02*
X162724531Y-135894004D01*
X162358219Y-136985951D02*
X162667638Y-136342161D01*
X162163984Y-136004996D02*
X162835522Y-136454551D01*
X168577690Y-136902705D02*
X168195006Y-135978826D01*
X167975035Y-136069941D01*
X167861275Y-136168604D01*
X167809732Y-136293039D01*
X167802184Y-136399250D01*
X167831082Y-136593450D01*
X167885751Y-136725434D01*
X168002638Y-136883188D01*
X168083078Y-136952953D01*
X168207512Y-137004496D01*
X168357719Y-136993820D01*
X168577690Y-136902705D01*
X167359115Y-136325063D02*
X166787190Y-136561963D01*
X167240934Y-136786355D01*
X167108950Y-136841024D01*
X167039185Y-136921465D01*
X167013414Y-136983682D01*
X167005866Y-137089894D01*
X167096981Y-137309865D01*
X167177421Y-137379631D01*
X167239638Y-137405402D01*
X167345850Y-137412950D01*
X167609816Y-137303612D01*
X167679582Y-137223172D01*
X167705353Y-137160954D01*
X166215265Y-136798862D02*
X166127275Y-136835308D01*
X166057510Y-136915748D01*
X166031739Y-136977966D01*
X166024191Y-137084177D01*
X166053088Y-137278377D01*
X166144204Y-137498349D01*
X166261090Y-137656103D01*
X166341530Y-137725868D01*
X166403747Y-137751639D01*
X166509959Y-137759188D01*
X166597948Y-137722741D01*
X166667714Y-137642301D01*
X166693485Y-137580084D01*
X166701033Y-137473872D01*
X166672135Y-137279672D01*
X166581020Y-137059700D01*
X166464134Y-136901947D01*
X166383693Y-136832181D01*
X166321476Y-136806410D01*
X166215265Y-136798862D01*
X165115407Y-137254438D02*
X165291385Y-137181545D01*
X165397597Y-137189093D01*
X165459814Y-137214865D01*
X165602471Y-137310401D01*
X165719358Y-137468155D01*
X165865142Y-137820110D01*
X165857594Y-137926321D01*
X165831823Y-137988538D01*
X165762057Y-138068979D01*
X165586079Y-138141871D01*
X165479868Y-138134323D01*
X165417651Y-138108552D01*
X165337210Y-138038786D01*
X165246095Y-137818815D01*
X165253643Y-137712603D01*
X165279414Y-137650386D01*
X165349180Y-137569945D01*
X165525158Y-137497053D01*
X165631369Y-137504601D01*
X165693586Y-137530372D01*
X165774027Y-137600139D01*
X169599631Y-134142519D02*
X169216948Y-133218639D01*
X169071700Y-134361195D02*
X169248972Y-133669256D01*
X168689016Y-133437316D02*
X169435624Y-133746571D01*
X175150860Y-133070572D02*
X174596015Y-132238618D01*
X174397931Y-132370724D01*
X174305501Y-132489604D01*
X174279109Y-132621680D01*
X174292335Y-132727335D01*
X174358403Y-132912224D01*
X174437667Y-133031075D01*
X174582968Y-133163121D01*
X174675427Y-133215934D01*
X174807503Y-133242325D01*
X174952775Y-133202678D01*
X175150860Y-133070572D01*
X173843295Y-132740620D02*
X173328275Y-133084095D01*
X173816963Y-133216081D01*
X173698112Y-133295345D01*
X173645299Y-133387805D01*
X173632103Y-133453843D01*
X173645329Y-133559498D01*
X173777435Y-133757582D01*
X173869894Y-133810395D01*
X173935932Y-133823590D01*
X174041587Y-133810365D01*
X174279289Y-133651838D01*
X174332101Y-133559379D01*
X174345297Y-133493341D01*
X172813256Y-133427570D02*
X172734022Y-133480413D01*
X172681209Y-133572872D01*
X172668014Y-133638910D01*
X172681239Y-133744565D01*
X172747307Y-133929453D01*
X172879413Y-134127538D01*
X173024715Y-134259584D01*
X173117174Y-134312397D01*
X173183212Y-134325593D01*
X173288866Y-134312367D01*
X173368101Y-134259524D01*
X173420913Y-134167065D01*
X173434109Y-134101027D01*
X173420884Y-133995372D01*
X173354816Y-133810484D01*
X173222710Y-133612399D01*
X173077408Y-133480353D01*
X172984949Y-133427540D01*
X172918911Y-133414345D01*
X172813256Y-133427570D01*
X172298326Y-134286124D02*
X172351139Y-134193665D01*
X172364334Y-134127627D01*
X172351109Y-134021972D01*
X172324688Y-133982355D01*
X172232229Y-133929543D01*
X172166191Y-133916347D01*
X172060536Y-133929572D01*
X171902068Y-134035257D01*
X171849255Y-134127717D01*
X171836060Y-134193755D01*
X171849285Y-134299409D01*
X171875706Y-134339026D01*
X171968165Y-134391839D01*
X172034203Y-134405034D01*
X172139858Y-134391809D01*
X172298326Y-134286124D01*
X172403981Y-134272898D01*
X172470019Y-134286094D01*
X172562479Y-134338907D01*
X172668163Y-134497375D01*
X172681389Y-134603029D01*
X172668193Y-134669067D01*
X172615380Y-134761526D01*
X172456912Y-134867212D01*
X172351257Y-134880437D01*
X172285219Y-134867241D01*
X172192760Y-134814429D01*
X172087076Y-134655962D01*
X172073850Y-134550306D01*
X172087046Y-134484268D01*
X172139858Y-134391809D01*
X175617215Y-130164457D02*
X175062371Y-129332503D01*
X175141812Y-130481511D02*
X175181310Y-129768317D01*
X174586968Y-129649557D02*
X175379425Y-129807905D01*
X180855997Y-128024514D02*
X180148890Y-127317407D01*
X179980531Y-127485765D01*
X179913187Y-127620453D01*
X179913187Y-127755140D01*
X179946859Y-127856155D01*
X180047874Y-128024514D01*
X180148890Y-128125529D01*
X180317249Y-128226545D01*
X180418264Y-128260216D01*
X180552951Y-128260216D01*
X180687638Y-128192872D01*
X180855997Y-128024514D01*
X179509127Y-127957170D02*
X179071394Y-128394903D01*
X179576470Y-128428574D01*
X179475454Y-128529590D01*
X179441782Y-128630605D01*
X179441782Y-128697949D01*
X179475455Y-128798965D01*
X179643813Y-128967323D01*
X179744829Y-129000995D01*
X179812172Y-129000995D01*
X179913187Y-128967323D01*
X180115218Y-128765292D01*
X180148890Y-128664277D01*
X180148890Y-128596934D01*
X179105065Y-129775445D02*
X179509127Y-129371384D01*
X179307096Y-129573414D02*
X178599990Y-128866307D01*
X178768348Y-128899979D01*
X178903035Y-128899979D01*
X179004050Y-128866307D01*
X177960226Y-129506071D02*
X177892882Y-129573415D01*
X177859210Y-129674430D01*
X177859210Y-129741773D01*
X177892882Y-129842789D01*
X177993897Y-130011147D01*
X178162256Y-130179506D01*
X178330615Y-130280522D01*
X178431630Y-130314193D01*
X178498974Y-130314193D01*
X178599989Y-130280522D01*
X178667333Y-130213177D01*
X178701005Y-130112162D01*
X178701005Y-130044819D01*
X178667333Y-129943804D01*
X178566318Y-129775445D01*
X178397958Y-129607086D01*
X178229600Y-129506071D01*
X178128585Y-129472399D01*
X178061241Y-129472399D01*
X177960226Y-129506071D01*
X180743870Y-125083353D02*
X180036764Y-124376246D01*
X180339809Y-125487414D02*
X180238794Y-124780307D01*
X179632702Y-124780307D02*
X180440825Y-124780307D01*
X185462319Y-121968641D02*
X184631335Y-121412346D01*
X184498883Y-121610199D01*
X184458983Y-121755402D01*
X184485143Y-121887524D01*
X184537795Y-121980075D01*
X184669587Y-122125606D01*
X184788300Y-122205078D01*
X184973073Y-122271468D01*
X185078704Y-122284878D01*
X185210826Y-122258717D01*
X185329868Y-122166495D01*
X185462319Y-121968641D01*
X184128019Y-122164189D02*
X183783646Y-122678608D01*
X184285643Y-122613535D01*
X184206172Y-122732247D01*
X184192762Y-122837879D01*
X184205842Y-122903940D01*
X184258494Y-122996492D01*
X184456348Y-123128943D01*
X184561979Y-123142353D01*
X184628040Y-123129272D01*
X184720591Y-123076621D01*
X184879533Y-122839196D01*
X184892943Y-122733565D01*
X184879863Y-122667504D01*
X184084825Y-124026318D02*
X184402708Y-123551469D01*
X184243767Y-123788893D02*
X183412782Y-123232597D01*
X183584475Y-123232927D01*
X183716597Y-123206766D01*
X183809148Y-123154115D01*
X183121060Y-123839568D02*
X183054999Y-123852648D01*
X182962448Y-123905299D01*
X182829996Y-124103153D01*
X182816586Y-124208785D01*
X182829666Y-124274846D01*
X182882318Y-124367397D01*
X182961459Y-124420377D01*
X183106661Y-124460277D01*
X183899393Y-124303312D01*
X183555019Y-124817731D01*
X184781054Y-119105273D02*
X183950070Y-118548977D01*
X184463171Y-119580121D02*
X184226735Y-118906101D01*
X183632186Y-119023826D02*
X184424918Y-118866860D01*
X188802137Y-115123429D02*
X187878257Y-114740745D01*
X187787142Y-114960716D01*
X187776467Y-115110923D01*
X187828009Y-115235357D01*
X187897775Y-115315797D01*
X188055529Y-115432684D01*
X188187512Y-115487353D01*
X188381712Y-115516251D01*
X188487924Y-115508703D01*
X188612358Y-115457160D01*
X188711022Y-115343400D01*
X188802137Y-115123429D01*
X187532020Y-115576636D02*
X187295120Y-116148562D01*
X187774635Y-115986386D01*
X187719966Y-116118369D01*
X187727514Y-116224581D01*
X187753286Y-116286798D01*
X187823052Y-116367238D01*
X188043023Y-116458353D01*
X188149234Y-116450805D01*
X188211452Y-116425034D01*
X188291892Y-116355269D01*
X188401230Y-116091302D01*
X188393682Y-115985091D01*
X188367911Y-115922874D01*
X187854539Y-117411131D02*
X188073216Y-116883199D01*
X187963878Y-117147164D02*
X187039998Y-116764481D01*
X187208427Y-116731162D01*
X187332861Y-116679619D01*
X187413302Y-116609854D01*
X186910605Y-117947905D02*
X187526525Y-118203028D01*
X186649767Y-117582149D02*
X187400796Y-117635523D01*
X187163896Y-118207449D01*
X187573011Y-112449059D02*
X186649132Y-112066376D01*
X187354335Y-112976991D02*
X186990411Y-112362365D01*
X186430455Y-112594307D02*
X187177063Y-112285052D01*
X190740342Y-107765769D02*
X189759727Y-107569823D01*
X189713073Y-107803302D01*
X189731777Y-107952721D01*
X189806507Y-108064775D01*
X189890568Y-108130132D01*
X190068021Y-108214151D01*
X190208109Y-108242144D01*
X190404224Y-108232771D01*
X190506946Y-108204736D01*
X190619000Y-108130006D01*
X190693688Y-107999248D01*
X190740342Y-107765769D01*
X189582442Y-108457046D02*
X189461142Y-109064093D01*
X189900025Y-108811867D01*
X189872032Y-108951956D01*
X189900067Y-109054678D01*
X189937432Y-109110705D01*
X190021494Y-109176062D01*
X190254973Y-109222716D01*
X190357696Y-109194682D01*
X190413723Y-109157317D01*
X190479080Y-109073256D01*
X190535065Y-108793079D01*
X190507030Y-108690357D01*
X190469665Y-108634330D01*
X190255142Y-110193958D02*
X190367111Y-109633606D01*
X190311126Y-109913782D02*
X189330512Y-109717835D01*
X189489261Y-109652436D01*
X189601314Y-109577706D01*
X189666672Y-109493645D01*
X189106573Y-110838539D02*
X189143896Y-110651754D01*
X189209254Y-110567693D01*
X189265280Y-110530328D01*
X189424030Y-110464929D01*
X189620144Y-110455556D01*
X189993712Y-110530202D01*
X190077773Y-110595559D01*
X190115138Y-110651586D01*
X190143173Y-110754309D01*
X190105849Y-110941093D01*
X190040492Y-111025154D01*
X189984465Y-111062519D01*
X189881743Y-111090554D01*
X189648263Y-111043900D01*
X189564201Y-110978542D01*
X189526836Y-110922516D01*
X189498802Y-110819793D01*
X189536125Y-110633009D01*
X189601482Y-110548948D01*
X189657509Y-110511582D01*
X189760233Y-110483548D01*
X189015171Y-105381070D02*
X188034556Y-105185124D01*
X188903201Y-105941422D02*
X188426827Y-105409189D01*
X187922587Y-105745476D02*
X188594908Y-105297094D01*
X191206381Y-100163524D02*
X190206381Y-100163524D01*
X190206381Y-100401619D01*
X190254000Y-100544477D01*
X190349238Y-100639715D01*
X190444476Y-100687334D01*
X190634952Y-100734953D01*
X190777810Y-100734953D01*
X190968286Y-100687334D01*
X191063524Y-100639715D01*
X191158762Y-100544477D01*
X191206381Y-100401619D01*
X191206381Y-100163524D01*
X190206381Y-101068286D02*
X190206381Y-101687334D01*
X190587333Y-101354000D01*
X190587333Y-101496858D01*
X190634952Y-101592096D01*
X190682571Y-101639715D01*
X190777810Y-101687334D01*
X191015905Y-101687334D01*
X191111143Y-101639715D01*
X191158762Y-101592096D01*
X191206381Y-101496858D01*
X191206381Y-101211143D01*
X191158762Y-101115905D01*
X191111143Y-101068286D01*
X191206381Y-102639715D02*
X191206381Y-102068286D01*
X191206381Y-102354000D02*
X190206381Y-102354000D01*
X190349238Y-102258762D01*
X190444476Y-102163524D01*
X190492095Y-102068286D01*
X190634952Y-103211143D02*
X190587333Y-103115905D01*
X190539714Y-103068286D01*
X190444476Y-103020667D01*
X190396857Y-103020667D01*
X190301619Y-103068286D01*
X190254000Y-103115905D01*
X190206381Y-103211143D01*
X190206381Y-103401620D01*
X190254000Y-103496858D01*
X190301619Y-103544477D01*
X190396857Y-103592096D01*
X190444476Y-103592096D01*
X190539714Y-103544477D01*
X190587333Y-103496858D01*
X190634952Y-103401620D01*
X190634952Y-103211143D01*
X190682571Y-103115905D01*
X190730190Y-103068286D01*
X190825429Y-103020667D01*
X191015905Y-103020667D01*
X191111143Y-103068286D01*
X191158762Y-103115905D01*
X191206381Y-103211143D01*
X191206381Y-103401620D01*
X191158762Y-103496858D01*
X191111143Y-103544477D01*
X191015905Y-103592096D01*
X190825429Y-103592096D01*
X190730190Y-103544477D01*
X190682571Y-103496858D01*
X190634952Y-103401620D01*
X189047381Y-98163095D02*
X188047381Y-98163095D01*
X189047381Y-98734524D02*
X188475952Y-98305952D01*
X188047381Y-98734524D02*
X188618810Y-98163095D01*
X189950561Y-96116512D02*
X190931516Y-95922278D01*
X190885270Y-95688717D01*
X190810810Y-95557829D01*
X190698887Y-95482903D01*
X190596214Y-95454690D01*
X190400116Y-95444975D01*
X190259979Y-95472723D01*
X190082380Y-95556432D01*
X189998205Y-95621642D01*
X189923279Y-95733565D01*
X189904315Y-95882952D01*
X189950561Y-96116512D01*
X190755780Y-95034747D02*
X190635540Y-94427488D01*
X190326588Y-94828468D01*
X190298840Y-94688331D01*
X190233630Y-94604156D01*
X190177668Y-94566693D01*
X190074994Y-94538480D01*
X189841433Y-94584726D01*
X189757258Y-94649936D01*
X189719795Y-94705898D01*
X189691582Y-94808571D01*
X189747077Y-95088845D01*
X189812288Y-95173020D01*
X189868249Y-95210483D01*
X190468122Y-94072290D02*
X190505585Y-94016329D01*
X190533798Y-93913655D01*
X190487552Y-93680094D01*
X190422341Y-93595919D01*
X190366380Y-93558456D01*
X190263706Y-93530242D01*
X190170282Y-93548741D01*
X190039395Y-93623201D01*
X189589840Y-94294738D01*
X189469600Y-93687480D01*
X190330315Y-92885988D02*
X190311816Y-92792563D01*
X190246605Y-92708388D01*
X190190644Y-92670925D01*
X190087971Y-92642711D01*
X189891873Y-92632996D01*
X189658311Y-92679243D01*
X189480712Y-92762952D01*
X189396537Y-92828162D01*
X189359074Y-92884124D01*
X189330861Y-92986797D01*
X189349359Y-93080222D01*
X189414570Y-93164397D01*
X189470531Y-93201860D01*
X189573205Y-93230074D01*
X189769303Y-93239789D01*
X190002864Y-93193543D01*
X190180463Y-93109833D01*
X190264638Y-93044623D01*
X190302101Y-92988662D01*
X190330315Y-92885988D01*
X186889171Y-91770805D02*
X187870127Y-91576571D01*
X186778180Y-91210259D02*
X187421970Y-91519678D01*
X187759135Y-91016024D02*
X187309580Y-91687562D01*
X188160649Y-88892140D02*
X189084528Y-88509456D01*
X188993413Y-88289485D01*
X188894750Y-88175725D01*
X188770315Y-88124182D01*
X188664104Y-88116634D01*
X188469904Y-88145532D01*
X188337920Y-88200201D01*
X188180166Y-88317088D01*
X188110401Y-88397528D01*
X188058858Y-88521962D01*
X188069534Y-88672169D01*
X188160649Y-88892140D01*
X188738291Y-87673565D02*
X188501391Y-87101640D01*
X188276999Y-87555384D01*
X188222330Y-87423400D01*
X188141889Y-87353635D01*
X188079672Y-87327864D01*
X187973460Y-87320316D01*
X187753489Y-87411431D01*
X187683723Y-87491871D01*
X187657952Y-87554088D01*
X187650404Y-87660300D01*
X187759742Y-87924266D01*
X187840182Y-87994032D01*
X187902400Y-88019803D01*
X188267619Y-86786132D02*
X188293390Y-86723915D01*
X188300938Y-86617703D01*
X188209823Y-86397731D01*
X188129383Y-86327966D01*
X188067165Y-86302194D01*
X187960954Y-86294646D01*
X187872966Y-86331092D01*
X187759206Y-86429756D01*
X187449951Y-87176363D01*
X187213051Y-86604438D01*
X187903158Y-85906247D02*
X187928930Y-85844029D01*
X187936478Y-85737818D01*
X187845362Y-85517846D01*
X187764922Y-85448080D01*
X187702705Y-85422309D01*
X187596494Y-85414761D01*
X187508505Y-85451207D01*
X187394745Y-85549870D01*
X187085490Y-86296478D01*
X186848591Y-85724552D01*
X184307081Y-85230543D02*
X185230961Y-84847860D01*
X184088405Y-84702612D02*
X184780344Y-84879884D01*
X185012284Y-84319928D02*
X184703029Y-85066536D01*
X184993754Y-82163940D02*
X185825708Y-81609095D01*
X185693602Y-81411011D01*
X185574722Y-81318581D01*
X185442646Y-81292189D01*
X185336991Y-81305415D01*
X185152102Y-81371483D01*
X185033251Y-81450747D01*
X184901205Y-81596048D01*
X184848392Y-81688507D01*
X184822001Y-81820583D01*
X184861648Y-81965855D01*
X184993754Y-82163940D01*
X185323706Y-80856375D02*
X184980231Y-80341355D01*
X184848245Y-80830043D01*
X184768981Y-80711192D01*
X184676521Y-80658379D01*
X184610483Y-80645183D01*
X184504828Y-80658409D01*
X184306744Y-80790515D01*
X184253931Y-80882974D01*
X184240736Y-80949012D01*
X184253961Y-81054667D01*
X184412488Y-81292369D01*
X184504947Y-81345181D01*
X184570985Y-81358377D01*
X184689628Y-80077263D02*
X184702824Y-80011225D01*
X184689598Y-79905570D01*
X184557492Y-79707485D01*
X184465033Y-79654673D01*
X184398995Y-79641477D01*
X184293340Y-79654702D01*
X184214106Y-79707545D01*
X184121677Y-79826425D01*
X183963329Y-80618882D01*
X183619853Y-80103862D01*
X183698909Y-79020862D02*
X183144272Y-79390759D01*
X184147949Y-79007578D02*
X183685802Y-79601980D01*
X183342327Y-79086960D01*
X180502369Y-79320573D02*
X181334323Y-78765729D01*
X180185315Y-78845170D02*
X180898509Y-78884668D01*
X181017269Y-78290326D02*
X180858921Y-79082783D01*
X180575444Y-76174461D02*
X181282551Y-75467354D01*
X181114193Y-75298995D01*
X180979505Y-75231651D01*
X180844818Y-75231651D01*
X180743803Y-75265323D01*
X180575444Y-75366338D01*
X180474429Y-75467354D01*
X180373413Y-75635713D01*
X180339742Y-75736728D01*
X180339742Y-75871415D01*
X180407086Y-76006102D01*
X180575444Y-76174461D01*
X180642788Y-74827591D02*
X180205055Y-74389858D01*
X180171384Y-74894934D01*
X180070368Y-74793918D01*
X179969353Y-74760246D01*
X179902009Y-74760246D01*
X179800993Y-74793919D01*
X179632635Y-74962277D01*
X179598963Y-75063293D01*
X179598963Y-75130636D01*
X179632635Y-75231651D01*
X179834666Y-75433682D01*
X179935681Y-75467354D01*
X180003024Y-75467354D01*
X179868338Y-74187827D02*
X179868338Y-74120484D01*
X179834666Y-74019469D01*
X179666307Y-73851109D01*
X179565291Y-73817438D01*
X179497948Y-73817438D01*
X179396933Y-73851109D01*
X179329589Y-73918453D01*
X179262246Y-74053140D01*
X179262246Y-74861262D01*
X178824513Y-74423529D01*
X178925528Y-73110331D02*
X179060216Y-73245018D01*
X179093887Y-73346034D01*
X179093887Y-73413377D01*
X179060216Y-73581736D01*
X178959201Y-73750094D01*
X178689826Y-74019469D01*
X178588811Y-74053140D01*
X178521467Y-74053140D01*
X178420452Y-74019469D01*
X178285765Y-73884781D01*
X178252093Y-73783766D01*
X178252093Y-73716422D01*
X178285765Y-73615407D01*
X178454123Y-73447049D01*
X178555139Y-73413376D01*
X178622483Y-73413376D01*
X178723498Y-73447048D01*
X178858185Y-73581736D01*
X178891857Y-73682751D01*
X178891857Y-73750094D01*
X178858185Y-73851110D01*
X175613979Y-74266282D02*
X176321086Y-73559176D01*
X175209918Y-73862221D02*
X175917025Y-73761206D01*
X175917025Y-73155114D02*
X175917025Y-73963237D01*
X175074845Y-71170333D02*
X175631140Y-70339349D01*
X175433287Y-70206897D01*
X175288084Y-70166997D01*
X175155962Y-70193157D01*
X175063411Y-70245809D01*
X174917880Y-70377601D01*
X174838408Y-70496314D01*
X174772018Y-70681087D01*
X174758608Y-70786718D01*
X174784769Y-70918840D01*
X174876991Y-71037882D01*
X175074845Y-71170333D01*
X174879297Y-69836033D02*
X174364878Y-69491660D01*
X174429951Y-69993657D01*
X174311239Y-69914186D01*
X174205607Y-69900776D01*
X174139546Y-69913856D01*
X174046994Y-69966508D01*
X173914543Y-70164362D01*
X173901133Y-70269993D01*
X173914214Y-70336054D01*
X173966865Y-70428605D01*
X174204290Y-70587547D01*
X174309921Y-70600957D01*
X174375982Y-70587877D01*
X173995332Y-69358879D02*
X173982252Y-69292818D01*
X173929601Y-69200267D01*
X173731747Y-69067815D01*
X173626115Y-69054405D01*
X173560054Y-69067486D01*
X173467503Y-69120137D01*
X173414523Y-69199278D01*
X173374623Y-69344480D01*
X173531588Y-70137212D01*
X173017168Y-69792839D01*
X172860204Y-69000107D02*
X172965836Y-69013517D01*
X173031897Y-69000437D01*
X173124448Y-68947786D01*
X173150938Y-68908215D01*
X173164348Y-68802583D01*
X173151267Y-68736523D01*
X173098616Y-68643971D01*
X172940333Y-68538010D01*
X172834701Y-68524600D01*
X172768640Y-68537680D01*
X172676089Y-68590332D01*
X172649599Y-68629902D01*
X172636189Y-68735534D01*
X172649270Y-68801595D01*
X172701921Y-68894146D01*
X172860204Y-69000107D01*
X172912855Y-69092658D01*
X172925936Y-69158719D01*
X172912525Y-69264352D01*
X172806564Y-69422634D01*
X172714013Y-69475285D01*
X172647952Y-69488366D01*
X172542321Y-69474956D01*
X172384037Y-69368994D01*
X172331386Y-69276443D01*
X172318306Y-69210382D01*
X172331716Y-69104751D01*
X172437677Y-68946468D01*
X172530228Y-68893816D01*
X172596289Y-68880736D01*
X172701921Y-68894146D01*
X169837236Y-70262182D02*
X170393532Y-69431198D01*
X169362388Y-69944299D02*
X170036408Y-69707863D01*
X169918683Y-69113314D02*
X170075649Y-69906046D01*
X168700783Y-67327589D02*
X169083467Y-66403709D01*
X168863496Y-66312594D01*
X168713289Y-66301919D01*
X168588855Y-66353461D01*
X168508415Y-66423227D01*
X168391528Y-66580981D01*
X168336859Y-66712964D01*
X168307961Y-66907164D01*
X168315509Y-67013376D01*
X168367052Y-67137810D01*
X168480812Y-67236474D01*
X168700783Y-67327589D01*
X168247576Y-66057472D02*
X167675650Y-65820572D01*
X167837826Y-66300087D01*
X167705843Y-66245418D01*
X167599631Y-66252966D01*
X167537414Y-66278738D01*
X167456974Y-66348504D01*
X167365859Y-66568475D01*
X167373407Y-66674686D01*
X167399178Y-66736904D01*
X167468943Y-66817344D01*
X167732910Y-66926682D01*
X167839121Y-66919134D01*
X167901338Y-66893363D01*
X167367690Y-65693011D02*
X166795765Y-65456112D01*
X166957941Y-65935627D01*
X166825958Y-65880958D01*
X166719746Y-65888506D01*
X166657529Y-65914277D01*
X166577088Y-65984043D01*
X166485973Y-66204015D01*
X166493522Y-66310226D01*
X166519293Y-66372443D01*
X166589058Y-66452883D01*
X166853024Y-66562222D01*
X166959236Y-66554674D01*
X167021453Y-66528902D01*
X166223840Y-65219213D02*
X166135850Y-65182766D01*
X166029639Y-65190315D01*
X165967422Y-65216086D01*
X165886982Y-65285851D01*
X165770095Y-65443605D01*
X165678980Y-65663577D01*
X165650082Y-65857777D01*
X165657630Y-65963989D01*
X165683402Y-66026206D01*
X165753167Y-66106646D01*
X165841156Y-66143092D01*
X165947368Y-66135544D01*
X166009585Y-66109773D01*
X166090025Y-66040008D01*
X166206912Y-65882254D01*
X166298027Y-65662282D01*
X166326925Y-65468082D01*
X166319377Y-65361870D01*
X166293605Y-65299653D01*
X166223840Y-65219213D01*
X163386759Y-67463333D02*
X163769442Y-66539454D01*
X162858827Y-67244657D02*
X163473453Y-66880733D01*
X163241511Y-66320777D02*
X163550766Y-67067385D01*
X161749155Y-64870353D02*
X161960480Y-63892937D01*
X161727762Y-63842622D01*
X161578067Y-63858976D01*
X161464854Y-63931937D01*
X161398184Y-64014961D01*
X161311388Y-64191072D01*
X161281199Y-64330704D01*
X161287490Y-64526941D01*
X161313907Y-64630091D01*
X161386868Y-64743304D01*
X161516437Y-64820037D01*
X161749155Y-64870353D01*
X161076151Y-63701738D02*
X160471083Y-63570918D01*
X160716385Y-64013708D01*
X160576753Y-63983519D01*
X160473603Y-64009936D01*
X160416996Y-64046417D01*
X160350326Y-64129442D01*
X160300011Y-64362160D01*
X160326428Y-64465310D01*
X160362909Y-64521917D01*
X160445933Y-64588586D01*
X160725195Y-64648965D01*
X160828346Y-64622548D01*
X160884952Y-64586067D01*
X160145278Y-63500477D02*
X159540211Y-63369656D01*
X159785512Y-63812447D01*
X159645881Y-63782257D01*
X159542731Y-63808675D01*
X159486124Y-63845155D01*
X159419454Y-63928180D01*
X159369139Y-64160898D01*
X159395556Y-64264048D01*
X159432037Y-64320655D01*
X159515061Y-64387325D01*
X159794323Y-64447703D01*
X159897473Y-64421286D01*
X159954080Y-64384805D01*
X159147736Y-63382239D02*
X159111256Y-63325632D01*
X159028232Y-63258963D01*
X158795513Y-63208647D01*
X158692363Y-63235064D01*
X158635756Y-63271545D01*
X158569087Y-63354569D01*
X158548960Y-63447656D01*
X158565315Y-63597350D01*
X159003081Y-64276631D01*
X158398014Y-64145811D01*
X156545037Y-65954068D02*
X156756362Y-64976653D01*
X155986513Y-65833311D02*
X156526163Y-65365355D01*
X156197838Y-64855895D02*
X156635604Y-65535176D01*
X154344476Y-63698381D02*
X154344476Y-62698381D01*
X154106381Y-62698381D01*
X153963523Y-62746000D01*
X153868285Y-62841238D01*
X153820666Y-62936476D01*
X153773047Y-63126952D01*
X153773047Y-63269810D01*
X153820666Y-63460286D01*
X153868285Y-63555524D01*
X153963523Y-63650762D01*
X154106381Y-63698381D01*
X154344476Y-63698381D01*
X153439714Y-62698381D02*
X152820666Y-62698381D01*
X153154000Y-63079333D01*
X153011142Y-63079333D01*
X152915904Y-63126952D01*
X152868285Y-63174571D01*
X152820666Y-63269810D01*
X152820666Y-63507905D01*
X152868285Y-63603143D01*
X152915904Y-63650762D01*
X153011142Y-63698381D01*
X153296857Y-63698381D01*
X153392095Y-63650762D01*
X153439714Y-63603143D01*
X152487333Y-62698381D02*
X151868285Y-62698381D01*
X152201619Y-63079333D01*
X152058761Y-63079333D01*
X151963523Y-63126952D01*
X151915904Y-63174571D01*
X151868285Y-63269810D01*
X151868285Y-63507905D01*
X151915904Y-63603143D01*
X151963523Y-63650762D01*
X152058761Y-63698381D01*
X152344476Y-63698381D01*
X152439714Y-63650762D01*
X152487333Y-63603143D01*
X151011142Y-63031714D02*
X151011142Y-63698381D01*
X151249238Y-62650762D02*
X151487333Y-63365048D01*
X150868285Y-63365048D01*
X149486905Y-65857381D02*
X149486905Y-64857381D01*
X148915476Y-65857381D02*
X149344048Y-65285952D01*
X148915476Y-64857381D02*
X149486905Y-65428810D01*
X146916512Y-64049439D02*
X146722278Y-63068484D01*
X146488717Y-63114730D01*
X146357829Y-63189190D01*
X146282903Y-63301113D01*
X146254690Y-63403786D01*
X146244975Y-63599884D01*
X146272723Y-63740021D01*
X146356432Y-63917620D01*
X146421642Y-64001795D01*
X146533565Y-64076721D01*
X146682952Y-64095685D01*
X146916512Y-64049439D01*
X145834747Y-63244220D02*
X145227488Y-63364460D01*
X145628468Y-63673412D01*
X145488331Y-63701160D01*
X145404156Y-63766370D01*
X145366693Y-63822332D01*
X145338480Y-63925006D01*
X145384726Y-64158567D01*
X145449936Y-64242742D01*
X145505898Y-64280205D01*
X145608571Y-64308418D01*
X145888845Y-64252923D01*
X145973020Y-64187712D01*
X146010483Y-64131751D01*
X144900504Y-63429205D02*
X144293245Y-63549445D01*
X144694225Y-63858397D01*
X144554088Y-63886145D01*
X144469913Y-63951356D01*
X144432450Y-64007317D01*
X144404237Y-64109991D01*
X144450483Y-64343552D01*
X144515693Y-64427727D01*
X144571655Y-64465190D01*
X144674328Y-64493403D01*
X144954602Y-64437908D01*
X145038777Y-64372697D01*
X145076240Y-64316736D01*
X143452427Y-63715932D02*
X143639276Y-63678935D01*
X143741949Y-63707148D01*
X143797911Y-63744611D01*
X143919083Y-63866249D01*
X144002792Y-64043848D01*
X144076786Y-64417546D01*
X144048572Y-64520219D01*
X144011109Y-64576181D01*
X143926935Y-64641391D01*
X143740085Y-64678388D01*
X143637412Y-64650175D01*
X143581450Y-64612712D01*
X143516240Y-64528537D01*
X143469993Y-64294976D01*
X143498207Y-64192302D01*
X143535670Y-64136341D01*
X143619845Y-64071130D01*
X143806694Y-64034133D01*
X143909368Y-64062347D01*
X143965329Y-64099809D01*
X144030540Y-64183985D01*
X142570805Y-67110829D02*
X142376571Y-66129873D01*
X142010259Y-67221820D02*
X142319678Y-66578030D01*
X141816024Y-66240865D02*
X142487562Y-66690420D01*
X139692140Y-65839351D02*
X139309456Y-64915472D01*
X139089485Y-65006587D01*
X138975725Y-65105250D01*
X138924182Y-65229685D01*
X138916634Y-65335896D01*
X138945532Y-65530096D01*
X139000201Y-65662080D01*
X139117088Y-65819834D01*
X139197528Y-65889599D01*
X139321962Y-65941142D01*
X139472169Y-65930466D01*
X139692140Y-65839351D01*
X138473565Y-65261709D02*
X137901640Y-65498609D01*
X138355384Y-65723001D01*
X138223400Y-65777670D01*
X138153635Y-65858111D01*
X138127864Y-65920328D01*
X138120316Y-66026540D01*
X138211431Y-66246511D01*
X138291871Y-66316277D01*
X138354088Y-66342048D01*
X138460300Y-66349596D01*
X138724266Y-66240258D01*
X138794032Y-66159818D01*
X138819803Y-66097600D01*
X137593680Y-65626170D02*
X137021754Y-65863069D01*
X137475499Y-66087461D01*
X137343515Y-66142131D01*
X137273750Y-66222571D01*
X137247979Y-66284788D01*
X137240431Y-66391001D01*
X137331546Y-66610972D01*
X137411986Y-66680737D01*
X137474203Y-66706508D01*
X137580415Y-66714057D01*
X137844381Y-66604718D01*
X137914146Y-66524278D01*
X137939917Y-66462061D01*
X136657831Y-66477693D02*
X136727596Y-66397253D01*
X136753367Y-66335036D01*
X136760916Y-66228824D01*
X136742693Y-66184830D01*
X136662252Y-66115065D01*
X136600035Y-66089293D01*
X136493824Y-66081745D01*
X136317846Y-66154638D01*
X136248080Y-66235078D01*
X136222309Y-66297295D01*
X136214761Y-66403506D01*
X136232984Y-66447501D01*
X136313424Y-66517266D01*
X136375641Y-66543037D01*
X136481853Y-66550586D01*
X136657831Y-66477693D01*
X136764042Y-66485241D01*
X136826259Y-66511013D01*
X136906700Y-66580779D01*
X136979592Y-66756756D01*
X136972044Y-66862967D01*
X136946273Y-66925184D01*
X136876507Y-67005625D01*
X136700529Y-67078517D01*
X136594318Y-67070969D01*
X136532101Y-67045198D01*
X136451660Y-66975432D01*
X136378768Y-66799455D01*
X136386316Y-66693243D01*
X136412087Y-66631026D01*
X136481853Y-66550586D01*
X136030543Y-69692919D02*
X135647860Y-68769039D01*
X135502612Y-69911595D02*
X135679884Y-69219656D01*
X135119928Y-68987716D02*
X135866536Y-69296971D01*
X132963940Y-69006246D02*
X132409095Y-68174292D01*
X132211011Y-68306398D01*
X132118581Y-68425278D01*
X132092189Y-68557354D01*
X132105415Y-68663009D01*
X132171483Y-68847898D01*
X132250747Y-68966749D01*
X132396048Y-69098795D01*
X132488507Y-69151608D01*
X132620583Y-69177999D01*
X132765855Y-69138352D01*
X132963940Y-69006246D01*
X131656375Y-68676294D02*
X131141355Y-69019769D01*
X131630043Y-69151755D01*
X131511192Y-69231019D01*
X131458379Y-69323479D01*
X131445183Y-69389517D01*
X131458409Y-69495172D01*
X131590515Y-69693256D01*
X131682974Y-69746069D01*
X131749012Y-69759264D01*
X131854667Y-69746039D01*
X132092369Y-69587512D01*
X132145181Y-69495053D01*
X132158377Y-69429015D01*
X130613199Y-69772668D02*
X130983096Y-70327305D01*
X130599915Y-69323627D02*
X131194317Y-69785775D01*
X130679297Y-70129250D01*
X129833999Y-69891667D02*
X129754765Y-69944510D01*
X129701952Y-70036969D01*
X129688756Y-70103007D01*
X129701982Y-70208662D01*
X129768050Y-70393551D01*
X129900156Y-70591636D01*
X130045457Y-70723682D01*
X130137916Y-70776494D01*
X130203954Y-70789690D01*
X130309609Y-70776464D01*
X130388844Y-70723622D01*
X130441656Y-70631163D01*
X130454852Y-70565125D01*
X130441626Y-70459470D01*
X130375559Y-70274581D01*
X130243452Y-70076496D01*
X130098151Y-69944450D01*
X130005692Y-69891638D01*
X129939654Y-69878442D01*
X129833999Y-69891667D01*
X130120573Y-73497631D02*
X129565729Y-72665677D01*
X129645170Y-73814685D02*
X129684668Y-73101491D01*
X129090326Y-72982731D02*
X129882783Y-73141079D01*
X126974461Y-73424556D02*
X126267354Y-72717449D01*
X126098995Y-72885807D01*
X126031651Y-73020495D01*
X126031651Y-73155182D01*
X126065323Y-73256197D01*
X126166338Y-73424556D01*
X126267354Y-73525571D01*
X126435713Y-73626587D01*
X126536728Y-73660258D01*
X126671415Y-73660258D01*
X126806102Y-73592914D01*
X126974461Y-73424556D01*
X125627591Y-73357212D02*
X125189858Y-73794945D01*
X125694934Y-73828616D01*
X125593918Y-73929632D01*
X125560246Y-74030647D01*
X125560246Y-74097991D01*
X125593919Y-74199007D01*
X125762277Y-74367365D01*
X125863293Y-74401037D01*
X125930636Y-74401037D01*
X126031651Y-74367365D01*
X126233682Y-74165334D01*
X126267354Y-74064319D01*
X126267354Y-73996976D01*
X124819468Y-74636739D02*
X125290873Y-75108144D01*
X124718454Y-74199006D02*
X125391889Y-74535724D01*
X124954156Y-74973457D01*
X124314392Y-74805097D02*
X124247049Y-74805097D01*
X124146034Y-74838769D01*
X123977674Y-75007128D01*
X123944003Y-75108144D01*
X123944003Y-75175487D01*
X123977674Y-75276502D01*
X124045018Y-75343846D01*
X124179705Y-75411189D01*
X124987827Y-75411189D01*
X124550094Y-75848922D01*
X125066282Y-78386021D02*
X124359176Y-77678914D01*
X124662221Y-78790082D02*
X124561206Y-78082975D01*
X123955114Y-78082975D02*
X124763237Y-78082975D01*
X121970333Y-78925155D02*
X121139349Y-78368860D01*
X121006897Y-78566713D01*
X120966997Y-78711916D01*
X120993157Y-78844038D01*
X121045809Y-78936589D01*
X121177601Y-79082120D01*
X121296314Y-79161592D01*
X121481087Y-79227982D01*
X121586718Y-79241392D01*
X121718840Y-79215231D01*
X121837882Y-79123009D01*
X121970333Y-78925155D01*
X120636033Y-79120703D02*
X120291660Y-79635122D01*
X120793657Y-79570049D01*
X120714186Y-79688761D01*
X120700776Y-79794393D01*
X120713856Y-79860454D01*
X120766508Y-79953006D01*
X120964362Y-80085457D01*
X121069993Y-80098867D01*
X121136054Y-80085786D01*
X121228605Y-80033135D01*
X121387547Y-79795710D01*
X121400957Y-79690079D01*
X121387877Y-79624018D01*
X120091829Y-80532826D02*
X120645819Y-80903690D01*
X119907716Y-80123050D02*
X120633728Y-80322551D01*
X120289354Y-80836970D01*
X119562024Y-81324240D02*
X120116014Y-81695104D01*
X119377911Y-80914464D02*
X120103922Y-81113965D01*
X119759549Y-81628384D01*
X121062182Y-84162764D02*
X120231198Y-83606468D01*
X120744299Y-84637612D02*
X120507863Y-83963592D01*
X119913314Y-84081317D02*
X120706046Y-83924351D01*
X118127589Y-85299217D02*
X117203709Y-84916533D01*
X117112594Y-85136504D01*
X117101919Y-85286711D01*
X117153461Y-85411145D01*
X117223227Y-85491585D01*
X117380981Y-85608472D01*
X117512964Y-85663141D01*
X117707164Y-85692039D01*
X117813376Y-85684491D01*
X117937810Y-85632948D01*
X118036474Y-85519188D01*
X118127589Y-85299217D01*
X116857472Y-85752424D02*
X116620572Y-86324350D01*
X117100087Y-86162174D01*
X117045418Y-86294157D01*
X117052966Y-86400369D01*
X117078738Y-86462586D01*
X117148504Y-86543026D01*
X117368475Y-86634141D01*
X117474686Y-86626593D01*
X117536904Y-86600822D01*
X117617344Y-86531057D01*
X117726682Y-86267090D01*
X117719134Y-86160879D01*
X117693363Y-86098662D01*
X116600517Y-87243808D02*
X117216437Y-87498930D01*
X116339679Y-86878052D02*
X117090708Y-86931426D01*
X116853809Y-87503352D01*
X115928097Y-87996132D02*
X116000990Y-87820154D01*
X116081430Y-87750389D01*
X116143647Y-87724618D01*
X116312076Y-87691298D01*
X116506276Y-87720196D01*
X116858231Y-87865980D01*
X116927996Y-87946421D01*
X116953767Y-88008638D01*
X116961315Y-88114849D01*
X116888423Y-88290827D01*
X116807983Y-88360593D01*
X116745766Y-88386364D01*
X116639554Y-88393912D01*
X116419583Y-88302797D01*
X116349817Y-88222356D01*
X116324045Y-88160139D01*
X116316497Y-88053928D01*
X116389390Y-87877950D01*
X116469830Y-87808185D01*
X116532047Y-87782413D01*
X116638259Y-87774865D01*
X118263333Y-90613241D02*
X117339454Y-90230558D01*
X118044657Y-91141173D02*
X117680733Y-90526547D01*
X117120777Y-90758489D02*
X117867385Y-90449234D01*
X115609366Y-92296105D02*
X114628751Y-92100159D01*
X114582097Y-92333638D01*
X114600801Y-92483057D01*
X114675531Y-92595111D01*
X114759592Y-92660468D01*
X114937045Y-92744487D01*
X115077133Y-92772480D01*
X115273248Y-92763107D01*
X115375970Y-92735072D01*
X115488024Y-92660342D01*
X115562712Y-92529584D01*
X115609366Y-92296105D01*
X114451466Y-92987382D02*
X114330166Y-93594429D01*
X114769049Y-93342203D01*
X114741056Y-93482292D01*
X114769091Y-93585014D01*
X114806456Y-93641041D01*
X114890518Y-93706398D01*
X115123997Y-93753052D01*
X115226720Y-93725018D01*
X115282747Y-93687653D01*
X115348104Y-93603592D01*
X115404089Y-93323415D01*
X115376054Y-93220693D01*
X115338689Y-93164666D01*
X114489084Y-94500271D02*
X115142827Y-94630902D01*
X114162171Y-94192145D02*
X114909264Y-94098627D01*
X114787964Y-94705675D01*
X114451845Y-95172675D02*
X114423810Y-95069953D01*
X114386445Y-95013926D01*
X114302384Y-94948569D01*
X114255688Y-94939238D01*
X114152966Y-94967272D01*
X114096939Y-95004637D01*
X114031582Y-95088698D01*
X113994259Y-95275483D01*
X114022293Y-95378206D01*
X114059658Y-95434232D01*
X114143719Y-95499590D01*
X114190415Y-95508920D01*
X114293138Y-95480886D01*
X114349164Y-95443521D01*
X114414522Y-95359460D01*
X114451845Y-95172675D01*
X114517202Y-95088614D01*
X114573229Y-95051249D01*
X114675952Y-95023215D01*
X114862736Y-95060538D01*
X114946797Y-95125895D01*
X114984162Y-95181922D01*
X115012197Y-95284645D01*
X114974873Y-95471429D01*
X114909516Y-95555490D01*
X114853489Y-95592855D01*
X114750767Y-95620890D01*
X114563983Y-95583567D01*
X114479921Y-95518209D01*
X114442556Y-95462182D01*
X114414522Y-95359460D01*
X116774691Y-97482558D02*
X115794076Y-97286612D01*
X116662721Y-98042910D02*
X116186347Y-97510677D01*
X115682107Y-97846964D02*
X116354428Y-97398582D01*
X114498381Y-99655524D02*
X113498381Y-99655524D01*
X113498381Y-99893619D01*
X113546000Y-100036477D01*
X113641238Y-100131715D01*
X113736476Y-100179334D01*
X113926952Y-100226953D01*
X114069810Y-100226953D01*
X114260286Y-100179334D01*
X114355524Y-100131715D01*
X114450762Y-100036477D01*
X114498381Y-99893619D01*
X114498381Y-99655524D01*
X113498381Y-100560286D02*
X113498381Y-101179334D01*
X113879333Y-100846000D01*
X113879333Y-100988858D01*
X113926952Y-101084096D01*
X113974571Y-101131715D01*
X114069810Y-101179334D01*
X114307905Y-101179334D01*
X114403143Y-101131715D01*
X114450762Y-101084096D01*
X114498381Y-100988858D01*
X114498381Y-100703143D01*
X114450762Y-100607905D01*
X114403143Y-100560286D01*
X113498381Y-102084096D02*
X113498381Y-101607905D01*
X113974571Y-101560286D01*
X113926952Y-101607905D01*
X113879333Y-101703143D01*
X113879333Y-101941239D01*
X113926952Y-102036477D01*
X113974571Y-102084096D01*
X114069810Y-102131715D01*
X114307905Y-102131715D01*
X114403143Y-102084096D01*
X114450762Y-102036477D01*
X114498381Y-101941239D01*
X114498381Y-101703143D01*
X114450762Y-101607905D01*
X114403143Y-101560286D01*
X113498381Y-102750762D02*
X113498381Y-102846001D01*
X113546000Y-102941239D01*
X113593619Y-102988858D01*
X113688857Y-103036477D01*
X113879333Y-103084096D01*
X114117429Y-103084096D01*
X114307905Y-103036477D01*
X114403143Y-102988858D01*
X114450762Y-102941239D01*
X114498381Y-102846001D01*
X114498381Y-102750762D01*
X114450762Y-102655524D01*
X114403143Y-102607905D01*
X114307905Y-102560286D01*
X114117429Y-102512667D01*
X113879333Y-102512667D01*
X113688857Y-102560286D01*
X113593619Y-102607905D01*
X113546000Y-102655524D01*
X113498381Y-102750762D01*
X116657381Y-104513095D02*
X115657381Y-104513095D01*
X116657381Y-105084524D02*
X116085952Y-104655952D01*
X115657381Y-105084524D02*
X116228810Y-104513095D01*
X114618605Y-110575786D02*
X115599560Y-110381552D01*
X115553314Y-110147991D01*
X115478854Y-110017103D01*
X115366931Y-109942177D01*
X115264258Y-109913964D01*
X115068160Y-109904249D01*
X114928023Y-109931997D01*
X114750424Y-110015706D01*
X114666249Y-110080916D01*
X114591323Y-110192839D01*
X114572359Y-110342226D01*
X114618605Y-110575786D01*
X115423824Y-109494021D02*
X115303584Y-108886762D01*
X114994632Y-109287742D01*
X114966884Y-109147605D01*
X114901674Y-109063430D01*
X114845712Y-109025967D01*
X114743038Y-108997754D01*
X114509477Y-109044000D01*
X114425302Y-109109210D01*
X114387839Y-109165172D01*
X114359626Y-109267845D01*
X114415121Y-109548119D01*
X114480332Y-109632294D01*
X114536293Y-109669757D01*
X115127848Y-107999232D02*
X115220341Y-108466354D01*
X114762469Y-108605558D01*
X114799932Y-108549597D01*
X114828145Y-108446923D01*
X114781899Y-108213362D01*
X114716688Y-108129187D01*
X114660727Y-108091724D01*
X114558053Y-108063511D01*
X114324492Y-108109757D01*
X114240317Y-108174967D01*
X114202854Y-108230929D01*
X114174641Y-108333602D01*
X114220887Y-108567164D01*
X114286098Y-108651339D01*
X114342059Y-108688801D01*
X114951181Y-107597321D02*
X114988644Y-107541360D01*
X115016857Y-107438686D01*
X114970611Y-107205125D01*
X114905400Y-107120950D01*
X114849439Y-107083487D01*
X114746765Y-107055273D01*
X114653341Y-107073772D01*
X114522454Y-107148232D01*
X114072899Y-107819769D01*
X113952659Y-107212511D01*
X117125039Y-112118765D02*
X118105995Y-111924531D01*
X117014048Y-111558219D02*
X117657838Y-111867638D01*
X117995003Y-111363984D02*
X117545448Y-112035522D01*
X117097295Y-117777690D02*
X118021174Y-117395006D01*
X117930059Y-117175035D01*
X117831396Y-117061275D01*
X117706961Y-117009732D01*
X117600750Y-117002184D01*
X117406550Y-117031082D01*
X117274566Y-117085751D01*
X117116812Y-117202638D01*
X117047047Y-117283078D01*
X116995504Y-117407512D01*
X117006180Y-117557719D01*
X117097295Y-117777690D01*
X117674937Y-116559115D02*
X117438037Y-115987190D01*
X117213645Y-116440934D01*
X117158976Y-116308950D01*
X117078535Y-116239185D01*
X117016318Y-116213414D01*
X116910106Y-116205866D01*
X116690135Y-116296981D01*
X116620369Y-116377421D01*
X116594598Y-116439638D01*
X116587050Y-116545850D01*
X116696388Y-116809816D01*
X116776828Y-116879582D01*
X116839046Y-116905353D01*
X117091800Y-115151298D02*
X117274030Y-115591242D01*
X116852311Y-115817466D01*
X116878082Y-115755249D01*
X116885631Y-115649037D01*
X116794515Y-115429065D01*
X116714075Y-115359300D01*
X116651858Y-115333529D01*
X116545645Y-115325981D01*
X116325674Y-115417096D01*
X116255909Y-115497536D01*
X116230138Y-115559753D01*
X116222589Y-115665965D01*
X116313705Y-115885937D01*
X116394145Y-115955702D01*
X116456362Y-115981473D01*
X116437603Y-114442968D02*
X115821683Y-114698091D01*
X116880672Y-114517156D02*
X116311873Y-115010473D01*
X116074973Y-114438547D01*
X119857481Y-118799631D02*
X120781361Y-118416948D01*
X119638805Y-118271700D02*
X120330744Y-118448972D01*
X120562684Y-117889016D02*
X120253429Y-118635624D01*
X120929428Y-124350860D02*
X121761382Y-123796015D01*
X121629276Y-123597931D01*
X121510396Y-123505501D01*
X121378320Y-123479109D01*
X121272665Y-123492335D01*
X121087776Y-123558403D01*
X120968925Y-123637667D01*
X120836879Y-123782968D01*
X120784066Y-123875427D01*
X120757675Y-124007503D01*
X120797322Y-124152775D01*
X120929428Y-124350860D01*
X121259380Y-123043295D02*
X120915905Y-122528275D01*
X120783919Y-123016963D01*
X120704655Y-122898112D01*
X120612195Y-122845299D01*
X120546157Y-122832103D01*
X120440502Y-122845329D01*
X120242418Y-122977435D01*
X120189605Y-123069894D01*
X120176410Y-123135932D01*
X120189635Y-123241587D01*
X120348162Y-123479289D01*
X120440621Y-123532101D01*
X120506659Y-123545297D01*
X120413902Y-121775555D02*
X120678114Y-122171724D01*
X120308367Y-122475552D01*
X120321563Y-122409514D01*
X120308337Y-122303859D01*
X120176231Y-122105774D01*
X120083772Y-122052962D01*
X120017734Y-122039766D01*
X119912079Y-122052992D01*
X119713994Y-122185098D01*
X119661182Y-122277557D01*
X119647986Y-122343595D01*
X119661212Y-122449250D01*
X119793318Y-122647334D01*
X119885777Y-122700147D01*
X119951815Y-122713343D01*
X119911900Y-121022834D02*
X120017585Y-121181302D01*
X120030811Y-121286957D01*
X120017615Y-121352995D01*
X119951607Y-121511492D01*
X119819561Y-121656793D01*
X119502625Y-121868163D01*
X119396971Y-121881389D01*
X119330933Y-121868193D01*
X119238474Y-121815380D01*
X119132788Y-121656912D01*
X119119563Y-121551257D01*
X119132759Y-121485219D01*
X119185571Y-121392760D01*
X119383655Y-121260655D01*
X119489311Y-121247429D01*
X119555349Y-121260624D01*
X119647808Y-121313437D01*
X119753493Y-121471905D01*
X119766719Y-121577560D01*
X119753523Y-121643598D01*
X119700709Y-121736057D01*
X123835543Y-124817215D02*
X124667497Y-124262371D01*
X123518489Y-124341812D02*
X124231683Y-124381310D01*
X124350443Y-123786968D02*
X124192095Y-124579425D01*
X125975486Y-130055997D02*
X126682593Y-129348890D01*
X126514235Y-129180531D01*
X126379547Y-129113187D01*
X126244860Y-129113187D01*
X126143845Y-129146859D01*
X125975486Y-129247874D01*
X125874471Y-129348890D01*
X125773455Y-129517249D01*
X125739784Y-129618264D01*
X125739784Y-129752951D01*
X125807128Y-129887638D01*
X125975486Y-130055997D01*
X126042830Y-128709127D02*
X125605097Y-128271394D01*
X125571426Y-128776470D01*
X125470410Y-128675454D01*
X125369395Y-128641782D01*
X125302051Y-128641782D01*
X125201035Y-128675455D01*
X125032677Y-128843813D01*
X124999005Y-128944829D01*
X124999005Y-129012172D01*
X125032677Y-129113187D01*
X125234708Y-129315218D01*
X125335723Y-129348890D01*
X125403066Y-129348890D01*
X124965333Y-127631630D02*
X125302051Y-127968348D01*
X124999006Y-128338737D01*
X124999006Y-128271394D01*
X124965334Y-128170378D01*
X124796975Y-128002019D01*
X124695960Y-127968347D01*
X124628616Y-127968347D01*
X124527600Y-128002020D01*
X124359242Y-128170378D01*
X124325570Y-128271394D01*
X124325570Y-128338737D01*
X124359242Y-128439752D01*
X124527601Y-128608111D01*
X124628616Y-128641783D01*
X124695960Y-128641783D01*
X124224556Y-127496943D02*
X124325571Y-127530615D01*
X124392914Y-127530615D01*
X124493929Y-127496943D01*
X124527601Y-127463272D01*
X124561273Y-127362256D01*
X124561273Y-127294913D01*
X124527601Y-127193898D01*
X124392914Y-127059210D01*
X124291898Y-127025539D01*
X124224555Y-127025539D01*
X124123540Y-127059210D01*
X124089868Y-127092882D01*
X124056196Y-127193897D01*
X124056196Y-127261241D01*
X124089868Y-127362256D01*
X124224556Y-127496943D01*
X124258227Y-127597958D01*
X124258227Y-127665302D01*
X124224555Y-127766318D01*
X124089868Y-127901005D01*
X123988853Y-127934676D01*
X123921509Y-127934676D01*
X123820494Y-127901005D01*
X123685807Y-127766317D01*
X123652135Y-127665302D01*
X123652135Y-127597958D01*
X123685807Y-127496943D01*
X123820494Y-127362256D01*
X123921509Y-127328584D01*
X123988853Y-127328584D01*
X124089868Y-127362256D01*
X128916647Y-129943870D02*
X129623754Y-129236764D01*
X128512586Y-129539809D02*
X129219693Y-129438794D01*
X129219693Y-128832702D02*
X129219693Y-129640825D01*
X132031359Y-134662319D02*
X132587654Y-133831335D01*
X132389801Y-133698883D01*
X132244598Y-133658983D01*
X132112476Y-133685143D01*
X132019925Y-133737795D01*
X131874394Y-133869587D01*
X131794922Y-133988300D01*
X131728532Y-134173073D01*
X131715122Y-134278704D01*
X131741283Y-134410826D01*
X131833505Y-134529868D01*
X132031359Y-134662319D01*
X131835811Y-133328019D02*
X131321392Y-132983646D01*
X131386465Y-133485643D01*
X131267753Y-133406172D01*
X131162121Y-133392762D01*
X131096060Y-133405842D01*
X131003508Y-133458494D01*
X130871057Y-133656348D01*
X130857647Y-133761979D01*
X130870728Y-133828040D01*
X130923379Y-133920591D01*
X131160804Y-134079533D01*
X131266435Y-134092943D01*
X131332496Y-134079863D01*
X130609119Y-132506821D02*
X130767403Y-132612782D01*
X130820054Y-132705333D01*
X130833134Y-132771394D01*
X130832805Y-132943087D01*
X130766415Y-133127860D01*
X130554492Y-133444426D01*
X130461941Y-133497077D01*
X130395880Y-133510157D01*
X130290248Y-133496747D01*
X130131965Y-133390786D01*
X130079314Y-133298235D01*
X130066234Y-133232174D01*
X130079643Y-133126542D01*
X130212095Y-132928689D01*
X130304646Y-132876037D01*
X130370707Y-132862957D01*
X130476339Y-132876366D01*
X130634622Y-132982328D01*
X130687273Y-133074879D01*
X130700354Y-133140940D01*
X130686943Y-133246572D01*
X130015560Y-132109467D02*
X129936418Y-132056486D01*
X129830786Y-132043076D01*
X129764725Y-132056157D01*
X129672174Y-132108808D01*
X129526642Y-132240600D01*
X129394191Y-132438454D01*
X129327800Y-132623227D01*
X129314390Y-132728859D01*
X129327471Y-132794919D01*
X129380122Y-132887471D01*
X129459264Y-132940452D01*
X129564896Y-132953861D01*
X129630956Y-132940781D01*
X129723508Y-132888130D01*
X129869039Y-132756338D01*
X130001491Y-132558484D01*
X130067881Y-132373711D01*
X130081291Y-132268079D01*
X130068211Y-132202018D01*
X130015560Y-132109467D01*
X134894726Y-133981054D02*
X135451022Y-133150070D01*
X134419878Y-133663171D02*
X135093898Y-133426735D01*
X134976173Y-132832186D02*
X135133139Y-133624918D01*
X138876571Y-138002137D02*
X139259255Y-137078257D01*
X139039284Y-136987142D01*
X138889077Y-136976467D01*
X138764643Y-137028009D01*
X138684203Y-137097775D01*
X138567316Y-137255529D01*
X138512647Y-137387512D01*
X138483749Y-137581712D01*
X138491297Y-137687924D01*
X138542840Y-137812358D01*
X138656600Y-137911022D01*
X138876571Y-138002137D01*
X138423364Y-136732020D02*
X137851438Y-136495120D01*
X138013614Y-136974635D01*
X137881631Y-136919966D01*
X137775419Y-136927514D01*
X137713202Y-136953286D01*
X137632762Y-137023052D01*
X137541647Y-137243023D01*
X137549195Y-137349234D01*
X137574966Y-137411452D01*
X137644731Y-137491892D01*
X137908698Y-137601230D01*
X138014909Y-137593682D01*
X138077126Y-137567911D01*
X137059541Y-136167106D02*
X137235519Y-136239998D01*
X137305284Y-136320439D01*
X137331056Y-136382656D01*
X137364375Y-136551084D01*
X137335477Y-136745284D01*
X137189693Y-137097239D01*
X137109253Y-137167004D01*
X137047035Y-137192776D01*
X136940824Y-137200324D01*
X136764846Y-137127431D01*
X136695081Y-137046991D01*
X136669310Y-136984774D01*
X136661761Y-136878563D01*
X136752876Y-136658591D01*
X136833317Y-136588825D01*
X136895534Y-136563054D01*
X137001746Y-136555506D01*
X137177723Y-136628398D01*
X137247489Y-136708838D01*
X137273260Y-136771056D01*
X137280808Y-136877268D01*
X136583153Y-136072864D02*
X136557382Y-136010647D01*
X136487616Y-135930207D01*
X136267644Y-135839091D01*
X136161433Y-135846640D01*
X136099216Y-135872411D01*
X136018775Y-135942176D01*
X135982329Y-136030165D01*
X135971655Y-136180370D01*
X136280910Y-136926978D01*
X135708984Y-136690079D01*
X141550941Y-136773011D02*
X141933624Y-135849132D01*
X141023009Y-136554335D02*
X141637635Y-136190411D01*
X141405693Y-135630455D02*
X141714948Y-136377063D01*
X146234231Y-139940342D02*
X146430177Y-138959727D01*
X146196698Y-138913073D01*
X146047279Y-138931777D01*
X145935225Y-139006507D01*
X145869868Y-139090568D01*
X145785849Y-139268021D01*
X145757856Y-139408109D01*
X145767229Y-139604224D01*
X145795264Y-139706946D01*
X145869994Y-139819000D01*
X146000752Y-139893688D01*
X146234231Y-139940342D01*
X145542954Y-138782442D02*
X144935907Y-138661142D01*
X145188133Y-139100025D01*
X145048044Y-139072032D01*
X144945322Y-139100067D01*
X144889295Y-139137432D01*
X144823938Y-139221494D01*
X144777284Y-139454973D01*
X144805318Y-139557696D01*
X144842683Y-139613723D01*
X144926744Y-139679080D01*
X145206921Y-139735065D01*
X145309643Y-139707030D01*
X145365670Y-139669665D01*
X144095380Y-138493188D02*
X144282165Y-138530512D01*
X144366226Y-138595869D01*
X144403591Y-138651896D01*
X144468990Y-138810645D01*
X144478363Y-139006759D01*
X144403717Y-139380327D01*
X144338359Y-139464388D01*
X144282333Y-139501754D01*
X144179610Y-139529788D01*
X143992826Y-139492465D01*
X143908765Y-139427107D01*
X143871399Y-139371081D01*
X143843365Y-139268358D01*
X143890019Y-139034879D01*
X143955376Y-138950817D01*
X144011403Y-138913451D01*
X144114126Y-138885417D01*
X144300910Y-138922740D01*
X144384971Y-138988098D01*
X144422336Y-139044124D01*
X144450371Y-139146848D01*
X143096146Y-138633444D02*
X142965515Y-139287188D01*
X143404272Y-138306531D02*
X143497790Y-139053624D01*
X142890743Y-138932324D01*
X148618930Y-138215171D02*
X148814876Y-137234556D01*
X148058578Y-138103201D02*
X148590811Y-137626827D01*
X148254524Y-137122587D02*
X148702906Y-137794908D01*
M02*
