%FSLAX45Y45*%
G04 Gerber Fmt 4.5, Leading zero omitted, Abs format (unit mm)*
G04 Created by KiCad (PCBNEW 4.0.0-rc1-stable) date 4/24/2016 3:56:28 PM*
%MOMM*%
G01*
G04 APERTURE LIST*
%ADD10C,0.127000*%
%ADD11C,0.100000*%
%ADD12C,0.200000*%
%ADD13C,0.300000*%
G04 APERTURE END LIST*
D10*
D11*
X20320000Y-10160000D02*
G75*
G03X20320000Y-10160000I-5080000J0D01*
G01*
X20002500Y-10160000D02*
G75*
G03X20002500Y-10160000I-4762500J0D01*
G01*
D12*
X16478250Y-9787890D02*
X16795750Y-10105390D01*
X16795750Y-9787890D02*
X16478250Y-10105390D01*
D13*
X10426429Y-15710714D02*
X10426429Y-15410714D01*
X10497857Y-15410714D01*
X10540714Y-15425000D01*
X10569286Y-15453571D01*
X10583571Y-15482143D01*
X10597857Y-15539286D01*
X10597857Y-15582143D01*
X10583571Y-15639286D01*
X10569286Y-15667857D01*
X10540714Y-15696429D01*
X10497857Y-15710714D01*
X10426429Y-15710714D01*
X10726429Y-15710714D02*
X10726429Y-15510714D01*
X10726429Y-15567857D02*
X10740714Y-15539286D01*
X10755000Y-15525000D01*
X10783571Y-15510714D01*
X10812143Y-15510714D01*
X10912143Y-15710714D02*
X10912143Y-15510714D01*
X10912143Y-15410714D02*
X10897857Y-15425000D01*
X10912143Y-15439286D01*
X10926429Y-15425000D01*
X10912143Y-15410714D01*
X10912143Y-15439286D01*
X11097857Y-15710714D02*
X11069286Y-15696429D01*
X11055000Y-15667857D01*
X11055000Y-15410714D01*
X11255000Y-15710714D02*
X11226428Y-15696429D01*
X11212143Y-15667857D01*
X11212143Y-15410714D01*
X11597857Y-15710714D02*
X11597857Y-15410714D01*
X11697857Y-15625000D01*
X11797857Y-15410714D01*
X11797857Y-15710714D01*
X12069286Y-15710714D02*
X12069286Y-15553571D01*
X12055000Y-15525000D01*
X12026428Y-15510714D01*
X11969286Y-15510714D01*
X11940714Y-15525000D01*
X12069286Y-15696429D02*
X12040714Y-15710714D01*
X11969286Y-15710714D01*
X11940714Y-15696429D01*
X11926428Y-15667857D01*
X11926428Y-15639286D01*
X11940714Y-15610714D01*
X11969286Y-15596429D01*
X12040714Y-15596429D01*
X12069286Y-15582143D01*
X12212143Y-15510714D02*
X12212143Y-15810714D01*
X12212143Y-15525000D02*
X12240714Y-15510714D01*
X12297857Y-15510714D01*
X12326428Y-15525000D01*
X12340714Y-15539286D01*
X12355000Y-15567857D01*
X12355000Y-15653571D01*
X12340714Y-15682143D01*
X12326428Y-15696429D01*
X12297857Y-15710714D01*
X12240714Y-15710714D01*
X12212143Y-15696429D01*
X12483571Y-15682143D02*
X12497857Y-15696429D01*
X12483571Y-15710714D01*
X12469286Y-15696429D01*
X12483571Y-15682143D01*
X12483571Y-15710714D01*
X12483571Y-15525000D02*
X12497857Y-15539286D01*
X12483571Y-15553571D01*
X12469286Y-15539286D01*
X12483571Y-15525000D01*
X12483571Y-15553571D01*
X9837500Y-16046250D02*
X10155000Y-16363750D01*
X10155000Y-16046250D02*
X9837500Y-16363750D01*
X10397857Y-16040714D02*
X10583571Y-16040714D01*
X10483571Y-16155000D01*
X10526429Y-16155000D01*
X10555000Y-16169286D01*
X10569286Y-16183571D01*
X10583571Y-16212143D01*
X10583571Y-16283571D01*
X10569286Y-16312143D01*
X10555000Y-16326429D01*
X10526429Y-16340714D01*
X10440714Y-16340714D01*
X10412143Y-16326429D01*
X10397857Y-16312143D01*
X10712143Y-16312143D02*
X10726429Y-16326429D01*
X10712143Y-16340714D01*
X10697857Y-16326429D01*
X10712143Y-16312143D01*
X10712143Y-16340714D01*
X11012143Y-16340714D02*
X10840714Y-16340714D01*
X10926428Y-16340714D02*
X10926428Y-16040714D01*
X10897857Y-16083571D01*
X10869286Y-16112143D01*
X10840714Y-16126429D01*
X11112143Y-16040714D02*
X11312143Y-16040714D01*
X11183571Y-16340714D01*
X11426428Y-16340714D02*
X11426428Y-16140714D01*
X11426428Y-16169286D02*
X11440714Y-16155000D01*
X11469286Y-16140714D01*
X11512143Y-16140714D01*
X11540714Y-16155000D01*
X11555000Y-16183571D01*
X11555000Y-16340714D01*
X11555000Y-16183571D02*
X11569286Y-16155000D01*
X11597857Y-16140714D01*
X11640714Y-16140714D01*
X11669286Y-16155000D01*
X11683571Y-16183571D01*
X11683571Y-16340714D01*
X11826428Y-16340714D02*
X11826428Y-16140714D01*
X11826428Y-16169286D02*
X11840714Y-16155000D01*
X11869286Y-16140714D01*
X11912143Y-16140714D01*
X11940714Y-16155000D01*
X11955000Y-16183571D01*
X11955000Y-16340714D01*
X11955000Y-16183571D02*
X11969286Y-16155000D01*
X11997857Y-16140714D01*
X12040714Y-16140714D01*
X12069286Y-16155000D01*
X12083571Y-16183571D01*
X12083571Y-16340714D01*
X12669286Y-16026429D02*
X12412143Y-16412143D01*
X13055000Y-16040714D02*
X13083571Y-16040714D01*
X13112143Y-16055000D01*
X13126428Y-16069286D01*
X13140714Y-16097857D01*
X13155000Y-16155000D01*
X13155000Y-16226429D01*
X13140714Y-16283571D01*
X13126428Y-16312143D01*
X13112143Y-16326429D01*
X13083571Y-16340714D01*
X13055000Y-16340714D01*
X13026428Y-16326429D01*
X13012143Y-16312143D01*
X12997857Y-16283571D01*
X12983571Y-16226429D01*
X12983571Y-16155000D01*
X12997857Y-16097857D01*
X13012143Y-16069286D01*
X13026428Y-16055000D01*
X13055000Y-16040714D01*
X13283571Y-16312143D02*
X13297857Y-16326429D01*
X13283571Y-16340714D01*
X13269286Y-16326429D01*
X13283571Y-16312143D01*
X13283571Y-16340714D01*
X13583571Y-16340714D02*
X13412143Y-16340714D01*
X13497857Y-16340714D02*
X13497857Y-16040714D01*
X13469285Y-16083571D01*
X13440714Y-16112143D01*
X13412143Y-16126429D01*
X13697857Y-16069286D02*
X13712143Y-16055000D01*
X13740714Y-16040714D01*
X13812143Y-16040714D01*
X13840714Y-16055000D01*
X13855000Y-16069286D01*
X13869285Y-16097857D01*
X13869285Y-16126429D01*
X13855000Y-16169286D01*
X13683571Y-16340714D01*
X13869285Y-16340714D01*
X14140714Y-16040714D02*
X13997857Y-16040714D01*
X13983571Y-16183571D01*
X13997857Y-16169286D01*
X14026428Y-16155000D01*
X14097857Y-16155000D01*
X14126428Y-16169286D01*
X14140714Y-16183571D01*
X14155000Y-16212143D01*
X14155000Y-16283571D01*
X14140714Y-16312143D01*
X14126428Y-16326429D01*
X14097857Y-16340714D01*
X14026428Y-16340714D01*
X13997857Y-16326429D01*
X13983571Y-16312143D01*
X14269286Y-16040714D02*
X14269286Y-16097857D01*
X14383571Y-16040714D02*
X14383571Y-16097857D01*
X14826428Y-16455000D02*
X14812143Y-16440714D01*
X14783571Y-16397857D01*
X14769285Y-16369286D01*
X14755000Y-16326429D01*
X14740714Y-16255000D01*
X14740714Y-16197857D01*
X14755000Y-16126429D01*
X14769285Y-16083571D01*
X14783571Y-16055000D01*
X14812143Y-16012143D01*
X14826428Y-15997857D01*
X15097857Y-16340714D02*
X14926428Y-16340714D01*
X15012143Y-16340714D02*
X15012143Y-16040714D01*
X14983571Y-16083571D01*
X14955000Y-16112143D01*
X14926428Y-16126429D01*
X15455000Y-16340714D02*
X15455000Y-16040714D01*
X15583571Y-16340714D02*
X15583571Y-16183571D01*
X15569285Y-16155000D01*
X15540714Y-16140714D01*
X15497857Y-16140714D01*
X15469285Y-16155000D01*
X15455000Y-16169286D01*
X15769285Y-16340714D02*
X15740714Y-16326429D01*
X15726428Y-16312143D01*
X15712143Y-16283571D01*
X15712143Y-16197857D01*
X15726428Y-16169286D01*
X15740714Y-16155000D01*
X15769285Y-16140714D01*
X15812143Y-16140714D01*
X15840714Y-16155000D01*
X15855000Y-16169286D01*
X15869285Y-16197857D01*
X15869285Y-16283571D01*
X15855000Y-16312143D01*
X15840714Y-16326429D01*
X15812143Y-16340714D01*
X15769285Y-16340714D01*
X16040714Y-16340714D02*
X16012143Y-16326429D01*
X15997857Y-16297857D01*
X15997857Y-16040714D01*
X16269286Y-16326429D02*
X16240714Y-16340714D01*
X16183571Y-16340714D01*
X16155000Y-16326429D01*
X16140714Y-16297857D01*
X16140714Y-16183571D01*
X16155000Y-16155000D01*
X16183571Y-16140714D01*
X16240714Y-16140714D01*
X16269286Y-16155000D01*
X16283571Y-16183571D01*
X16283571Y-16212143D01*
X16140714Y-16240714D01*
X16383571Y-16455000D02*
X16397857Y-16440714D01*
X16426428Y-16397857D01*
X16440714Y-16369286D01*
X16455000Y-16326429D01*
X16469286Y-16255000D01*
X16469286Y-16197857D01*
X16455000Y-16126429D01*
X16440714Y-16083571D01*
X16426428Y-16055000D01*
X16397857Y-16012143D01*
X16383571Y-15997857D01*
M02*
